<?xml version="1.0" standalone="no"?>
<!DOCTYPE svg PUBLIC "-//W3C//DTD SVG 20010904//EN"
 "http://www.w3.org/TR/2001/REC-SVG-20010904/DTD/svg10.dtd">
<svg version="1.0" xmlns="http://www.w3.org/2000/svg"
 width="500.000000pt" height="500.000000pt" viewBox="0 0 500.000000 500.000000"
 preserveAspectRatio="xMidYMid meet">
<metadata>
Created by potrace 1.11, written by Peter Selinger 2001-2013
</metadata>
<g transform="translate(0.000000,500.000000) scale(0.100000,-0.100000)"
fill="#000000" stroke="none">
<path d="M830 2912 l0 -1197 -251 -195 -251 -195 441 -3 441 -2 0 -190 0 -190
1393 -1 1392 0 188 -245 c104 -134 193 -244 198 -244 5 0 9 670 9 1640 l0
1640 -195 0 -195 0 0 190 0 190 -1585 0 -1585 0 0 -1198z m3160 -387 l0 -1195
-1385 0 -1385 0 0 1195 0 1195 1385 0 1385 0 0 -1195z"/>
<path d="M1590 3185 l0 -165 195 0 195 0 0 165 0 165 -195 0 -195 0 0 -165z"/>
<path d="M2250 2526 l0 -826 175 0 175 0 0 265 0 265 133 0 132 0 170 -265
170 -265 208 0 c114 0 207 3 207 8 0 4 -85 135 -189 292 l-188 285 56 30 c125
67 221 188 255 321 21 80 21 251 1 328 -48 184 -173 306 -370 363 -52 15 -121
18 -497 21 l-438 3 0 -825z m846 457 c84 -45 121 -120 111 -227 -7 -81 -43
-132 -122 -171 l-60 -30 -212 -4 -213 -3 0 232 0 231 228 -3 c212 -3 230 -4
268 -25z"/>
<path d="M1590 2300 l0 -600 195 0 195 0 0 600 0 600 -195 0 -195 0 0 -600z"/>
</g>
</svg>
