<?xml version="1.0" encoding="utf-8"?>
<!-- Generator: Adobe Illustrator 19.0.0, SVG Export Plug-In . SVG Version: 6.00 Build 0)  -->
<svg version="1.1" id="Layer_1" xmlns="http://www.w3.org/2000/svg" xmlns:xlink="http://www.w3.org/1999/xlink" x="0px" y="0px"
	 viewBox="-130 334 213.6 100" style="enable-background:new -130 334 213.6 100;" xml:space="preserve">
<g>
	<g>
		<path d="M-37.9,382.4h29.4v3.2h-29.4V382.4z"/>
	</g>
	<g>
		<path d="M-33.4,364.7h5.5c0.2,2.3,1.2,4.1,4.9,4.1c2.5,0,4.2-1.4,4.2-3.3c0-2-1.1-2.7-4.8-3.3c-6.5-0.8-9.1-2.8-9.1-7.6
			c0-4.3,3.6-7.5,9.2-7.5c5.7,0,9,2.5,9.4,7.5h-5.3c-0.4-2.3-1.7-3.3-4.2-3.3c-2.5,0-3.8,1.2-3.8,2.9c0,1.8,0.8,2.6,4.7,3.2
			c6.1,0.8,9.2,2.4,9.2,7.6c0,4.5-3.7,8-9.6,8C-29.9,372.9-33.1,369.7-33.4,364.7z"/>
		<path d="M-32.2,395.8h9.9c5.5,0,8.4,2.3,8.4,6.6v0.1c0,2.6-1.3,4.6-4.1,5.4c3.3,0.7,5,2.5,5,5.9v0.1c0,4.6-3,7.1-8.8,7.1h-10.4
			V395.8z M-23.2,406.2c2.7,0,3.8-1,3.8-3.2v-0.1c0-2.1-1.2-3.1-3.9-3.1h-3.4v6.4H-23.2z M-22.7,417.1c2.8,0,4.1-1.3,4.1-3.6v-0.1
			c0-2.3-1.3-3.5-4.4-3.5h-3.6v7.2H-22.7z"/>
	</g>
</g>
</svg>
