<?xml version="1.0" standalone="no"?>
<!DOCTYPE svg PUBLIC "-//W3C//DTD SVG 1.1//EN" "http://www.w3.org/Graphics/SVG/1.1/DTD/svg11.dtd" >
<svg>
<metadata>
Created by FontForge 20090622 at Wed Aug 17 15:38:56 2016
 By deploy user
(c) Copyright The Font Bureau, Inc. 2014. All rights reserved.
</metadata>
<defs>
<font id="InputMonoNarrow-Regular" horiz-adv-x="662" >
  <font-face 
    font-family="InputMonoNarrow"
    font-weight="400"
    font-stretch="semi-condensed"
    units-per-em="1100"
    panose-1="2 0 5 9 2 0 0 9 0 4"
    ascent="850"
    descent="-250"
    x-height="600"
    cap-height="800"
    bbox="-215 -450 861 1400"
    underline-thickness="0"
    underline-position="0"
    unicode-range="U+000D-U+1F41B"
  />
<missing-glyph 
d="M50 -250v1100h562v-1100h-562zM150 -150h362v900h-362v-900z" />
    <glyph glyph-name=".notdef" 
d="M50 -250v1100h562v-1100h-562zM150 -150h362v900h-362v-900z" />
    <glyph glyph-name="NULL" horiz-adv-x="0" 
 />
    <glyph glyph-name="nonmarkingreturn" unicode="&#xd;" horiz-adv-x="0" 
 />
    <glyph glyph-name="space" unicode="&#xa0;" 
 />
    <glyph glyph-name="space" unicode=" " 
 />
    <glyph glyph-name="A" unicode="A" 
d="M430 319l-99 370l-101 -370h200zM516 0l-63 233h-247l-63 -233h-98l235 800h103l235 -800h-102z" />
    <glyph glyph-name="Agrave" unicode="&#xc0;" 
d="M430 319l-99 370l-101 -370h200zM516 0l-63 233h-247l-63 -233h-98l235 800h103l235 -800h-102zM332 900l-181 200h143l123 -200h-85z" />
    <glyph glyph-name="Aacute" unicode="&#xc1;" 
d="M430 319l-99 370l-101 -370h200zM516 0l-63 233h-247l-63 -233h-98l235 800h103l235 -800h-102zM226 900l124 200h142l-180 -200h-86z" />
    <glyph glyph-name="Acircumflex" unicode="&#xc2;" 
d="M430 319l-99 370l-101 -370h200zM516 0l-63 233h-247l-63 -233h-98l235 800h103l235 -800h-102zM172 908l-39 60l163 148h70l165 -148l-39 -60l-161 114z" />
    <glyph glyph-name="Atilde" unicode="&#xc3;" 
d="M430 319l-99 370l-101 -370h200zM516 0l-63 233h-247l-63 -233h-98l235 800h103l235 -800h-102zM405 910q-34 0 -55.5 18t-37.5 40l-29.5 40t-30.5 18q-18 0 -30 -20.5t-11 -74.5v-11h-74v15q0 75 31.5 124.5t90.5 49.5q37 0 59 -18t38 -40l28 -40t28 -18q18 0 30 20.5
t12 74.5v11h73v-15q0 -76 -31.5 -125t-90.5 -49z" />
    <glyph glyph-name="Adieresis" unicode="&#xc4;" 
d="M430 319l-99 370l-101 -370h200zM516 0l-63 233h-247l-63 -233h-98l235 800h103l235 -800h-102zM226 911q-28 0 -45 12t-17 44v7q0 33 17 45.5t45 12.5t44.5 -12.5t16.5 -45.5v-7q0 -32 -17 -44t-44 -12zM438 911q-28 0 -44.5 12t-16.5 44v7q0 33 16.5 45.5t44.5 12.5
t45 -12.5t17 -45.5v-7q0 -32 -17.5 -44t-44.5 -12z" />
    <glyph glyph-name="Aring" unicode="&#xc5;" 
d="M430 319l-99 370l-101 -370h200zM516 0l-63 233h-247l-63 -233h-98l235 800h103l235 -800h-102zM332 886q-67 0 -108 35t-41 109v32q0 75 41 111t108 36t108 -36t41 -111v-32q0 -74 -41 -109t-108 -35zM332 955q37 0 56 17.5t19 57.5v32q0 40 -19 59t-56 19t-56 -19
t-19 -59v-32q0 -40 19 -57.5t56 -17.5z" />
    <glyph glyph-name="Amacron" unicode="&#x100;" 
d="M430 319l-99 370l-101 -370h200zM516 0l-63 233h-247l-63 -233h-98l235 800h103l235 -800h-102zM147 957v86h370v-86h-370z" />
    <glyph glyph-name="Abreve" unicode="&#x102;" 
d="M430 319l-99 370l-101 -370h200zM516 0l-63 233h-247l-63 -233h-98l235 800h103l235 -800h-102zM332 893q-94 0 -154 49t-61 159h95q1 -72 30.5 -101.5t89.5 -29.5t89.5 29.5t30.5 101.5h95q-1 -110 -61 -159t-154 -49z" />
    <glyph glyph-name="Aogonek" unicode="&#x104;" 
d="M430 319l-99 370l-101 -370h200zM516 0l-63 233h-247l-63 -233h-98l235 800h103l235 -800h-102zM575 -215q-59 0 -99 32t-40 87q0 48 35.5 85.5t78.5 55.5l25 -22q-31 -21 -42.5 -46.5t-11.5 -45.5q0 -28 17.5 -42.5t48.5 -14.5q16 0 41 3t41 7v-89q-19 -4 -45.5 -7
t-48.5 -3z" />
    <glyph glyph-name="Aringacute" unicode="&#x1fa;" 
d="M430 319l-99 370l-101 -370h200zM516 0l-63 233h-247l-63 -233h-98l235 800h103l235 -800h-102zM332 886q-67 0 -108 35t-41 109v32q0 75 41 111t108 36t108 -36t41 -111v-32q0 -74 -41 -109t-108 -35zM332 955q37 0 56 17.5t19 57.5v32q0 40 -19 59t-56 19t-56 -19
t-19 -59v-32q0 -40 19 -57.5t56 -17.5zM281 1200l124 200h142l-180 -200h-86z" />
    <glyph glyph-name="B" unicode="B" 
d="M99 0v800h231q114 0 169.5 -46.5t55.5 -141.5v-46q0 -50 -27.5 -84.5t-76.5 -43.5v-29q61 -6 97 -49.5t36 -111.5v-44q0 -103 -61.5 -153.5t-186.5 -50.5h-237zM196 459h141q64 0 93.5 26.5t29.5 86.5v27q0 60 -29.5 87t-93.5 27h-141v-254zM196 87h158q69 0 101 30.5
t32 97.5v31q0 67 -32 97t-101 30h-158v-286z" />
    <glyph glyph-name="C" unicode="C" 
d="M341 -10q-130 0 -194.5 70.5t-64.5 210.5v254q0 142 64.5 213.5t195.5 71.5q126 0 188 -65t69 -205l-97 -10q-8 110 -43 151.5t-118 41.5q-90 0 -126 -44.5t-36 -152.5v-256q0 -103 37.5 -148t124.5 -45q84 0 118 41t43 148l97 -10q-7 -138 -69 -202t-189 -64z" />
    <glyph glyph-name="Ccedilla" unicode="&#xc7;" 
d="M341 -10q-130 0 -194.5 70.5t-64.5 210.5v254q0 142 64.5 213.5t195.5 71.5q126 0 188 -65t69 -205l-97 -10q-8 110 -43 151.5t-118 41.5q-90 0 -126 -44.5t-36 -152.5v-256q0 -103 37.5 -148t124.5 -45q84 0 118 41t43 148l97 -10q-7 -138 -69 -202t-189 -64zM313 0
l19 42q46 -9 81.5 -40t35.5 -93q0 -64 -42.5 -94t-94.5 -30q-62 0 -101 23.5t-43 80.5l85 10q1 -19 13.5 -26.5t40.5 -7.5q27 0 41 12.5t14 46.5q0 35 -11 51.5t-38 24.5z" />
    <glyph glyph-name="Cacute" unicode="&#x106;" 
d="M341 -10q-130 0 -194.5 70.5t-64.5 210.5v254q0 142 64.5 213.5t195.5 71.5q126 0 188 -65t69 -205l-97 -10q-8 110 -43 151.5t-118 41.5q-90 0 -126 -44.5t-36 -152.5v-256q0 -103 37.5 -148t124.5 -45q84 0 118 41t43 148l97 -10q-7 -138 -69 -202t-189 -64zM270 900
l124 200h142l-180 -200h-86z" />
    <glyph glyph-name="Ccircumflex" unicode="&#x108;" 
d="M341 -10q-130 0 -194.5 70.5t-64.5 210.5v254q0 142 64.5 213.5t195.5 71.5q126 0 188 -65t69 -205l-97 -10q-8 110 -43 151.5t-118 41.5q-90 0 -126 -44.5t-36 -152.5v-256q0 -103 37.5 -148t124.5 -45q84 0 118 41t43 148l97 -10q-7 -138 -69 -202t-189 -64zM181 908
l-39 60l163 148h70l165 -148l-39 -60l-161 114z" />
    <glyph glyph-name="Cdotaccent" unicode="&#x10a;" 
d="M341 -10q-130 0 -194.5 70.5t-64.5 210.5v254q0 142 64.5 213.5t195.5 71.5q126 0 188 -65t69 -205l-97 -10q-8 110 -43 151.5t-118 41.5q-90 0 -126 -44.5t-36 -152.5v-256q0 -103 37.5 -148t124.5 -45q84 0 118 41t43 148l97 -10q-7 -138 -69 -202t-189 -64zM341 911
q-36 0 -58 12t-22 44v7q0 33 22 45.5t58 12.5t58 -12.5t22 -45.5v-7q0 -32 -22.5 -44t-57.5 -12z" />
    <glyph glyph-name="Ccaron" unicode="&#x10c;" 
d="M341 -10q-130 0 -194.5 70.5t-64.5 210.5v254q0 142 64.5 213.5t195.5 71.5q126 0 188 -65t69 -205l-97 -10q-8 110 -43 151.5t-118 41.5q-90 0 -126 -44.5t-36 -152.5v-256q0 -103 37.5 -148t124.5 -45q84 0 118 41t43 148l97 -10q-7 -138 -69 -202t-189 -64zM307 904
l-165 148l39 60l161 -113l159 113l39 -60l-163 -148h-70z" />
    <glyph glyph-name="D" unicode="D" 
d="M99 0v800h207q128 0 201 -77.5t73 -206.5v-236q0 -128 -73.5 -204t-201.5 -76h-206zM196 87h108q90 0 134.5 52t44.5 140v238q0 89 -44.5 142.5t-134.5 53.5h-108v-626z" />
    <glyph glyph-name="Dcaron" unicode="&#x10e;" 
d="M99 0v800h207q128 0 201 -77.5t73 -206.5v-236q0 -128 -73.5 -204t-201.5 -76h-206zM196 87h108q90 0 134.5 52t44.5 140v238q0 89 -44.5 142.5t-134.5 53.5h-108v-626zM297 904l-165 148l39 60l161 -113l159 113l39 -60l-163 -148h-70z" />
    <glyph glyph-name="E" unicode="E" 
d="M99 0v800h481v-87h-384v-234h338v-87h-338v-305h384v-87h-481z" />
    <glyph glyph-name="Egrave" unicode="&#xc8;" 
d="M99 0v800h481v-87h-384v-234h338v-87h-338v-305h384v-87h-481zM341 900l-181 200h143l123 -200h-85z" />
    <glyph glyph-name="Eacute" unicode="&#xc9;" 
d="M99 0v800h481v-87h-384v-234h338v-87h-338v-305h384v-87h-481zM253 900l124 200h142l-180 -200h-86z" />
    <glyph glyph-name="Ecircumflex" unicode="&#xca;" 
d="M99 0v800h481v-87h-384v-234h338v-87h-338v-305h384v-87h-481zM189 908l-39 60l163 148h70l165 -148l-39 -60l-161 114z" />
    <glyph glyph-name="Edieresis" unicode="&#xcb;" 
d="M99 0v800h481v-87h-384v-234h338v-87h-338v-305h384v-87h-481zM243 911q-28 0 -45 12t-17 44v7q0 33 17 45.5t45 12.5t44.5 -12.5t16.5 -45.5v-7q0 -32 -17 -44t-44 -12zM455 911q-28 0 -44.5 12t-16.5 44v7q0 33 16.5 45.5t44.5 12.5t45 -12.5t17 -45.5v-7
q0 -32 -17.5 -44t-44.5 -12z" />
    <glyph glyph-name="Emacron" unicode="&#x112;" 
d="M99 0v800h481v-87h-384v-234h338v-87h-338v-305h384v-87h-481zM164 957v86h370v-86h-370z" />
    <glyph glyph-name="Ebreve" unicode="&#x114;" 
d="M99 0v800h481v-87h-384v-234h338v-87h-338v-305h384v-87h-481zM349 893q-94 0 -154 49t-61 159h95q1 -72 30.5 -101.5t89.5 -29.5t89.5 29.5t30.5 101.5h95q-1 -110 -61 -159t-154 -49z" />
    <glyph glyph-name="Edotaccent" unicode="&#x116;" 
d="M99 0v800h481v-87h-384v-234h338v-87h-338v-305h384v-87h-481zM349 911q-36 0 -58 12t-22 44v7q0 33 22 45.5t58 12.5t58 -12.5t22 -45.5v-7q0 -32 -22.5 -44t-57.5 -12z" />
    <glyph glyph-name="Eogonek" unicode="&#x118;" 
d="M487 -215q-59 0 -99 32t-40 87q0 48 35.5 85.5t78.5 55.5l25 -22q-31 -21 -42.5 -46.5t-11.5 -45.5q0 -28 17.5 -42.5t48.5 -14.5q16 0 41 3t41 7v-89q-19 -4 -45.5 -7t-48.5 -3zM99 0v800h481v-87h-384v-234h338v-87h-338v-305h384v-87h-481z" />
    <glyph glyph-name="Ecaron" unicode="&#x11a;" 
d="M99 0v800h481v-87h-384v-234h338v-87h-338v-305h384v-87h-481zM324 904l-165 148l39 60l161 -113l159 113l39 -60l-163 -148h-70z" />
    <glyph glyph-name="F" unicode="F" 
d="M102 0v800h479v-87h-382v-316h318v-86h-318v-311h-97z" />
    <glyph glyph-name="G" unicode="G" 
d="M347 -10q-129 0 -197 74t-68 207v254q0 138 67 211.5t192 73.5q115 0 173.5 -61.5t65.5 -189.5l-97 -10q-7 95 -40 134.5t-104 39.5q-87 0 -123.5 -45t-36.5 -152v-256q0 -104 39 -148.5t130 -44.5q83 0 118 51t35 172h-170v86h267v-105q0 -140 -64.5 -215.5
t-186.5 -75.5z" />
    <glyph glyph-name="Gcircumflex" unicode="&#x11c;" 
d="M347 -10q-129 0 -197 74t-68 207v254q0 138 67 211.5t192 73.5q115 0 173.5 -61.5t65.5 -189.5l-97 -10q-7 95 -40 134.5t-104 39.5q-87 0 -123.5 -45t-36.5 -152v-256q0 -104 39 -148.5t130 -44.5q83 0 118 51t35 172h-170v86h267v-105q0 -140 -64.5 -215.5
t-186.5 -75.5zM188 908l-39 60l163 148h70l165 -148l-39 -60l-161 114z" />
    <glyph glyph-name="Gbreve" unicode="&#x11e;" 
d="M347 -10q-129 0 -197 74t-68 207v254q0 138 67 211.5t192 73.5q115 0 173.5 -61.5t65.5 -189.5l-97 -10q-7 95 -40 134.5t-104 39.5q-87 0 -123.5 -45t-36.5 -152v-256q0 -104 39 -148.5t130 -44.5q83 0 118 51t35 172h-170v86h267v-105q0 -140 -64.5 -215.5
t-186.5 -75.5zM348 893q-94 0 -154 49t-61 159h95q1 -72 30.5 -101.5t89.5 -29.5t89.5 29.5t30.5 101.5h95q-1 -110 -61 -159t-154 -49z" />
    <glyph glyph-name="Gdotaccent" unicode="&#x120;" 
d="M347 -10q-129 0 -197 74t-68 207v254q0 138 67 211.5t192 73.5q115 0 173.5 -61.5t65.5 -189.5l-97 -10q-7 95 -40 134.5t-104 39.5q-87 0 -123.5 -45t-36.5 -152v-256q0 -104 39 -148.5t130 -44.5q83 0 118 51t35 172h-170v86h267v-105q0 -140 -64.5 -215.5
t-186.5 -75.5zM340 911q-36 0 -58 12t-22 44v7q0 33 22 45.5t58 12.5t58 -12.5t22 -45.5v-7q0 -32 -22.5 -44t-57.5 -12z" />
    <glyph glyph-name="Gcommaaccent" unicode="&#x122;" 
d="M215 -300l87 200h143l-144 -200h-86zM347 -10q-129 0 -197 74t-68 207v254q0 138 67 211.5t192 73.5q115 0 173.5 -61.5t65.5 -189.5l-97 -10q-7 95 -40 134.5t-104 39.5q-87 0 -123.5 -45t-36.5 -152v-256q0 -104 39 -148.5t130 -44.5q83 0 118 51t35 172h-170v86h267
v-105q0 -140 -64.5 -215.5t-186.5 -75.5z" />
    <glyph glyph-name="H" unicode="H" 
d="M99 0v800h97v-322h270v322h97v-800h-97v391h-270v-391h-97z" />
    <glyph glyph-name="Hcircumflex" unicode="&#x124;" 
d="M99 0v800h97v-322h270v322h97v-800h-97v391h-270v-391h-97zM171 908l-39 60l163 148h70l165 -148l-39 -60l-161 114z" />
    <glyph glyph-name="I" unicode="I" 
d="M99 0v87h184v626h-184v87h464v-87h-183v-626h183v-87h-464z" />
    <glyph glyph-name="Igrave" unicode="&#xcc;" 
d="M99 0v87h184v626h-184v87h464v-87h-183v-626h183v-87h-464zM331 900l-181 200h143l123 -200h-85z" />
    <glyph glyph-name="Iacute" unicode="&#xcd;" 
d="M99 0v87h184v626h-184v87h464v-87h-183v-626h183v-87h-464zM225 900l124 200h142l-180 -200h-86z" />
    <glyph glyph-name="Icircumflex" unicode="&#xce;" 
d="M99 0v87h184v626h-184v87h464v-87h-183v-626h183v-87h-464zM171 908l-39 60l163 148h70l165 -148l-39 -60l-161 114z" />
    <glyph glyph-name="Idieresis" unicode="&#xcf;" 
d="M99 0v87h184v626h-184v87h464v-87h-183v-626h183v-87h-464zM225 911q-28 0 -45 12t-17 44v7q0 33 17 45.5t45 12.5t44.5 -12.5t16.5 -45.5v-7q0 -32 -17 -44t-44 -12zM437 911q-28 0 -44.5 12t-16.5 44v7q0 33 16.5 45.5t44.5 12.5t45 -12.5t17 -45.5v-7q0 -32 -17.5 -44
t-44.5 -12z" />
    <glyph glyph-name="Itilde" unicode="&#x128;" 
d="M99 0v87h184v626h-184v87h464v-87h-183v-626h183v-87h-464zM404 910q-34 0 -55.5 18t-37.5 40l-29.5 40t-30.5 18q-18 0 -30 -20.5t-11 -74.5v-11h-74v15q0 75 31.5 124.5t90.5 49.5q37 0 59 -18t38 -40l28 -40t28 -18q18 0 30 20.5t12 74.5v11h73v-15q0 -76 -31.5 -125
t-90.5 -49z" />
    <glyph glyph-name="Imacron" unicode="&#x12a;" 
d="M99 0v87h184v626h-184v87h464v-87h-183v-626h183v-87h-464zM146 957v86h370v-86h-370z" />
    <glyph glyph-name="Ibreve" unicode="&#x12c;" 
d="M99 0v87h184v626h-184v87h464v-87h-183v-626h183v-87h-464zM331 893q-94 0 -154 49t-61 159h95q1 -72 30.5 -101.5t89.5 -29.5t89.5 29.5t30.5 101.5h95q-1 -110 -61 -159t-154 -49z" />
    <glyph glyph-name="Iogonek" unicode="&#x12e;" 
d="M99 0v87h184v626h-184v87h464v-87h-183v-626h183v-87h-464zM399 -215q-59 0 -99 32t-40 87q0 48 35.5 85.5t78.5 55.5l25 -22q-31 -21 -42.5 -46.5t-11.5 -45.5q0 -28 17.5 -42.5t48.5 -14.5q16 0 41 3t41 7v-89q-19 -4 -45.5 -7t-48.5 -3z" />
    <glyph glyph-name="Idotaccent" unicode="&#x130;" 
d="M99 0v87h184v626h-184v87h464v-87h-183v-626h183v-87h-464zM331 911q-36 0 -58 12t-22 44v7q0 33 22 45.5t58 12.5t58 -12.5t22 -45.5v-7q0 -32 -22.5 -44t-57.5 -12z" />
    <glyph glyph-name="J" unicode="J" 
d="M313 -10q-124 0 -183.5 63.5t-66.5 201.5l97 11q7 -113 38.5 -151t115.5 -38q76 0 113.5 43t37.5 132v461h-185v87h282v-547q0 -128 -63.5 -195.5t-185.5 -67.5z" />
    <glyph glyph-name="Jcircumflex" unicode="&#x134;" 
d="M313 -10q-124 0 -183.5 63.5t-66.5 201.5l97 11q7 -113 38.5 -151t115.5 -38q76 0 113.5 43t37.5 132v461h-185v87h282v-547q0 -128 -63.5 -195.5t-185.5 -67.5zM252 908l-39 60l163 148h70l165 -148l-39 -60l-161 114z" />
    <glyph glyph-name="K" unicode="K" 
d="M196 382v-382h-97v800h97v-331h31l278 331h111l-313 -368l310 -432h-114l-269 382h-34z" />
    <glyph glyph-name="Kcommaaccent" unicode="&#x136;" 
d="M196 382v-382h-97v800h97v-331h31l278 331h111l-313 -368l310 -432h-114l-269 382h-34zM207 -300l87 200h143l-144 -200h-86z" />
    <glyph glyph-name="L" unicode="L" 
d="M145 0v800h97v-713h321v-87h-418z" />
    <glyph glyph-name="Lacute" unicode="&#x139;" 
d="M145 0v800h97v-713h321v-87h-418zM176 900l124 200h142l-180 -200h-86z" />
    <glyph glyph-name="Lcommaaccent" unicode="&#x13b;" 
d="M145 0v800h97v-713h321v-87h-418zM221 -300l87 200h143l-144 -200h-86z" />
    <glyph glyph-name="Lcaron" unicode="&#x13d;" 
d="M145 0v800h97v-713h321v-87h-418zM364 505l73 295h140l-144 -295h-69z" />
    <glyph glyph-name="M" unicode="M" 
d="M286 197l-130 449l2 -646h-87v800h126l137 -484l136 484h121v-800h-87l2 646l-130 -449h-90z" />
    <glyph glyph-name="N" unicode="N" 
d="M427 0l-241 680v-680h-87v800h130l247 -690v690h87v-800h-136z" />
    <glyph glyph-name="Ntilde" unicode="&#xd1;" 
d="M427 0l-241 680v-680h-87v800h130l247 -690v690h87v-800h-136zM421 910q-34 0 -55.5 18t-37.5 40l-29.5 40t-30.5 18q-18 0 -30 -20.5t-11 -74.5v-11h-74v15q0 75 31.5 124.5t90.5 49.5q37 0 59 -18t38 -40l28 -40t28 -18q18 0 30 20.5t12 74.5v11h73v-15
q0 -76 -31.5 -125t-90.5 -49z" />
    <glyph glyph-name="Nacute" unicode="&#x143;" 
d="M427 0l-241 680v-680h-87v800h130l247 -690v690h87v-800h-136zM244 900l124 200h142l-180 -200h-86z" />
    <glyph glyph-name="Ncommaaccent" unicode="&#x145;" 
d="M189 -300l87 200h143l-144 -200h-86zM427 0l-241 680v-680h-87v800h130l247 -690v690h87v-800h-136z" />
    <glyph glyph-name="Ncaron" unicode="&#x147;" 
d="M427 0l-241 680v-680h-87v800h130l247 -690v690h87v-800h-136zM314 904l-165 148l39 60l161 -113l159 113l39 -60l-163 -148h-70z" />
    <glyph glyph-name="O" unicode="O" 
d="M331 -10q-122 0 -185.5 72.5t-63.5 209.5v252q0 140 64 213t186 73q121 0 184.5 -73t63.5 -213v-252q0 -137 -63.5 -209.5t-185.5 -72.5zM331 77q83 0 117.5 44t34.5 150v254q0 108 -34.5 153t-117.5 45t-117.5 -45t-34.5 -153v-254q0 -106 34.5 -150t117.5 -44z" />
    <glyph glyph-name="Ograve" unicode="&#xd2;" 
d="M331 -10q-122 0 -185.5 72.5t-63.5 209.5v252q0 140 64 213t186 73q121 0 184.5 -73t63.5 -213v-252q0 -137 -63.5 -209.5t-185.5 -72.5zM331 77q83 0 117.5 44t34.5 150v254q0 108 -34.5 153t-117.5 45t-117.5 -45t-34.5 -153v-254q0 -106 34.5 -150t117.5 -44zM331 900
l-181 200h143l123 -200h-85z" />
    <glyph glyph-name="Oacute" unicode="&#xd3;" 
d="M331 -10q-122 0 -185.5 72.5t-63.5 209.5v252q0 140 64 213t186 73q121 0 184.5 -73t63.5 -213v-252q0 -137 -63.5 -209.5t-185.5 -72.5zM331 77q83 0 117.5 44t34.5 150v254q0 108 -34.5 153t-117.5 45t-117.5 -45t-34.5 -153v-254q0 -106 34.5 -150t117.5 -44zM261 900
l124 200h142l-180 -200h-86z" />
    <glyph glyph-name="Ocircumflex" unicode="&#xd4;" 
d="M331 -10q-122 0 -185.5 72.5t-63.5 209.5v252q0 140 64 213t186 73q121 0 184.5 -73t63.5 -213v-252q0 -137 -63.5 -209.5t-185.5 -72.5zM331 77q83 0 117.5 44t34.5 150v254q0 108 -34.5 153t-117.5 45t-117.5 -45t-34.5 -153v-254q0 -106 34.5 -150t117.5 -44zM171 908
l-39 60l163 148h70l165 -148l-39 -60l-161 114z" />
    <glyph glyph-name="Otilde" unicode="&#xd5;" 
d="M331 -10q-122 0 -185.5 72.5t-63.5 209.5v252q0 140 64 213t186 73q121 0 184.5 -73t63.5 -213v-252q0 -137 -63.5 -209.5t-185.5 -72.5zM331 77q83 0 117.5 44t34.5 150v254q0 108 -34.5 153t-117.5 45t-117.5 -45t-34.5 -153v-254q0 -106 34.5 -150t117.5 -44zM404 910
q-34 0 -55.5 18t-37.5 40l-29.5 40t-30.5 18q-18 0 -30 -20.5t-11 -74.5v-11h-74v15q0 75 31.5 124.5t90.5 49.5q37 0 59 -18t38 -40l28 -40t28 -18q18 0 30 20.5t12 74.5v11h73v-15q0 -76 -31.5 -125t-90.5 -49z" />
    <glyph glyph-name="Odieresis" unicode="&#xd6;" 
d="M331 -10q-122 0 -185.5 72.5t-63.5 209.5v252q0 140 64 213t186 73q121 0 184.5 -73t63.5 -213v-252q0 -137 -63.5 -209.5t-185.5 -72.5zM331 77q83 0 117.5 44t34.5 150v254q0 108 -34.5 153t-117.5 45t-117.5 -45t-34.5 -153v-254q0 -106 34.5 -150t117.5 -44zM225 911
q-28 0 -45 12t-17 44v7q0 33 17 45.5t45 12.5t44.5 -12.5t16.5 -45.5v-7q0 -32 -17 -44t-44 -12zM437 911q-28 0 -44.5 12t-16.5 44v7q0 33 16.5 45.5t44.5 12.5t45 -12.5t17 -45.5v-7q0 -32 -17.5 -44t-44.5 -12z" />
    <glyph glyph-name="Omacron" unicode="&#x14c;" 
d="M331 -10q-122 0 -185.5 72.5t-63.5 209.5v252q0 140 64 213t186 73q121 0 184.5 -73t63.5 -213v-252q0 -137 -63.5 -209.5t-185.5 -72.5zM331 77q83 0 117.5 44t34.5 150v254q0 108 -34.5 153t-117.5 45t-117.5 -45t-34.5 -153v-254q0 -106 34.5 -150t117.5 -44zM146 957
v86h370v-86h-370z" />
    <glyph glyph-name="Obreve" unicode="&#x14e;" 
d="M331 -10q-122 0 -185.5 72.5t-63.5 209.5v252q0 140 64 213t186 73q121 0 184.5 -73t63.5 -213v-252q0 -137 -63.5 -209.5t-185.5 -72.5zM331 77q83 0 117.5 44t34.5 150v254q0 108 -34.5 153t-117.5 45t-117.5 -45t-34.5 -153v-254q0 -106 34.5 -150t117.5 -44zM331 893
q-94 0 -154 49t-61 159h95q1 -72 30.5 -101.5t89.5 -29.5t89.5 29.5t30.5 101.5h95q-1 -110 -61 -159t-154 -49z" />
    <glyph glyph-name="Ohungarumlaut" unicode="&#x150;" 
d="M331 -10q-122 0 -185.5 72.5t-63.5 209.5v252q0 140 64 213t186 73q121 0 184.5 -73t63.5 -213v-252q0 -137 -63.5 -209.5t-185.5 -72.5zM331 77q83 0 117.5 44t34.5 150v254q0 108 -34.5 153t-117.5 45t-117.5 -45t-34.5 -153v-254q0 -106 34.5 -150t117.5 -44zM383 900
l51 200h131l-116 -200h-66zM172 900l50 200h132l-116 -200h-66z" />
    <glyph glyph-name="P" unicode="P" 
d="M99 0v800h260q117 0 173.5 -52t56.5 -159v-95q0 -108 -57 -160t-174 -52h-162v-282h-97zM196 367h160q73 0 104.5 29t31.5 98v92q0 69 -31.5 98t-104.5 29h-160v-346z" />
    <glyph glyph-name="Q" unicode="Q" 
d="M604 -190q-130 -29 -207 12t-80 167q-115 4 -175 76t-60 205v254q0 140 64 213t186 73t185 -73t63 -213v-254q0 -113 -43 -182t-126 -90q3 -77 50.5 -97.5t128.5 -4.5zM331 83q82 0 117 42.5t35 141.5v260q0 102 -35 146t-117 44t-117 -44t-35 -146v-260q0 -99 35 -141.5
t117 -42.5z" />
    <glyph glyph-name="R" unicode="R" 
d="M196 396h178q72 0 103.5 31t31.5 101v62q0 66 -31.5 94.5t-103.5 28.5h-178v-317zM196 0h-97v800h278q115 0 172 -52.5t57 -157.5v-62q0 -96 -44 -149t-134 -64l187 -315h-110l-184 312h-125v-312z" />
    <glyph glyph-name="Racute" unicode="&#x154;" 
d="M196 396h178q72 0 103.5 31t31.5 101v62q0 66 -31.5 94.5t-103.5 28.5h-178v-317zM196 0h-97v800h278q115 0 172 -52.5t57 -157.5v-62q0 -96 -44 -149t-134 -64l187 -315h-110l-184 312h-125v-312zM291 900l124 200h142l-180 -200h-86z" />
    <glyph glyph-name="Rcommaaccent" unicode="&#x156;" 
d="M196 396h178q72 0 103.5 31t31.5 101v62q0 66 -31.5 94.5t-103.5 28.5h-178v-317zM196 0h-97v800h278q115 0 172 -52.5t57 -157.5v-62q0 -96 -44 -149t-134 -64l187 -315h-110l-184 312h-125v-312zM192 -300l87 200h143l-144 -200h-86z" />
    <glyph glyph-name="Rcaron" unicode="&#x158;" 
d="M196 396h178q72 0 103.5 31t31.5 101v62q0 66 -31.5 94.5t-103.5 28.5h-178v-317zM196 0h-97v800h278q115 0 172 -52.5t57 -157.5v-62q0 -96 -44 -149t-134 -64l187 -315h-110l-184 312h-125v-312zM301 904l-165 148l39 60l161 -113l159 113l39 -60l-163 -148h-70z" />
    <glyph glyph-name="S" unicode="S" 
d="M341 -7q-81 0 -153 27.5t-127 91.5l57 70q43 -51 99.5 -76.5t128.5 -25.5q69 0 111 35t42 96q0 56 -36.5 86.5t-145.5 67.5q-133 44 -183 93.5t-50 136.5q0 101 64.5 155t163.5 54q75 0 144 -28t120 -90l-54 -72q-42 51 -97.5 77t-112.5 26q-60 0 -95 -27.5t-35 -85.5
q0 -53 38 -83.5t154 -68.5q127 -41 174 -89.5t47 -134.5q0 -113 -75 -174t-179 -61z" />
    <glyph glyph-name="Sacute" unicode="&#x15a;" 
d="M341 -7q-81 0 -153 27.5t-127 91.5l57 70q43 -51 99.5 -76.5t128.5 -25.5q69 0 111 35t42 96q0 56 -36.5 86.5t-145.5 67.5q-133 44 -183 93.5t-50 136.5q0 101 64.5 155t163.5 54q75 0 144 -28t120 -90l-54 -72q-42 51 -97.5 77t-112.5 26q-60 0 -95 -27.5t-35 -85.5
q0 -53 38 -83.5t154 -68.5q127 -41 174 -89.5t47 -134.5q0 -113 -75 -174t-179 -61zM226 900l124 200h142l-180 -200h-86z" />
    <glyph glyph-name="Scircumflex" unicode="&#x15c;" 
d="M341 -7q-81 0 -153 27.5t-127 91.5l57 70q43 -51 99.5 -76.5t128.5 -25.5q69 0 111 35t42 96q0 56 -36.5 86.5t-145.5 67.5q-133 44 -183 93.5t-50 136.5q0 101 64.5 155t163.5 54q75 0 144 -28t120 -90l-54 -72q-42 51 -97.5 77t-112.5 26q-60 0 -95 -27.5t-35 -85.5
q0 -53 38 -83.5t154 -68.5q127 -41 174 -89.5t47 -134.5q0 -113 -75 -174t-179 -61zM172 908l-39 60l163 148h70l165 -148l-39 -60l-161 114z" />
    <glyph glyph-name="Scedilla" unicode="&#x15e;" 
d="M341 -7q-81 0 -153 27.5t-127 91.5l57 70q43 -51 99.5 -76.5t128.5 -25.5q69 0 111 35t42 96q0 56 -36.5 86.5t-145.5 67.5q-133 44 -183 93.5t-50 136.5q0 101 64.5 155t163.5 54q75 0 144 -28t120 -90l-54 -72q-42 51 -97.5 77t-112.5 26q-60 0 -95 -27.5t-35 -85.5
q0 -53 38 -83.5t154 -68.5q127 -41 174 -89.5t47 -134.5q0 -113 -75 -174t-179 -61zM304 0l19 42q46 -9 81.5 -40t35.5 -93q0 -64 -42.5 -94t-94.5 -30q-62 0 -101 23.5t-43 80.5l85 10q1 -19 13.5 -26.5t40.5 -7.5q27 0 41 12.5t14 46.5q0 35 -11 51.5t-38 24.5z" />
    <glyph glyph-name="Scaron" unicode="&#x160;" 
d="M341 -7q-81 0 -153 27.5t-127 91.5l57 70q43 -51 99.5 -76.5t128.5 -25.5q69 0 111 35t42 96q0 56 -36.5 86.5t-145.5 67.5q-133 44 -183 93.5t-50 136.5q0 101 64.5 155t163.5 54q75 0 144 -28t120 -90l-54 -72q-42 51 -97.5 77t-112.5 26q-60 0 -95 -27.5t-35 -85.5
q0 -53 38 -83.5t154 -68.5q127 -41 174 -89.5t47 -134.5q0 -113 -75 -174t-179 -61zM298 904l-165 148l39 60l161 -113l159 113l39 -60l-163 -148h-70z" />
    <glyph glyph-name="Scommaaccent" unicode="&#x218;" 
d="M341 -7q-81 0 -153 27.5t-127 91.5l57 70q43 -51 99.5 -76.5t128.5 -25.5q69 0 111 35t42 96q0 56 -36.5 86.5t-145.5 67.5q-133 44 -183 93.5t-50 136.5q0 101 64.5 155t163.5 54q75 0 144 -28t120 -90l-54 -72q-42 51 -97.5 77t-112.5 26q-60 0 -95 -27.5t-35 -85.5
q0 -53 38 -83.5t154 -68.5q127 -41 174 -89.5t47 -134.5q0 -113 -75 -174t-179 -61zM188 -300l87 200h143l-144 -200h-86z" />
    <glyph glyph-name="T" unicode="T" 
d="M283 0v713h-227v87h550v-87h-226v-713h-97z" />
    <glyph glyph-name="Tcedilla" unicode="&#x162;" 
d="M283 0v713h-227v87h550v-87h-226v-713h-97zM291 0l19 42q46 -9 81.5 -40t35.5 -93q0 -64 -42.5 -94t-94.5 -30q-62 0 -101 23.5t-43 80.5l85 10q1 -19 13.5 -26.5t40.5 -7.5q27 0 41 12.5t14 46.5q0 35 -11 51.5t-38 24.5z" />
    <glyph glyph-name="Tcaron" unicode="&#x164;" 
d="M283 0v713h-227v87h550v-87h-226v-713h-97zM297 904l-165 148l39 60l161 -113l159 113l39 -60l-163 -148h-70z" />
    <glyph glyph-name="Tcommaaccent" unicode="&#x21a;" 
d="M283 0v713h-227v87h550v-87h-226v-713h-97zM187 -300l87 200h143l-144 -200h-86z" />
    <glyph glyph-name="U" unicode="U" 
d="M331 -10q-117 0 -174.5 69.5t-57.5 210.5v530h97v-532q0 -105 30.5 -148.5t104.5 -43.5t104.5 43.5t30.5 148.5v532h97v-530q0 -141 -57.5 -210.5t-174.5 -69.5z" />
    <glyph glyph-name="Ugrave" unicode="&#xd9;" 
d="M331 -10q-117 0 -174.5 69.5t-57.5 210.5v530h97v-532q0 -105 30.5 -148.5t104.5 -43.5t104.5 43.5t30.5 148.5v532h97v-530q0 -141 -57.5 -210.5t-174.5 -69.5zM331 900l-181 200h143l123 -200h-85z" />
    <glyph glyph-name="Uacute" unicode="&#xda;" 
d="M331 -10q-117 0 -174.5 69.5t-57.5 210.5v530h97v-532q0 -105 30.5 -148.5t104.5 -43.5t104.5 43.5t30.5 148.5v532h97v-530q0 -141 -57.5 -210.5t-174.5 -69.5zM225 900l124 200h142l-180 -200h-86z" />
    <glyph glyph-name="Ucircumflex" unicode="&#xdb;" 
d="M331 -10q-117 0 -174.5 69.5t-57.5 210.5v530h97v-532q0 -105 30.5 -148.5t104.5 -43.5t104.5 43.5t30.5 148.5v532h97v-530q0 -141 -57.5 -210.5t-174.5 -69.5zM171 908l-39 60l163 148h70l165 -148l-39 -60l-161 114z" />
    <glyph glyph-name="Udieresis" unicode="&#xdc;" 
d="M331 -10q-117 0 -174.5 69.5t-57.5 210.5v530h97v-532q0 -105 30.5 -148.5t104.5 -43.5t104.5 43.5t30.5 148.5v532h97v-530q0 -141 -57.5 -210.5t-174.5 -69.5zM225 911q-28 0 -45 12t-17 44v7q0 33 17 45.5t45 12.5t44.5 -12.5t16.5 -45.5v-7q0 -32 -17 -44t-44 -12z
M437 911q-28 0 -44.5 12t-16.5 44v7q0 33 16.5 45.5t44.5 12.5t45 -12.5t17 -45.5v-7q0 -32 -17.5 -44t-44.5 -12z" />
    <glyph glyph-name="Utilde" unicode="&#x168;" 
d="M331 -10q-117 0 -174.5 69.5t-57.5 210.5v530h97v-532q0 -105 30.5 -148.5t104.5 -43.5t104.5 43.5t30.5 148.5v532h97v-530q0 -141 -57.5 -210.5t-174.5 -69.5zM404 910q-34 0 -55.5 18t-37.5 40l-29.5 40t-30.5 18q-18 0 -30 -20.5t-11 -74.5v-11h-74v15
q0 75 31.5 124.5t90.5 49.5q37 0 59 -18t38 -40l28 -40t28 -18q18 0 30 20.5t12 74.5v11h73v-15q0 -76 -31.5 -125t-90.5 -49z" />
    <glyph glyph-name="Umacron" unicode="&#x16a;" 
d="M331 -10q-117 0 -174.5 69.5t-57.5 210.5v530h97v-532q0 -105 30.5 -148.5t104.5 -43.5t104.5 43.5t30.5 148.5v532h97v-530q0 -141 -57.5 -210.5t-174.5 -69.5zM146 957v86h370v-86h-370z" />
    <glyph glyph-name="Ubreve" unicode="&#x16c;" 
d="M331 -10q-117 0 -174.5 69.5t-57.5 210.5v530h97v-532q0 -105 30.5 -148.5t104.5 -43.5t104.5 43.5t30.5 148.5v532h97v-530q0 -141 -57.5 -210.5t-174.5 -69.5zM331 893q-94 0 -154 49t-61 159h95q1 -72 30.5 -101.5t89.5 -29.5t89.5 29.5t30.5 101.5h95
q-1 -110 -61 -159t-154 -49z" />
    <glyph glyph-name="Uring" unicode="&#x16e;" 
d="M331 -10q-117 0 -174.5 69.5t-57.5 210.5v530h97v-532q0 -105 30.5 -148.5t104.5 -43.5t104.5 43.5t30.5 148.5v532h97v-530q0 -141 -57.5 -210.5t-174.5 -69.5zM331 886q-67 0 -108 35t-41 109v32q0 75 41 111t108 36t108 -36t41 -111v-32q0 -74 -41 -109t-108 -35z
M331 955q37 0 56 17.5t19 57.5v32q0 40 -19 59t-56 19t-56 -19t-19 -59v-32q0 -40 19 -57.5t56 -17.5z" />
    <glyph glyph-name="Uhungarumlaut" unicode="&#x170;" 
d="M331 -10q-117 0 -174.5 69.5t-57.5 210.5v530h97v-532q0 -105 30.5 -148.5t104.5 -43.5t104.5 43.5t30.5 148.5v532h97v-530q0 -141 -57.5 -210.5t-174.5 -69.5zM392 900l51 200h131l-116 -200h-66zM181 900l50 200h132l-116 -200h-66z" />
    <glyph glyph-name="Uogonek" unicode="&#x172;" 
d="M392 -215q-59 0 -99 32t-40 87q0 48 35.5 85.5t78.5 55.5l25 -22q-31 -21 -42.5 -46.5t-11.5 -45.5q0 -28 17.5 -42.5t48.5 -14.5q16 0 41 3t41 7v-89q-19 -4 -45.5 -7t-48.5 -3zM331 -10q-117 0 -174.5 69.5t-57.5 210.5v530h97v-532q0 -105 30.5 -148.5t104.5 -43.5
t104.5 43.5t30.5 148.5v532h97v-530q0 -141 -57.5 -210.5t-174.5 -69.5z" />
    <glyph glyph-name="V" unicode="V" 
d="M384 0h-105l-234 800h104l184 -671l184 671h101z" />
    <glyph glyph-name="W" unicode="W" 
d="M437 0l-106 480l-105 -480h-96l-99 800h95l64 -651l94 451h98l94 -451l65 651h90l-99 -800h-95z" />
    <glyph glyph-name="Wcircumflex" unicode="&#x174;" 
d="M437 0l-106 480l-105 -480h-96l-99 800h95l64 -651l94 451h98l94 -451l65 651h90l-99 -800h-95zM171 908l-39 60l163 148h70l165 -148l-39 -60l-161 114z" />
    <glyph glyph-name="Wgrave" unicode="&#x1e80;" 
d="M437 0l-106 480l-105 -480h-96l-99 800h95l64 -651l94 451h98l94 -451l65 651h90l-99 -800h-95zM340 900l-181 200h143l123 -200h-85z" />
    <glyph glyph-name="Wacute" unicode="&#x1e82;" 
d="M437 0l-106 480l-105 -480h-96l-99 800h95l64 -651l94 451h98l94 -451l65 651h90l-99 -800h-95zM234 900l124 200h142l-180 -200h-86z" />
    <glyph glyph-name="Wdieresis" unicode="&#x1e84;" 
d="M437 0l-106 480l-105 -480h-96l-99 800h95l64 -651l94 451h98l94 -451l65 651h90l-99 -800h-95zM226 911q-28 0 -45 12t-17 44v7q0 33 17 45.5t45 12.5t44.5 -12.5t16.5 -45.5v-7q0 -32 -17 -44t-44 -12zM438 911q-28 0 -44.5 12t-16.5 44v7q0 33 16.5 45.5t44.5 12.5
t45 -12.5t17 -45.5v-7q0 -32 -17.5 -44t-44.5 -12z" />
    <glyph glyph-name="X" unicode="X" 
d="M523 0l-191 323l-192 -323h-111l253 408l-231 392h111l181 -306l182 306h110l-243 -391l240 -409h-109z" />
    <glyph glyph-name="Y" unicode="Y" 
d="M380 0h-97v300l-260 500h107l206 -409l197 409h105l-258 -500v-300z" />
    <glyph glyph-name="Yacute" unicode="&#xdd;" 
d="M380 0h-97v300l-260 500h107l206 -409l197 409h105l-258 -500v-300zM225 900l124 200h142l-180 -200h-86z" />
    <glyph glyph-name="Ycircumflex" unicode="&#x176;" 
d="M380 0h-97v300l-260 500h107l206 -409l197 409h105l-258 -500v-300zM171 908l-39 60l163 148h70l165 -148l-39 -60l-161 114z" />
    <glyph glyph-name="Ydieresis" unicode="&#x178;" 
d="M380 0h-97v300l-260 500h107l206 -409l197 409h105l-258 -500v-300zM225 911q-28 0 -45 12t-17 44v7q0 33 17 45.5t45 12.5t44.5 -12.5t16.5 -45.5v-7q0 -32 -17 -44t-44 -12zM437 911q-28 0 -44.5 12t-16.5 44v7q0 33 16.5 45.5t44.5 12.5t45 -12.5t17 -45.5v-7
q0 -32 -17.5 -44t-44.5 -12z" />
    <glyph glyph-name="Ygrave" unicode="&#x1ef2;" 
d="M380 0h-97v300l-260 500h107l206 -409l197 409h105l-258 -500v-300zM331 900l-181 200h143l123 -200h-85z" />
    <glyph glyph-name="Z" unicode="Z" 
d="M580 0h-498v87l385 626h-385v87h498v-87l-385 -626h385v-87z" />
    <glyph glyph-name="Zacute" unicode="&#x179;" 
d="M580 0h-498v87l385 626h-385v87h498v-87l-385 -626h385v-87zM253 900l124 200h142l-180 -200h-86z" />
    <glyph glyph-name="Zdotaccent" unicode="&#x17b;" 
d="M580 0h-498v87l385 626h-385v87h498v-87l-385 -626h385v-87zM331 911q-36 0 -58 12t-22 44v7q0 33 22 45.5t58 12.5t58 -12.5t22 -45.5v-7q0 -32 -22.5 -44t-57.5 -12z" />
    <glyph glyph-name="Zcaron" unicode="&#x17d;" 
d="M580 0h-498v87l385 626h-385v87h498v-87l-385 -626h385v-87zM297 904l-165 148l39 60l161 -113l159 113l39 -60l-163 -148h-70z" />
    <glyph glyph-name="AE" unicode="&#xc6;" 
d="M282 723l-109 -414h166v414h-57zM339 233h-186l-61 -233h-81l220 800h411v-77h-217v-255h208v-76h-208v-315h217v-77h-303v233z" />
    <glyph glyph-name="AEacute" unicode="&#x1fc;" 
d="M344 900l124 200h142l-180 -200h-86zM282 723l-109 -414h166v414h-57zM339 233h-186l-61 -233h-81l220 800h411v-77h-217v-255h208v-76h-208v-315h217v-77h-303v233z" />
    <glyph glyph-name="Eth" unicode="&#xd0;" 
d="M99 0v396h-89v88h89v316h207q128 0 201 -77.5t73 -206.5v-236q0 -128 -73.5 -204t-201.5 -76h-206zM196 87h108q90 0 134.5 52t44.5 140v238q0 89 -44.5 142.5t-134.5 53.5h-108v-229h135v-88h-135v-309z" />
    <glyph glyph-name="Oslash" unicode="&#xd8;" 
d="M195 151l204 563q-14 4 -31 6.5t-37 2.5q-84 0 -118.5 -45t-34.5 -152v-256q0 -38 4 -67.5t13 -51.5zM331 77q84 0 118.5 44t34.5 149v256q0 48 -6.5 83t-20.5 58l-208 -575q16 -7 36.5 -11t45.5 -4zM331 -10q-30 0 -56.5 4.5t-48.5 13.5l-40 -108h-94l58 157
q-34 35 -51 89t-17 125v254q0 138 64 211.5t186 73.5q25 0 47 -3t42 -9l38 102h94l-55 -145q41 -36 61.5 -94t20.5 -136v-254q0 -136 -64 -208.5t-185 -72.5z" />
    <glyph glyph-name="Oslashacute" unicode="&#x1fe;" 
d="M195 151l204 563q-14 4 -31 6.5t-37 2.5q-84 0 -118.5 -45t-34.5 -152v-256q0 -38 4 -67.5t13 -51.5zM331 77q84 0 118.5 44t34.5 149v256q0 48 -6.5 83t-20.5 58l-208 -575q16 -7 36.5 -11t45.5 -4zM331 -10q-30 0 -56.5 4.5t-48.5 13.5l-40 -108h-94l58 157
q-34 35 -51 89t-17 125v254q0 138 64 211.5t186 73.5q25 0 47 -3t42 -9l38 102h94l-55 -145q41 -36 61.5 -94t20.5 -136v-254q0 -136 -64 -208.5t-185 -72.5zM261 900l124 200h142l-180 -200h-86z" />
    <glyph glyph-name="Thorn" unicode="&#xde;" 
d="M99 0v800h97v-131h163q113 0 171.5 -53.5t58.5 -157.5v-88q0 -107 -59 -163t-172 -56h-162v-151h-97zM196 236h160q74 0 105 30t31 102v92q0 66 -31 94.5t-105 28.5h-160v-347z" />
    <glyph glyph-name="Dcroat" unicode="&#x110;" 
d="M99 0v396h-89v88h89v316h207q128 0 201 -77.5t73 -206.5v-236q0 -128 -73.5 -204t-201.5 -76h-206zM196 87h108q90 0 134.5 52t44.5 140v238q0 89 -44.5 142.5t-134.5 53.5h-108v-229h135v-88h-135v-309z" />
    <glyph glyph-name="Hbar" unicode="&#x126;" 
d="M196 431h270v130h-270v-130zM196 344v-344h-97v561h-92v88h92v151h97v-151h270v151h97v-151h92v-88h-92v-561h-97v344h-270z" />
    <glyph glyph-name="IJ" unicode="&#x132;" 
d="M158 0h-94v800h94v-800zM415 -10q-84 0 -130 58.5t-53 207.5l94 11q7 -113 24 -151t65 -38q51 0 70.5 45t19.5 117v473h-171v87h265v-558q0 -118 -44.5 -185t-139.5 -67z" />
    <glyph glyph-name="Ldot" unicode="&#x13f;" 
d="M145 0v800h97v-713h321v-87h-418zM551 412q-36 0 -58 12t-22 44v7q0 33 22 45.5t58 12.5t58 -12.5t22 -45.5v-7q0 -32 -22.5 -44t-57.5 -12z" />
    <glyph glyph-name="Lslash" unicode="&#x141;" 
d="M145 0v362l-90 -30v77l90 30v361h97v-329l228 77v-77l-228 -77v-307h321v-87h-418z" />
    <glyph glyph-name="Eng" unicode="&#x14a;" 
d="M349 -208q-33 0 -68 9.5t-75 23.5l18 94q37 -16 65.5 -24.5t55.5 -8.5q54 0 87.5 38t33.5 125v536q0 70 -30 101.5t-76 31.5q-50 0 -86 -31t-78 -85v-602h-97v800h97v-109h27q22 55 68 87t102 32q78 0 124 -54.5t46 -148.5v-571q0 -121 -60 -182.5t-154 -61.5z" />
    <glyph glyph-name="OE" unicode="&#x152;" 
d="M258 0q-112 0 -175 75.5t-63 201.5v242q0 128 63 204.5t174 76.5h394v-77h-226v-244h224v-77h-224v-325h226v-77h-393zM259 76h80v648h-80q-77 0 -114.5 -56t-37.5 -148v-244q0 -92 37.5 -146t114.5 -54z" />
    <glyph glyph-name="Tbar" unicode="&#x166;" 
d="M283 0v311h-182v88h182v314h-227v87h550v-87h-226v-314h181v-88h-181v-311h-97z" />
    <glyph glyph-name="Alpha" unicode="&#x391;" 
d="M430 319l-99 370l-101 -370h200zM516 0l-63 233h-247l-63 -233h-98l235 800h103l235 -800h-102z" />
    <glyph glyph-name="Alphatonos" unicode="&#x386;" 
d="M430 319l-99 370l-101 -370h200zM516 0l-63 233h-247l-63 -233h-98l235 800h103l235 -800h-102zM31 700l68 200h134l-126 -200h-76z" />
    <glyph glyph-name="Beta" unicode="&#x392;" 
d="M99 0v800h231q114 0 169.5 -46.5t55.5 -141.5v-46q0 -50 -27.5 -84.5t-76.5 -43.5v-29q61 -6 97 -49.5t36 -111.5v-44q0 -103 -61.5 -153.5t-186.5 -50.5h-237zM196 459h141q64 0 93.5 26.5t29.5 86.5v27q0 60 -29.5 87t-93.5 27h-141v-254zM196 87h158q69 0 101 30.5
t32 97.5v31q0 67 -32 97t-101 30h-158v-286z" />
    <glyph glyph-name="Gamma" unicode="&#x393;" 
d="M102 0v800h479v-87h-382v-713h-97z" />
    <glyph glyph-name="Delta" unicode="&#x394;" 
d="M46 0v87l229 713h105l236 -713v-87h-570zM519 87l-189 611l-191 -611h380z" />
    <glyph glyph-name="Epsilon" unicode="&#x395;" 
d="M99 0v800h481v-87h-384v-234h338v-87h-338v-305h384v-87h-481z" />
    <glyph glyph-name="Epsilontonos" unicode="&#x388;" 
d="M99 0v800h481v-87h-384v-234h338v-87h-338v-305h384v-87h-481zM-97 700l68 200h134l-126 -200h-76z" />
    <glyph glyph-name="Zeta" unicode="&#x396;" 
d="M580 0h-498v87l385 626h-385v87h498v-87l-385 -626h385v-87z" />
    <glyph glyph-name="Eta" unicode="&#x397;" 
d="M99 0v800h97v-322h270v322h97v-800h-97v391h-270v-391h-97z" />
    <glyph glyph-name="Etatonos" unicode="&#x389;" 
d="M99 0v800h97v-322h270v322h97v-800h-97v391h-270v-391h-97zM-107 700l68 200h134l-126 -200h-76z" />
    <glyph glyph-name="Theta" unicode="&#x398;" 
d="M331 -10q-132 0 -200.5 72t-68.5 209v254q0 140 69 212.5t201 72.5q131 0 200 -72.5t69 -212.5v-254q0 -137 -69 -209t-201 -72zM331 77q95 0 134.5 44t39.5 149v256q0 107 -39.5 152t-134.5 45t-134.5 -45t-39.5 -152v-256q0 -105 39.5 -149t134.5 -44zM243 361v88h179
v-88h-179z" />
    <glyph glyph-name="Iota" unicode="&#x399;" 
d="M99 0v87h184v626h-184v87h464v-87h-183v-626h183v-87h-464z" />
    <glyph glyph-name="Iotatonos" unicode="&#x38a;" 
d="M99 0v87h184v626h-184v87h464v-87h-183v-626h183v-87h-464zM-107 700l68 200h134l-126 -200h-76z" />
    <glyph glyph-name="Iotadieresis" unicode="&#x3aa;" 
d="M99 0v87h184v626h-184v87h464v-87h-183v-626h183v-87h-464zM225 911q-28 0 -45 12t-17 44v7q0 33 17 45.5t45 12.5t44.5 -12.5t16.5 -45.5v-7q0 -32 -17 -44t-44 -12zM437 911q-28 0 -44.5 12t-16.5 44v7q0 33 16.5 45.5t44.5 12.5t45 -12.5t17 -45.5v-7q0 -32 -17.5 -44
t-44.5 -12z" />
    <glyph glyph-name="Kappa" unicode="&#x39a;" 
d="M196 382v-382h-97v800h97v-331h31l278 331h111l-313 -368l310 -432h-114l-269 382h-34z" />
    <glyph glyph-name="Lambda" unicode="&#x39b;" 
d="M516 0l-185 689l-188 -689h-98l235 800h103l235 -800h-102z" />
    <glyph glyph-name="Mu" unicode="&#x39c;" 
d="M286 197l-130 449l2 -646h-87v800h126l137 -484l136 484h121v-800h-87l2 646l-130 -449h-90z" />
    <glyph glyph-name="Nu" unicode="&#x39d;" 
d="M427 0l-241 680v-680h-87v800h130l247 -690v690h87v-800h-136z" />
    <glyph glyph-name="Xi" unicode="&#x39e;" 
d="M82 713v87h498v-87h-498zM105 392v87h452v-87h-452zM82 0v87h498v-87h-498z" />
    <glyph glyph-name="Omicron" unicode="&#x39f;" 
d="M331 -10q-122 0 -185.5 72.5t-63.5 209.5v252q0 140 64 213t186 73q121 0 184.5 -73t63.5 -213v-252q0 -137 -63.5 -209.5t-185.5 -72.5zM331 77q83 0 117.5 44t34.5 150v254q0 108 -34.5 153t-117.5 45t-117.5 -45t-34.5 -153v-254q0 -106 34.5 -150t117.5 -44z" />
    <glyph glyph-name="Omicrontonos" unicode="&#x38c;" 
d="M335 -10q-122 0 -185.5 72.5t-63.5 209.5v252q0 140 64 213t186 73q121 0 184.5 -73t63.5 -213v-252q0 -137 -63.5 -209.5t-185.5 -72.5zM335 77q83 0 117.5 44t34.5 150v254q0 108 -34.5 153t-117.5 45t-117.5 -45t-34.5 -153v-254q0 -106 34.5 -150t117.5 -44zM-27 700
l68 200h134l-126 -200h-76z" />
    <glyph glyph-name="Pi" unicode="&#x3a0;" 
d="M99 0v800h464v-800h-97v713h-270v-713h-97z" />
    <glyph glyph-name="Rho" unicode="&#x3a1;" 
d="M99 0v800h260q117 0 173.5 -52t56.5 -159v-95q0 -108 -57 -160t-174 -52h-162v-282h-97zM196 367h160q73 0 104.5 29t31.5 98v92q0 69 -31.5 98t-104.5 29h-160v-346z" />
    <glyph glyph-name="Sigma" unicode="&#x3a3;" 
d="M579 0h-505v87l322 325l-322 301v87h505v-87h-380l270 -259v-76l-281 -291h391v-87z" />
    <glyph glyph-name="Tau" unicode="&#x3a4;" 
d="M283 0v713h-227v87h550v-87h-226v-713h-97z" />
    <glyph glyph-name="Upsilon" unicode="&#x3a5;" 
d="M380 0h-97v300l-260 500h107l206 -409l197 409h105l-258 -500v-300z" />
    <glyph glyph-name="Upsilontonos" unicode="&#x38e;" 
d="M380 0h-97v300l-260 500h107l206 -409l197 409h105l-258 -500v-300zM-133 700l68 200h134l-126 -200h-76z" />
    <glyph glyph-name="Upsilondieresis" unicode="&#x3ab;" 
d="M380 0h-97v300l-260 500h107l206 -409l197 409h105l-258 -500v-300zM225 911q-28 0 -45 12t-17 44v7q0 33 17 45.5t45 12.5t44.5 -12.5t16.5 -45.5v-7q0 -32 -17 -44t-44 -12zM437 911q-28 0 -44.5 12t-16.5 44v7q0 33 16.5 45.5t44.5 12.5t45 -12.5t17 -45.5v-7
q0 -32 -17.5 -44t-44.5 -12z" />
    <glyph glyph-name="Phi" unicode="&#x3a6;" 
d="M407 90h-28v-100h-95v100h-28q-103 0 -152 70t-49 190v96q0 122 49 193t152 71h28v100h95v-100h28q103 0 151.5 -71t48.5 -193v-96q0 -120 -48.5 -190t-151.5 -70zM407 623h-33v-446h33q56 0 80.5 40t24.5 133v96q0 95 -24.5 136t-80.5 41zM256 177h32v446h-32
q-57 0 -81.5 -41t-24.5 -136v-96q0 -93 24.5 -133t81.5 -40z" />
    <glyph glyph-name="Chi" unicode="&#x3a7;" 
d="M523 0l-191 323l-192 -323h-111l253 408l-231 392h111l181 -306l182 306h110l-243 -391l240 -409h-109z" />
    <glyph glyph-name="Psi" unicode="&#x3a8;" 
d="M379 0h-95v194q-104 12 -153.5 79.5t-49.5 176.5v350h91v-351q0 -78 26 -117.5t86 -48.5v517h95v-517q60 8 85.5 48t25.5 118v351h91v-350q0 -109 -49.5 -176.5t-152.5 -79.5v-194z" />
    <glyph glyph-name="Omega" unicode="&#x3a9;" 
d="M286 0h-213v88h118v94q-63 22 -90.5 80.5t-27.5 141.5v121q0 140 65 212.5t193 72.5t193 -72.5t65 -212.5v-121q0 -83 -27.5 -141.5t-90.5 -80.5v-94h118v-88h-213v230q67 13 91.5 56.5t24.5 117.5v121q0 108 -36.5 153t-124.5 45t-124.5 -45t-36.5 -153v-121
q0 -74 24.5 -117.5t91.5 -56.5v-230z" />
    <glyph glyph-name="Omegatonos" unicode="&#x38f;" 
d="M286 0h-213v88h118v94q-63 22 -90.5 80.5t-27.5 141.5v121q0 140 65 212.5t193 72.5t193 -72.5t65 -212.5v-121q0 -83 -27.5 -141.5t-90.5 -80.5v-94h118v-88h-213v230q67 13 91.5 56.5t24.5 117.5v121q0 108 -36.5 153t-124.5 45t-124.5 -45t-36.5 -153v-121
q0 -74 24.5 -117.5t91.5 -56.5v-230zM-51 700l68 200h134l-126 -200h-76z" />
    <glyph glyph-name="Ohm" unicode="&#x2126;" 
d="M286 0h-213v88h118v94q-63 22 -90.5 80.5t-27.5 141.5v121q0 140 65 212.5t193 72.5t193 -72.5t65 -212.5v-121q0 -83 -27.5 -141.5t-90.5 -80.5v-94h118v-88h-213v230q67 13 91.5 56.5t24.5 117.5v121q0 108 -36.5 153t-124.5 45t-124.5 -45t-36.5 -153v-121
q0 -74 24.5 -117.5t91.5 -56.5v-230z" />
    <glyph glyph-name="Djecyrillic" unicode="&#x402;" 
d="M172 0v713h-136v87h457v-87h-224v-193h116q107 0 160 -52t53 -157v-101q0 -106 -53 -158t-160 -52v85q56 0 86.5 28t30.5 99v97q0 70 -30.5 98t-86.5 28h-116v-435h-97z" />
    <glyph glyph-name="Ecyrillic" unicode="&#x404;" 
d="M599 256q-7 -132 -71.5 -199t-186.5 -67q-128 0 -193.5 71t-65.5 210v254q0 141 65.5 213t194.5 72q121 0 185.5 -68t71.5 -202l-97 -10q-8 106 -44.5 149.5t-116.5 43.5q-89 0 -125.5 -44.5t-36.5 -152.5v-47h204v-87h-204v-122q0 -106 36.5 -149.5t125.5 -43.5
q81 0 117.5 42.5t43.5 146.5z" />
    <glyph glyph-name="Dzecyrillic" unicode="&#x405;" 
d="M341 -7q-81 0 -153 27.5t-127 91.5l57 70q43 -51 99.5 -76.5t128.5 -25.5q69 0 111 35t42 96q0 56 -36.5 86.5t-145.5 67.5q-133 44 -183 93.5t-50 136.5q0 101 64.5 155t163.5 54q75 0 144 -28t120 -90l-54 -72q-42 51 -97.5 77t-112.5 26q-60 0 -95 -27.5t-35 -85.5
q0 -53 38 -83.5t154 -68.5q127 -41 174 -89.5t47 -134.5q0 -113 -75 -174t-179 -61z" />
    <glyph glyph-name="Icyrillic" unicode="&#x406;" 
d="M99 0v87h184v626h-184v87h464v-87h-183v-626h183v-87h-464z" />
    <glyph glyph-name="Yicyrillic" unicode="&#x407;" 
d="M99 0v87h184v626h-184v87h464v-87h-183v-626h183v-87h-464zM225 911q-28 0 -45 12t-17 44v7q0 33 17 45.5t45 12.5t44.5 -12.5t16.5 -45.5v-7q0 -32 -17 -44t-44 -12zM437 911q-28 0 -44.5 12t-16.5 44v7q0 33 16.5 45.5t44.5 12.5t45 -12.5t17 -45.5v-7q0 -32 -17.5 -44
t-44.5 -12z" />
    <glyph glyph-name="Jecyrillic" unicode="&#x408;" 
d="M313 -10q-124 0 -183.5 63.5t-66.5 201.5l97 11q7 -113 38.5 -151t115.5 -38q76 0 113.5 43t37.5 132v461h-185v87h282v-547q0 -128 -63.5 -195.5t-185.5 -67.5z" />
    <glyph glyph-name="Ljecyrillic" unicode="&#x409;" 
d="M172 166q-1 -90 -35 -131t-86 -41q-14 -1 -28.5 2t-29.5 8l18 88q8 -3 16.5 -5.5t15.5 -2.5q19 -1 30.5 17.5t12.5 69.5l11 629h279v-282h44q89 0 133.5 -53.5t44.5 -159.5v-93q0 -106 -44.5 -159t-132.5 -53h-133v712h-107zM376 88h42q44 0 68.5 28.5t24.5 98.5v89
q0 71 -24.5 99.5t-68.5 28.5h-42v-344z" />
    <glyph glyph-name="Njecyrillic" unicode="&#x40a;" 
d="M376 88h48q41 0 64 28.5t23 98.5v89q0 71 -23 99.5t-64 28.5h-48v-344zM151 391v-391h-87v800h87v-322h137v322h88v-282h49q87 0 130 -53.5t43 -159.5v-93q0 -106 -43 -159t-129 -53h-138v391h-137z" />
    <glyph glyph-name="Tshecyrillic" unicode="&#x40b;" 
d="M260 0h-97v713h-135v87h457v-87h-225v-224h125q106 0 159.5 -52.5t53.5 -156.5v-280h-97v278q0 68 -26.5 97.5t-89.5 29.5h-125v-405z" />
    <glyph glyph-name="Dzhecyrillic" unicode="&#x40f;" 
d="M283 -150v150h-184v800h97v-713h270v713h97v-800h-183v-150h-97z" />
    <glyph glyph-name="Acyrillic" unicode="&#x410;" 
d="M430 319l-99 370l-101 -370h200zM516 0l-63 233h-247l-63 -233h-98l235 800h103l235 -800h-102z" />
    <glyph glyph-name="Becyrillic" unicode="&#x411;" 
d="M99 0v800h440v-87h-343v-249h166q103 0 158.5 -51t55.5 -145v-58q0 -101 -55.5 -155.5t-157.5 -54.5h-264zM196 87h148q73 0 104 29.5t31 98.5v38q0 68 -31 97t-104 29h-148v-292z" />
    <glyph glyph-name="Vecyrillic" unicode="&#x412;" 
d="M99 0v800h231q114 0 169.5 -46.5t55.5 -141.5v-46q0 -50 -27.5 -84.5t-76.5 -43.5v-29q61 -6 97 -49.5t36 -111.5v-44q0 -103 -61.5 -153.5t-186.5 -50.5h-237zM196 459h141q64 0 93.5 26.5t29.5 86.5v27q0 60 -29.5 87t-93.5 27h-141v-254zM196 87h158q69 0 101 30.5
t32 97.5v31q0 67 -32 97t-101 30h-158v-286z" />
    <glyph glyph-name="Gecyrillic" unicode="&#x413;" 
d="M102 0v800h479v-87h-382v-713h-97z" />
    <glyph glyph-name="Gjecyrillic" unicode="&#x403;" 
d="M102 0v800h479v-87h-382v-713h-97zM266 900l124 200h142l-180 -200h-86z" />
    <glyph glyph-name="Decyrillic" unicode="&#x414;" 
d="M182 112v-25h265v626h-215l-2 -410q-1 -69 -9 -114.5t-39 -76.5zM115 0v-150h-96v237h56q31 25 46 78.5t16 143.5l3 491h403v-713h91v-237h-96v150h-423z" />
    <glyph glyph-name="Iecyrillic" unicode="&#x415;" 
d="M99 0v800h481v-87h-384v-234h338v-87h-338v-305h384v-87h-481z" />
    <glyph glyph-name="IEgravecyrillic" unicode="&#x400;" 
d="M99 0v800h481v-87h-384v-234h338v-87h-338v-305h384v-87h-481zM356 900l-181 200h143l123 -200h-85z" />
    <glyph glyph-name="Iocyrillic" unicode="&#x401;" 
d="M99 0v800h481v-87h-384v-234h338v-87h-338v-305h384v-87h-481zM252 911q-28 0 -45 12t-17 44v7q0 33 17 45.5t45 12.5t44.5 -12.5t16.5 -45.5v-7q0 -32 -17 -44t-44 -12zM464 911q-28 0 -44.5 12t-16.5 44v7q0 33 16.5 45.5t44.5 12.5t45 -12.5t17 -45.5v-7
q0 -32 -17.5 -44t-44.5 -12z" />
    <glyph glyph-name="Zhecyrillic" unicode="&#x416;" 
d="M251 387l-142 -387h-95l168 432l-166 368h90l145 -336h38v336h86v-336h38l144 336h90l-166 -368l167 -432h-94l-141 387h-38v-387h-86v387h-38z" />
    <glyph glyph-name="Zecyrillic" unicode="&#x417;" 
d="M323 -10q-123 0 -183 54.5t-67 171.5l97 10q7 -84 42 -117.5t111 -33.5q87 0 123.5 32.5t36.5 109.5v27q0 77 -33.5 107.5t-118.5 30.5h-92v87h92q75 0 104.5 24t29.5 84v32q0 63 -32.5 89.5t-110.5 26.5q-67 0 -97 -30.5t-37 -105.5l-97 10q7 110 63 160.5t171 50.5
q111 0 174 -49t63 -153v-33q0 -60 -38.5 -94.5t-104.5 -39.5v-29q80 -7 120.5 -54t40.5 -114v-27q0 -110 -59 -168.5t-198 -58.5z" />
    <glyph glyph-name="Iicyrillic" unicode="&#x418;" 
d="M476 0v680l-241 -680h-136v800h87v-690l247 690h130v-800h-87z" />
    <glyph glyph-name="Igravecyrillic" unicode="&#x40d;" 
d="M476 0v680l-241 -680h-136v800h87v-690l247 690h130v-800h-87zM321 900l-181 200h143l123 -200h-85z" />
    <glyph glyph-name="Iishortcyrillic" unicode="&#x419;" 
d="M476 0v680l-241 -680h-136v800h87v-690l247 690h130v-800h-87zM340 893q-81 0 -138.5 44.5t-58.5 153.5l95 10q1 -71 23 -101t79 -30t79 30t23 101l95 -10q-1 -109 -58.5 -153.5t-138.5 -44.5z" />
    <glyph glyph-name="Kacyrillic" unicode="&#x41a;" 
d="M196 382v-382h-97v800h97v-331h31l278 331h111l-313 -368l310 -432h-114l-269 382h-34z" />
    <glyph glyph-name="Kjecyrillic" unicode="&#x40c;" 
d="M196 382v-382h-97v800h97v-331h31l278 331h111l-313 -368l310 -432h-114l-269 382h-34zM288 900l124 200h142l-180 -200h-86z" />
    <glyph glyph-name="Elcyrillic" unicode="&#x41b;" 
d="M466 0v713h-215l-3 -478q-1 -125 -44 -185t-120 -60q-22 0 -41.5 3.5t-35.5 8.5l16 85q15 -5 27 -8t24 -3q42 0 61 41t20 131l3 552h405v-800h-97z" />
    <glyph glyph-name="Emcyrillic" unicode="&#x41c;" 
d="M286 197l-130 449l2 -646h-87v800h126l137 -484l136 484h121v-800h-87l2 646l-130 -449h-90z" />
    <glyph glyph-name="Encyrillic" unicode="&#x41d;" 
d="M99 0v800h97v-322h270v322h97v-800h-97v391h-270v-391h-97z" />
    <glyph glyph-name="Ocyrillic" unicode="&#x41e;" 
d="M331 -10q-122 0 -185.5 72.5t-63.5 209.5v252q0 140 64 213t186 73q121 0 184.5 -73t63.5 -213v-252q0 -137 -63.5 -209.5t-185.5 -72.5zM331 77q83 0 117.5 44t34.5 150v254q0 108 -34.5 153t-117.5 45t-117.5 -45t-34.5 -153v-254q0 -106 34.5 -150t117.5 -44z" />
    <glyph glyph-name="Pecyrillic" unicode="&#x41f;" 
d="M99 0v800h464v-800h-97v713h-270v-713h-97z" />
    <glyph glyph-name="Ercyrillic" unicode="&#x420;" 
d="M99 0v800h260q117 0 173.5 -52t56.5 -159v-95q0 -108 -57 -160t-174 -52h-162v-282h-97zM196 367h160q73 0 104.5 29t31.5 98v92q0 69 -31.5 98t-104.5 29h-160v-346z" />
    <glyph glyph-name="Escyrillic" unicode="&#x421;" 
d="M341 -10q-130 0 -194.5 70.5t-64.5 210.5v254q0 142 64.5 213.5t195.5 71.5q126 0 188 -65t69 -205l-97 -10q-8 110 -43 151.5t-118 41.5q-90 0 -126 -44.5t-36 -152.5v-256q0 -103 37.5 -148t124.5 -45q84 0 118 41t43 148l97 -10q-7 -138 -69 -202t-189 -64z" />
    <glyph glyph-name="Tecyrillic" unicode="&#x422;" 
d="M283 0v713h-227v87h550v-87h-226v-713h-97z" />
    <glyph glyph-name="Ucyrillic" unicode="&#x423;" 
d="M185 -1q-19 0 -39 3t-41 7l15 87q22 -5 39.5 -7.5t31.5 -2.5q45 0 68.5 25.5t42.5 76.5l3 9h-35l-221 603h97l186 -526l187 526h93l-236 -645q-33 -89 -82 -122.5t-109 -33.5z" />
    <glyph glyph-name="Ushortcyrillic" unicode="&#x40e;" 
d="M185 -1q-19 0 -39 3t-41 7l15 87q22 -5 39.5 -7.5t31.5 -2.5q45 0 68.5 25.5t42.5 76.5l3 9h-35l-221 603h97l186 -526l187 526h93l-236 -645q-33 -89 -82 -122.5t-109 -33.5zM331 893q-81 0 -138.5 44.5t-58.5 153.5l95 10q1 -71 23 -101t79 -30t79 30t23 101l95 -10
q-1 -109 -58.5 -153.5t-138.5 -44.5z" />
    <glyph glyph-name="Efcyrillic" unicode="&#x424;" 
d="M407 90h-28v-100h-95v100h-28q-103 0 -152 70t-49 190v96q0 122 49 193t152 71h28v100h95v-100h28q103 0 151.5 -71t48.5 -193v-96q0 -120 -48.5 -190t-151.5 -70zM407 623h-33v-446h33q56 0 80.5 40t24.5 133v96q0 95 -24.5 136t-80.5 41zM256 177h32v446h-32
q-57 0 -81.5 -41t-24.5 -136v-96q0 -93 24.5 -133t81.5 -40z" />
    <glyph glyph-name="Khacyrillic" unicode="&#x425;" 
d="M523 0l-191 323l-192 -323h-111l253 408l-231 392h111l181 -306l182 306h110l-243 -391l240 -409h-109z" />
    <glyph glyph-name="Tsecyrillic" unicode="&#x426;" 
d="M512 -150v150h-413v800h97v-713h225v713h97v-713h91v-237h-97z" />
    <glyph glyph-name="Checyrillic" unicode="&#x427;" 
d="M563 800v-800h-97v282h-135q-124 0 -178 48.5t-54 159.5v310h97v-308q0 -67 31.5 -96.5t103.5 -29.5h135v434h97z" />
    <glyph glyph-name="Shacyrillic" unicode="&#x428;" 
d="M64 0v800h88v-717h135v717h88v-717h135v717h88v-800h-534z" />
    <glyph glyph-name="Shchacyrillic" unicode="&#x429;" 
d="M639 -147h-92v147h-483v800h88v-717h135v717h88v-717h135v717h88v-717h41v-230z" />
    <glyph glyph-name="Hardsigncyrillic" unicode="&#x42a;" 
d="M395 0h-205v713h-171v87h267v-282h108q110 0 161.5 -51t51.5 -160v-97q0 -108 -51 -159t-161 -51zM286 87h107q63 0 90 29.5t27 97.5v92q0 68 -27 97.5t-90 29.5h-107v-346z" />
    <glyph glyph-name="Yericyrillic" unicode="&#x42b;" 
d="M81 0v800h88v-282h51q96 0 140.5 -51.5t44.5 -160.5v-95q0 -108 -44.5 -159.5t-139.5 -51.5h-140zM493 0v800h88v-800h-88zM169 83h51q46 0 71.5 29.5t25.5 101.5v92q0 72 -25.5 101.5t-71.5 29.5h-51v-354z" />
    <glyph glyph-name="Softsigncyrillic" unicode="&#x42c;" 
d="M99 0v800h97v-282h163q119 0 175 -51.5t56 -160.5v-95q0 -108 -55.5 -159.5t-174.5 -51.5h-261zM196 87h162q63 0 99.5 28.5t36.5 98.5v92q0 70 -36 98.5t-100 28.5h-162v-346z" />
    <glyph glyph-name="Ereversedcyrillic" unicode="&#x42d;" 
d="M340 -10q-120 0 -185.5 65t-72.5 201l96 10q8 -103 44 -146t118 -43q89 0 125.5 47t36.5 146v122h-239v87h239v47q0 107 -37 152t-125 45q-81 0 -117.5 -44t-44.5 -149l-96 10q7 138 72.5 204t184.5 66q135 0 197.5 -72t62.5 -213v-254q0 -139 -62.5 -210t-196.5 -71z
" />
    <glyph glyph-name="IUcyrillic" unicode="&#x42e;" 
d="M419 -10q-92 0 -135.5 66.5t-43.5 182.5v157h-88v-396h-88v800h88v-325h88v79q0 120 44 188t136 68t135 -68t43 -188v-315q0 -116 -43 -182.5t-136 -66.5zM419 73q49 0 70 38t21 128v315q0 93 -21 132.5t-70 39.5t-70 -39.5t-21 -132.5v-315q0 -90 21 -128t70 -38z" />
    <glyph glyph-name="IAcyrillic" unicode="&#x42f;" 
d="M288 396h178v317h-178q-72 0 -103.5 -28.5t-31.5 -94.5v-62q0 -70 31.5 -101t103.5 -31zM466 312h-128l-176 -312h-115l186 315q-90 11 -133.5 63.5t-43.5 149.5v62q0 107 56 158.5t173 51.5h278v-800h-97v312z" />
    <glyph glyph-name="Gheupturncyrillic" unicode="&#x490;" 
d="M102 0v800h382v150h97v-237h-382v-713h-97z" />
    <glyph glyph-name="a" unicode="a" 
d="M265 74q49 0 88 19t67 64v99h-157q-43 0 -69 -20t-26 -69q0 -44 22.5 -68.5t74.5 -24.5zM251 -10q-74 0 -126 42t-52 129q0 78 48 123.5t118 45.5h181v90q0 46 -29 74t-87 28q-60 0 -89 -20.5t-46 -86.5l-84 24q16 85 70.5 128t147.5 43q92 0 153 -43.5t61 -133.5v-278
q0 -51 27 -65t81 -4v-89q-63 -10 -110.5 9.5t-52.5 90.5h-19q-25 -46 -76.5 -76.5t-115.5 -30.5z" />
    <glyph glyph-name="agrave" unicode="&#xe0;" 
d="M265 74q49 0 88 19t67 64v99h-157q-43 0 -69 -20t-26 -69q0 -44 22.5 -68.5t74.5 -24.5zM251 -10q-74 0 -126 42t-52 129q0 78 48 123.5t118 45.5h181v90q0 46 -29 74t-87 28q-60 0 -89 -20.5t-46 -86.5l-84 24q16 85 70.5 128t147.5 43q92 0 153 -43.5t61 -133.5v-278
q0 -51 27 -65t81 -4v-89q-63 -10 -110.5 9.5t-52.5 90.5h-19q-25 -46 -76.5 -76.5t-115.5 -30.5zM313 700l-181 200h143l123 -200h-85z" />
    <glyph glyph-name="aacute" unicode="&#xe1;" 
d="M265 74q49 0 88 19t67 64v99h-157q-43 0 -69 -20t-26 -69q0 -44 22.5 -68.5t74.5 -24.5zM251 -10q-74 0 -126 42t-52 129q0 78 48 123.5t118 45.5h181v90q0 46 -29 74t-87 28q-60 0 -89 -20.5t-46 -86.5l-84 24q16 85 70.5 128t147.5 43q92 0 153 -43.5t61 -133.5v-278
q0 -51 27 -65t81 -4v-89q-63 -10 -110.5 9.5t-52.5 90.5h-19q-25 -46 -76.5 -76.5t-115.5 -30.5zM207 700l124 200h142l-180 -200h-86z" />
    <glyph glyph-name="acircumflex" unicode="&#xe2;" 
d="M265 74q49 0 88 19t67 64v99h-157q-43 0 -69 -20t-26 -69q0 -44 22.5 -68.5t74.5 -24.5zM251 -10q-74 0 -126 42t-52 129q0 78 48 123.5t118 45.5h181v90q0 46 -29 74t-87 28q-60 0 -89 -20.5t-46 -86.5l-84 24q16 85 70.5 128t147.5 43q92 0 153 -43.5t61 -133.5v-278
q0 -51 27 -65t81 -4v-89q-63 -10 -110.5 9.5t-52.5 90.5h-19q-25 -46 -76.5 -76.5t-115.5 -30.5zM162 708l-39 60l163 148h70l165 -148l-39 -60l-161 114z" />
    <glyph glyph-name="atilde" unicode="&#xe3;" 
d="M265 74q49 0 88 19t67 64v99h-157q-43 0 -69 -20t-26 -69q0 -44 22.5 -68.5t74.5 -24.5zM251 -10q-74 0 -126 42t-52 129q0 78 48 123.5t118 45.5h181v90q0 46 -29 74t-87 28q-60 0 -89 -20.5t-46 -86.5l-84 24q16 85 70.5 128t147.5 43q92 0 153 -43.5t61 -133.5v-278
q0 -51 27 -65t81 -4v-89q-63 -10 -110.5 9.5t-52.5 90.5h-19q-25 -46 -76.5 -76.5t-115.5 -30.5zM386 710q-34 0 -55.5 18t-37.5 40l-29.5 40t-30.5 18q-18 0 -30 -20.5t-11 -74.5v-11h-74v15q0 75 31.5 124.5t90.5 49.5q37 0 59 -18t38 -40l28 -40t28 -18q18 0 30 20.5
t12 74.5v11h73v-15q0 -76 -31.5 -125t-90.5 -49z" />
    <glyph glyph-name="adieresis" unicode="&#xe4;" 
d="M265 74q49 0 88 19t67 64v99h-157q-43 0 -69 -20t-26 -69q0 -44 22.5 -68.5t74.5 -24.5zM251 -10q-74 0 -126 42t-52 129q0 78 48 123.5t118 45.5h181v90q0 46 -29 74t-87 28q-60 0 -89 -20.5t-46 -86.5l-84 24q16 85 70.5 128t147.5 43q92 0 153 -43.5t61 -133.5v-278
q0 -51 27 -65t81 -4v-89q-63 -10 -110.5 9.5t-52.5 90.5h-19q-25 -46 -76.5 -76.5t-115.5 -30.5zM207 711q-28 0 -45 12t-17 44v7q0 33 17 45.5t45 12.5t44.5 -12.5t16.5 -45.5v-7q0 -32 -17 -44t-44 -12zM419 711q-28 0 -44.5 12t-16.5 44v7q0 33 16.5 45.5t44.5 12.5
t45 -12.5t17 -45.5v-7q0 -32 -17.5 -44t-44.5 -12z" />
    <glyph glyph-name="aring" unicode="&#xe5;" 
d="M265 74q49 0 88 19t67 64v99h-157q-43 0 -69 -20t-26 -69q0 -44 22.5 -68.5t74.5 -24.5zM251 -10q-74 0 -126 42t-52 129q0 78 48 123.5t118 45.5h181v90q0 46 -29 74t-87 28q-60 0 -89 -20.5t-46 -86.5l-84 24q16 85 70.5 128t147.5 43q92 0 153 -43.5t61 -133.5v-278
q0 -51 27 -65t81 -4v-89q-63 -10 -110.5 9.5t-52.5 90.5h-19q-25 -46 -76.5 -76.5t-115.5 -30.5zM313 686q-67 0 -108 35t-41 109v32q0 75 41 111t108 36t108 -36t41 -111v-32q0 -74 -41 -109t-108 -35zM313 755q37 0 56 17.5t19 57.5v32q0 40 -19 59t-56 19t-56 -19
t-19 -59v-32q0 -40 19 -57.5t56 -17.5z" />
    <glyph glyph-name="amacron" unicode="&#x101;" 
d="M265 74q49 0 88 19t67 64v99h-157q-43 0 -69 -20t-26 -69q0 -44 22.5 -68.5t74.5 -24.5zM251 -10q-74 0 -126 42t-52 129q0 78 48 123.5t118 45.5h181v90q0 46 -29 74t-87 28q-60 0 -89 -20.5t-46 -86.5l-84 24q16 85 70.5 128t147.5 43q92 0 153 -43.5t61 -133.5v-278
q0 -51 27 -65t81 -4v-89q-63 -10 -110.5 9.5t-52.5 90.5h-19q-25 -46 -76.5 -76.5t-115.5 -30.5zM128 757v86h370v-86h-370z" />
    <glyph glyph-name="abreve" unicode="&#x103;" 
d="M265 74q49 0 88 19t67 64v99h-157q-43 0 -69 -20t-26 -69q0 -44 22.5 -68.5t74.5 -24.5zM251 -10q-74 0 -126 42t-52 129q0 78 48 123.5t118 45.5h181v90q0 46 -29 74t-87 28q-60 0 -89 -20.5t-46 -86.5l-84 24q16 85 70.5 128t147.5 43q92 0 153 -43.5t61 -133.5v-278
q0 -51 27 -65t81 -4v-89q-63 -10 -110.5 9.5t-52.5 90.5h-19q-25 -46 -76.5 -76.5t-115.5 -30.5zM313 693q-94 0 -154 49t-61 159h95q1 -72 30.5 -101.5t89.5 -29.5t89.5 29.5t30.5 101.5h95q-1 -110 -61 -159t-154 -49z" />
    <glyph glyph-name="aogonek" unicode="&#x105;" 
d="M265 74q49 0 88 19t67 64v99h-157q-43 0 -69 -20t-26 -69q0 -44 22.5 -68.5t74.5 -24.5zM251 -10q-74 0 -126 42t-52 129q0 78 48 123.5t118 45.5h181v90q0 46 -29 74t-87 28q-60 0 -89 -20.5t-46 -86.5l-84 24q16 85 70.5 128t147.5 43q92 0 153 -43.5t61 -133.5v-278
q0 -51 27 -65t81 -4v-89q-63 -10 -110.5 9.5t-52.5 90.5h-19q-25 -46 -76.5 -76.5t-115.5 -30.5zM559 -215q-59 0 -99 32t-40 87q0 48 35.5 85.5t78.5 55.5l25 -22q-31 -21 -42.5 -46.5t-11.5 -45.5q0 -28 17.5 -42.5t48.5 -14.5q16 0 41 3t41 7v-89q-19 -4 -45.5 -7
t-48.5 -3z" />
    <glyph glyph-name="aringacute" unicode="&#x1fb;" 
d="M265 74q49 0 88 19t67 64v99h-157q-43 0 -69 -20t-26 -69q0 -44 22.5 -68.5t74.5 -24.5zM251 -10q-74 0 -126 42t-52 129q0 78 48 123.5t118 45.5h181v90q0 46 -29 74t-87 28q-60 0 -89 -20.5t-46 -86.5l-84 24q16 85 70.5 128t147.5 43q92 0 153 -43.5t61 -133.5v-278
q0 -51 27 -65t81 -4v-89q-63 -10 -110.5 9.5t-52.5 90.5h-19q-25 -46 -76.5 -76.5t-115.5 -30.5zM313 686q-67 0 -108 35t-41 109v32q0 75 41 111t108 36t108 -36t41 -111v-32q0 -74 -41 -109t-108 -35zM313 755q37 0 56 17.5t19 57.5v32q0 40 -19 59t-56 19t-56 -19
t-19 -59v-32q0 -40 19 -57.5t56 -17.5zM261 1000l124 200h142l-180 -200h-86z" />
    <glyph glyph-name="b" unicode="b" 
d="M324 -10q-59 0 -117.5 17.5t-106.5 49.5v743h96v-293h28q22 49 64.5 76t96.5 27q84 0 130.5 -58t46.5 -165v-175q0 -106 -62.5 -164t-175.5 -58zM324 75q72 0 107 33.5t35 105.5v174q0 67 -26.5 98.5t-81.5 31.5q-46 0 -85.5 -25t-76.5 -76v-307q29 -18 60 -26.5t68 -8.5
z" />
    <glyph glyph-name="c" unicode="c" 
d="M344 -10q-122 0 -183 56.5t-61 163.5v176q0 110 61 167t182 57q107 0 164.5 -51t64.5 -154l-95 -5q-4 66 -36.5 94.5t-98.5 28.5q-73 0 -109.5 -33t-36.5 -103v-178q0 -68 36.5 -100t110.5 -32q66 0 98.5 23.5t35.5 79.5l95 -5q-6 -93 -63 -139t-165 -46z" />
    <glyph glyph-name="ccedilla" unicode="&#xe7;" 
d="M344 -10q-122 0 -183 56.5t-61 163.5v176q0 110 61 167t182 57q107 0 164.5 -51t64.5 -154l-95 -5q-4 66 -36.5 94.5t-98.5 28.5q-73 0 -109.5 -33t-36.5 -103v-178q0 -68 36.5 -100t110.5 -32q66 0 98.5 23.5t35.5 79.5l95 -5q-6 -93 -63 -139t-165 -46zM302 0l19 42
q46 -9 81.5 -40t35.5 -93q0 -64 -42.5 -94t-94.5 -30q-62 0 -101 23.5t-43 80.5l85 10q1 -19 13.5 -26.5t40.5 -7.5q27 0 41 12.5t14 46.5q0 35 -11 51.5t-38 24.5z" />
    <glyph glyph-name="cacute" unicode="&#x107;" 
d="M344 -10q-122 0 -183 56.5t-61 163.5v176q0 110 61 167t182 57q107 0 164.5 -51t64.5 -154l-95 -5q-4 66 -36.5 94.5t-98.5 28.5q-73 0 -109.5 -33t-36.5 -103v-178q0 -68 36.5 -100t110.5 -32q66 0 98.5 23.5t35.5 79.5l95 -5q-6 -93 -63 -139t-165 -46zM233 700
l124 200h142l-180 -200h-86z" />
    <glyph glyph-name="ccircumflex" unicode="&#x109;" 
d="M344 -10q-122 0 -183 56.5t-61 163.5v176q0 110 61 167t182 57q107 0 164.5 -51t64.5 -154l-95 -5q-4 66 -36.5 94.5t-98.5 28.5q-73 0 -109.5 -33t-36.5 -103v-178q0 -68 36.5 -100t110.5 -32q66 0 98.5 23.5t35.5 79.5l95 -5q-6 -93 -63 -139t-165 -46zM185 708l-39 60
l163 148h70l165 -148l-39 -60l-161 114z" />
    <glyph glyph-name="cdotaccent" unicode="&#x10b;" 
d="M344 -10q-122 0 -183 56.5t-61 163.5v176q0 110 61 167t182 57q107 0 164.5 -51t64.5 -154l-95 -5q-4 66 -36.5 94.5t-98.5 28.5q-73 0 -109.5 -33t-36.5 -103v-178q0 -68 36.5 -100t110.5 -32q66 0 98.5 23.5t35.5 79.5l95 -5q-6 -93 -63 -139t-165 -46zM337 711
q-36 0 -58 12t-22 44v7q0 33 22 45.5t58 12.5t58 -12.5t22 -45.5v-7q0 -32 -22.5 -44t-57.5 -12z" />
    <glyph glyph-name="ccaron" unicode="&#x10d;" 
d="M344 -10q-122 0 -183 56.5t-61 163.5v176q0 110 61 167t182 57q107 0 164.5 -51t64.5 -154l-95 -5q-4 66 -36.5 94.5t-98.5 28.5q-73 0 -109.5 -33t-36.5 -103v-178q0 -68 36.5 -100t110.5 -32q66 0 98.5 23.5t35.5 79.5l95 -5q-6 -93 -63 -139t-165 -46zM303 704
l-165 148l39 60l161 -113l159 113l39 -60l-163 -148h-70z" />
    <glyph glyph-name="d" unicode="d" 
d="M304 82q46 0 85.5 25t76.5 76v303q-28 20 -59.5 29.5t-67.5 9.5q-73 0 -108 -34t-35 -105v-175q0 -66 27 -97.5t81 -31.5zM438 93q-22 -49 -64.5 -76t-96.5 -27q-84 0 -130.5 59t-46.5 164v175q0 105 62 163.5t174 58.5q32 0 65.5 -7.5t64.5 -20.5v218h96v-800h-96v93
h-28z" />
    <glyph glyph-name="dcaron" unicode="&#x10f;" 
d="M304 82q46 0 85.5 25t76.5 76v303q-28 20 -59.5 29.5t-67.5 9.5q-73 0 -108 -34t-35 -105v-175q0 -66 27 -97.5t81 -31.5zM438 93q-22 -49 -64.5 -76t-96.5 -27q-84 0 -130.5 59t-46.5 164v175q0 105 62 163.5t174 58.5q32 0 65.5 -7.5t64.5 -20.5v218h96v-800h-96v93
h-28zM648 705l73 295h140l-144 -295h-69z" />
    <glyph glyph-name="e" unicode="e" 
d="M565 131q-25 -74 -76.5 -107.5t-156.5 -33.5q-109 0 -170.5 56t-61.5 165v175q0 112 64.5 168t167.5 56q104 0 167 -57t63 -175v-97h-366v-70q0 -74 33.5 -106t102.5 -32q65 0 94.5 20.5t45.5 65.5zM196 385v-30h270v21q0 79 -34 115t-101 36t-101 -35t-34 -107z" />
    <glyph glyph-name="egrave" unicode="&#xe8;" 
d="M565 131q-25 -74 -76.5 -107.5t-156.5 -33.5q-109 0 -170.5 56t-61.5 165v175q0 112 64.5 168t167.5 56q104 0 167 -57t63 -175v-97h-366v-70q0 -74 33.5 -106t102.5 -32q65 0 94.5 20.5t45.5 65.5zM196 385v-30h270v21q0 79 -34 115t-101 36t-101 -35t-34 -107zM332 700
l-181 200h143l123 -200h-85z" />
    <glyph glyph-name="eacute" unicode="&#xe9;" 
d="M565 131q-25 -74 -76.5 -107.5t-156.5 -33.5q-109 0 -170.5 56t-61.5 165v175q0 112 64.5 168t167.5 56q104 0 167 -57t63 -175v-97h-366v-70q0 -74 33.5 -106t102.5 -32q65 0 94.5 20.5t45.5 65.5zM196 385v-30h270v21q0 79 -34 115t-101 36t-101 -35t-34 -107zM227 700
l124 200h142l-180 -200h-86z" />
    <glyph glyph-name="ecircumflex" unicode="&#xea;" 
d="M565 131q-25 -74 -76.5 -107.5t-156.5 -33.5q-109 0 -170.5 56t-61.5 165v175q0 112 64.5 168t167.5 56q104 0 167 -57t63 -175v-97h-366v-70q0 -74 33.5 -106t102.5 -32q65 0 94.5 20.5t45.5 65.5zM196 385v-30h270v21q0 79 -34 115t-101 36t-101 -35t-34 -107zM172 708
l-39 60l163 148h70l165 -148l-39 -60l-161 114z" />
    <glyph glyph-name="edieresis" unicode="&#xeb;" 
d="M565 131q-25 -74 -76.5 -107.5t-156.5 -33.5q-109 0 -170.5 56t-61.5 165v175q0 112 64.5 168t167.5 56q104 0 167 -57t63 -175v-97h-366v-70q0 -74 33.5 -106t102.5 -32q65 0 94.5 20.5t45.5 65.5zM196 385v-30h270v21q0 79 -34 115t-101 36t-101 -35t-34 -107zM226 711
q-28 0 -45 12t-17 44v7q0 33 17 45.5t45 12.5t44.5 -12.5t16.5 -45.5v-7q0 -32 -17 -44t-44 -12zM438 711q-28 0 -44.5 12t-16.5 44v7q0 33 16.5 45.5t44.5 12.5t45 -12.5t17 -45.5v-7q0 -32 -17.5 -44t-44.5 -12z" />
    <glyph glyph-name="emacron" unicode="&#x113;" 
d="M565 131q-25 -74 -76.5 -107.5t-156.5 -33.5q-109 0 -170.5 56t-61.5 165v175q0 112 64.5 168t167.5 56q104 0 167 -57t63 -175v-97h-366v-70q0 -74 33.5 -106t102.5 -32q65 0 94.5 20.5t45.5 65.5zM196 385v-30h270v21q0 79 -34 115t-101 36t-101 -35t-34 -107zM147 757
v86h370v-86h-370z" />
    <glyph glyph-name="ebreve" unicode="&#x115;" 
d="M565 131q-25 -74 -76.5 -107.5t-156.5 -33.5q-109 0 -170.5 56t-61.5 165v175q0 112 64.5 168t167.5 56q104 0 167 -57t63 -175v-97h-366v-70q0 -74 33.5 -106t102.5 -32q65 0 94.5 20.5t45.5 65.5zM196 385v-30h270v21q0 79 -34 115t-101 36t-101 -35t-34 -107zM332 693
q-94 0 -154 49t-61 159h95q1 -72 30.5 -101.5t89.5 -29.5t89.5 29.5t30.5 101.5h95q-1 -110 -61 -159t-154 -49z" />
    <glyph glyph-name="edotaccent" unicode="&#x117;" 
d="M565 131q-25 -74 -76.5 -107.5t-156.5 -33.5q-109 0 -170.5 56t-61.5 165v175q0 112 64.5 168t167.5 56q104 0 167 -57t63 -175v-97h-366v-70q0 -74 33.5 -106t102.5 -32q65 0 94.5 20.5t45.5 65.5zM196 385v-30h270v21q0 79 -34 115t-101 36t-101 -35t-34 -107zM332 711
q-36 0 -58 12t-22 44v7q0 33 22 45.5t58 12.5t58 -12.5t22 -45.5v-7q0 -32 -22.5 -44t-57.5 -12z" />
    <glyph glyph-name="eogonek" unicode="&#x119;" 
d="M459 -215q-59 0 -99 32t-40 87q0 48 35.5 85.5t78.5 55.5l25 -22q-31 -21 -42.5 -46.5t-11.5 -45.5q0 -28 17.5 -42.5t48.5 -14.5q16 0 41 3t41 7v-89q-19 -4 -45.5 -7t-48.5 -3zM565 131q-25 -74 -76.5 -107.5t-156.5 -33.5q-109 0 -170.5 56t-61.5 165v175
q0 112 64.5 168t167.5 56q104 0 167 -57t63 -175v-97h-366v-70q0 -74 33.5 -106t102.5 -32q65 0 94.5 20.5t45.5 65.5zM196 385v-30h270v21q0 79 -34 115t-101 36t-101 -35t-34 -107z" />
    <glyph glyph-name="ecaron" unicode="&#x11b;" 
d="M565 131q-25 -74 -76.5 -107.5t-156.5 -33.5q-109 0 -170.5 56t-61.5 165v175q0 112 64.5 168t167.5 56q104 0 167 -57t63 -175v-97h-366v-70q0 -74 33.5 -106t102.5 -32q65 0 94.5 20.5t45.5 65.5zM196 385v-30h270v21q0 79 -34 115t-101 36t-101 -35t-34 -107zM298 704
l-165 148l39 60l161 -113l159 113l39 -60l-163 -148h-70z" />
    <glyph glyph-name="f" unicode="f" 
d="M238 0v513h-156v87h156v40q0 80 58 124t143 44q44 0 79.5 -9t60.5 -19l-18 -82q-24 10 -54 16.5t-67 6.5q-48 0 -76.5 -18.5t-28.5 -60.5v-42h227v-87h-227v-513h-97z" />
    <glyph glyph-name="g" unicode="g" 
d="M607 -49q0 -81 -54.5 -121t-134.5 -40h-172q-84 0 -137.5 35.5t-53.5 111.5q0 48 24 76.5t68 32.5v21q-32 6 -53 29t-21 71q0 43 25.5 77t83.5 39v19q-44 16 -60.5 49t-16.5 62v28q0 69 54 114t153 45h274v-89l-143 24v-19q36 -11 55.5 -42t19.5 -62v-27
q0 -69 -50 -111.5t-158 -42.5h-109q-25 0 -38 -13.5t-13 -46.5q0 -31 18 -46.5t53 -15.5h206q78 0 129 -37t51 -121zM313 306q55 0 83.5 22t28.5 71v31q0 48 -28.5 69.5t-83.5 21.5t-83.5 -21.5t-28.5 -69.5v-31q0 -49 28.5 -71t83.5 -22zM244 -132h185q40 0 65.5 17.5
t25.5 60.5q0 40 -22.5 57.5t-59.5 17.5h-287v-69q0 -42 23.5 -63t69.5 -21z" />
    <glyph glyph-name="gcircumflex" unicode="&#x11d;" 
d="M607 -49q0 -81 -54.5 -121t-134.5 -40h-172q-84 0 -137.5 35.5t-53.5 111.5q0 48 24 76.5t68 32.5v21q-32 6 -53 29t-21 71q0 43 25.5 77t83.5 39v19q-44 16 -60.5 49t-16.5 62v28q0 69 54 114t153 45h274v-89l-143 24v-19q36 -11 55.5 -42t19.5 -62v-27
q0 -69 -50 -111.5t-158 -42.5h-109q-25 0 -38 -13.5t-13 -46.5q0 -31 18 -46.5t53 -15.5h206q78 0 129 -37t51 -121zM313 306q55 0 83.5 22t28.5 71v31q0 48 -28.5 69.5t-83.5 21.5t-83.5 -21.5t-28.5 -69.5v-31q0 -49 28.5 -71t83.5 -22zM244 -132h185q40 0 65.5 17.5
t25.5 60.5q0 40 -22.5 57.5t-59.5 17.5h-287v-69q0 -42 23.5 -63t69.5 -21zM163 708l-39 60l163 148h70l165 -148l-39 -60l-161 114z" />
    <glyph glyph-name="gbreve" unicode="&#x11f;" 
d="M607 -49q0 -81 -54.5 -121t-134.5 -40h-172q-84 0 -137.5 35.5t-53.5 111.5q0 48 24 76.5t68 32.5v21q-32 6 -53 29t-21 71q0 43 25.5 77t83.5 39v19q-44 16 -60.5 49t-16.5 62v28q0 69 54 114t153 45h274v-89l-143 24v-19q36 -11 55.5 -42t19.5 -62v-27
q0 -69 -50 -111.5t-158 -42.5h-109q-25 0 -38 -13.5t-13 -46.5q0 -31 18 -46.5t53 -15.5h206q78 0 129 -37t51 -121zM313 306q55 0 83.5 22t28.5 71v31q0 48 -28.5 69.5t-83.5 21.5t-83.5 -21.5t-28.5 -69.5v-31q0 -49 28.5 -71t83.5 -22zM244 -132h185q40 0 65.5 17.5
t25.5 60.5q0 40 -22.5 57.5t-59.5 17.5h-287v-69q0 -42 23.5 -63t69.5 -21zM331 693q-94 0 -154 49t-61 159h95q1 -72 30.5 -101.5t89.5 -29.5t89.5 29.5t30.5 101.5h95q-1 -110 -61 -159t-154 -49z" />
    <glyph glyph-name="gdotaccent" unicode="&#x121;" 
d="M607 -49q0 -81 -54.5 -121t-134.5 -40h-172q-84 0 -137.5 35.5t-53.5 111.5q0 48 24 76.5t68 32.5v21q-32 6 -53 29t-21 71q0 43 25.5 77t83.5 39v19q-44 16 -60.5 49t-16.5 62v28q0 69 54 114t153 45h274v-89l-143 24v-19q36 -11 55.5 -42t19.5 -62v-27
q0 -69 -50 -111.5t-158 -42.5h-109q-25 0 -38 -13.5t-13 -46.5q0 -31 18 -46.5t53 -15.5h206q78 0 129 -37t51 -121zM313 306q55 0 83.5 22t28.5 71v31q0 48 -28.5 69.5t-83.5 21.5t-83.5 -21.5t-28.5 -69.5v-31q0 -49 28.5 -71t83.5 -22zM244 -132h185q40 0 65.5 17.5
t25.5 60.5q0 40 -22.5 57.5t-59.5 17.5h-287v-69q0 -42 23.5 -63t69.5 -21zM331 711q-36 0 -58 12t-22 44v7q0 33 22 45.5t58 12.5t58 -12.5t22 -45.5v-7q0 -32 -22.5 -44t-57.5 -12z" />
    <glyph glyph-name="gcommaaccent" unicode="&#x123;" 
d="M607 -49q0 -81 -54.5 -121t-134.5 -40h-172q-84 0 -137.5 35.5t-53.5 111.5q0 48 24 76.5t68 32.5v21q-32 6 -53 29t-21 71q0 43 25.5 77t83.5 39v19q-44 16 -60.5 49t-16.5 62v28q0 69 54 114t153 45h274v-89l-143 24v-19q36 -11 55.5 -42t19.5 -62v-27
q0 -69 -50 -111.5t-158 -42.5h-109q-25 0 -38 -13.5t-13 -46.5q0 -31 18 -46.5t53 -15.5h206q78 0 129 -37t51 -121zM313 306q55 0 83.5 22t28.5 71v31q0 48 -28.5 69.5t-83.5 21.5t-83.5 -21.5t-28.5 -69.5v-31q0 -49 28.5 -71t83.5 -22zM244 -132h185q40 0 65.5 17.5
t25.5 60.5q0 40 -22.5 57.5t-59.5 17.5h-287v-69q0 -42 23.5 -63t69.5 -21zM243 700l144 200h85l-86 -200h-143z" />
    <glyph glyph-name="h" unicode="h" 
d="M100 0v800h96v-293h28q19 47 62.5 75t99.5 28q81 0 128.5 -54t47.5 -145v-411h-96v392q0 62 -27.5 94t-78.5 32q-42 0 -84 -25t-80 -74v-419h-96z" />
    <glyph glyph-name="hcircumflex" unicode="&#x125;" 
d="M100 0v800h96v-293h28q19 47 62.5 75t99.5 28q81 0 128.5 -54t47.5 -145v-411h-96v392q0 62 -27.5 94t-78.5 32q-42 0 -84 -25t-80 -74v-419h-96zM-15 908l-39 60l163 148h70l165 -148l-39 -60l-161 114z" />
    <glyph glyph-name="i" unicode="i" 
d="M100 0v87h183v426h-183v87h280v-513h182v-87h-462zM332 711q-36 0 -58 12t-22 44v7q0 33 22 45.5t58 12.5t58 -12.5t22 -45.5v-7q0 -32 -22.5 -44t-57.5 -12z" />
    <glyph glyph-name="igrave" unicode="&#xec;" 
d="M100 0v87h183v426h-183v87h280v-513h182v-87h-462zM332 700l-181 200h143l123 -200h-85z" />
    <glyph glyph-name="iacute" unicode="&#xed;" 
d="M100 0v87h183v426h-183v87h280v-513h182v-87h-462zM225 700l124 200h142l-180 -200h-86z" />
    <glyph glyph-name="icircumflex" unicode="&#xee;" 
d="M100 0v87h183v426h-183v87h280v-513h182v-87h-462zM171 708l-39 60l163 148h70l165 -148l-39 -60l-161 114z" />
    <glyph glyph-name="idieresis" unicode="&#xef;" 
d="M100 0v87h183v426h-183v87h280v-513h182v-87h-462zM225 711q-28 0 -45 12t-17 44v7q0 33 17 45.5t45 12.5t44.5 -12.5t16.5 -45.5v-7q0 -32 -17 -44t-44 -12zM437 711q-28 0 -44.5 12t-16.5 44v7q0 33 16.5 45.5t44.5 12.5t45 -12.5t17 -45.5v-7q0 -32 -17.5 -44
t-44.5 -12z" />
    <glyph glyph-name="itilde" unicode="&#x129;" 
d="M100 0v87h183v426h-183v87h280v-513h182v-87h-462zM404 710q-34 0 -55.5 18t-37.5 40l-29.5 40t-30.5 18q-18 0 -30 -20.5t-11 -74.5v-11h-74v15q0 75 31.5 124.5t90.5 49.5q37 0 59 -18t38 -40l28 -40t28 -18q18 0 30 20.5t12 74.5v11h73v-15q0 -76 -31.5 -125
t-90.5 -49z" />
    <glyph glyph-name="imacron" unicode="&#x12b;" 
d="M100 0v87h183v426h-183v87h280v-513h182v-87h-462zM146 757v86h370v-86h-370z" />
    <glyph glyph-name="ibreve" unicode="&#x12d;" 
d="M100 0v87h183v426h-183v87h280v-513h182v-87h-462zM331 693q-94 0 -154 49t-61 159h95q1 -72 30.5 -101.5t89.5 -29.5t89.5 29.5t30.5 101.5h95q-1 -110 -61 -159t-154 -49z" />
    <glyph glyph-name="iogonek" unicode="&#x12f;" 
d="M332 711q-36 0 -58 12t-22 44v7q0 33 22 45.5t58 12.5t58 -12.5t22 -45.5v-7q0 -32 -22.5 -44t-57.5 -12zM100 0v87h183v426h-183v87h280v-513h182v-87h-462zM412 -215q-59 0 -99 32t-40 87q0 48 35.5 85.5t78.5 55.5l25 -22q-31 -21 -42.5 -46.5t-11.5 -45.5
q0 -28 17.5 -42.5t48.5 -14.5q16 0 41 3t41 7v-89q-19 -4 -45.5 -7t-48.5 -3z" />
    <glyph glyph-name="j" unicode="j" 
d="M245 -208q-35 0 -70 4.5t-75 17.5l18 94q34 -13 64 -17.5t59 -4.5q60 0 96.5 28t36.5 93v506h-256v87h353v-606q0 -103 -65 -152.5t-161 -49.5zM419 711q-36 0 -58 12t-22 44v7q0 33 22 45.5t58 12.5t58 -12.5t22 -45.5v-7q0 -32 -22.5 -44t-57.5 -12z" />
    <glyph glyph-name="jcircumflex" unicode="&#x135;" 
d="M245 -208q-35 0 -70 4.5t-75 17.5l18 94q34 -13 64 -17.5t59 -4.5q60 0 96.5 28t36.5 93v506h-256v87h353v-606q0 -103 -65 -152.5t-161 -49.5zM231 708l-39 60l163 148h70l165 -148l-39 -60l-161 114z" />
    <glyph glyph-name="k" unicode="k" 
d="M240 274v-274h-97v800h97v-444h46l175 244h116l-215 -279l212 -321h-110l-178 274h-46z" />
    <glyph glyph-name="kcommaaccent" unicode="&#x137;" 
d="M240 274v-274h-97v800h97v-444h46l175 244h116l-215 -279l212 -321h-110l-178 274h-46zM201 -300l87 200h143l-144 -200h-86z" />
    <glyph glyph-name="l" unicode="l" 
d="M101 0v87h183v626h-183v87h280v-713h182v-87h-462z" />
    <glyph glyph-name="lacute" unicode="&#x13a;" 
d="M101 0v87h183v626h-183v87h280v-713h182v-87h-462zM238 900l124 200h142l-180 -200h-86z" />
    <glyph glyph-name="lcommaaccent" unicode="&#x13c;" 
d="M101 0v87h183v626h-183v87h280v-713h182v-87h-462zM184 -300l87 200h143l-144 -200h-86z" />
    <glyph glyph-name="lcaron" unicode="&#x13e;" 
d="M101 0v87h183v626h-183v87h280v-713h182v-87h-462zM467 705l73 295h140l-144 -295h-69z" />
    <glyph glyph-name="m" unicode="m" 
d="M152 434v-434h-88v600h88v-77h19q16 41 44 64t60 23q36 0 60 -22.5t34 -64.5h20q17 41 46.5 64t64.5 23q46 0 72 -39t26 -108v-463h-88v449q0 42 -10.5 64t-31.5 22q-19 0 -43.5 -26.5t-49.5 -74.5v-434h-88v449q0 43 -11 64.5t-32 21.5q-19 0 -42.5 -26t-49.5 -75z" />
    <glyph glyph-name="n" unicode="n" 
d="M100 0v600h96v-93h28q22 48 65.5 75.5t97.5 27.5q81 0 128 -53.5t47 -146.5v-410h-96v391q0 63 -27.5 95t-78.5 32q-42 0 -84 -25.5t-80 -74.5v-418h-96z" />
    <glyph glyph-name="ntilde" unicode="&#xf1;" 
d="M100 0v600h96v-93h28q22 48 65.5 75.5t97.5 27.5q81 0 128 -53.5t47 -146.5v-410h-96v391q0 63 -27.5 95t-78.5 32q-42 0 -84 -25.5t-80 -74.5v-418h-96zM423 710q-34 0 -55.5 18t-37.5 40l-29.5 40t-30.5 18q-18 0 -30 -20.5t-11 -74.5v-11h-74v15q0 75 31.5 124.5
t90.5 49.5q37 0 59 -18t38 -40l28 -40t28 -18q18 0 30 20.5t12 74.5v11h73v-15q0 -76 -31.5 -125t-90.5 -49z" />
    <glyph glyph-name="nacute" unicode="&#x144;" 
d="M100 0v600h96v-93h28q22 48 65.5 75.5t97.5 27.5q81 0 128 -53.5t47 -146.5v-410h-96v391q0 63 -27.5 95t-78.5 32q-42 0 -84 -25.5t-80 -74.5v-418h-96zM244 700l124 200h142l-180 -200h-86z" />
    <glyph glyph-name="ncommaaccent" unicode="&#x146;" 
d="M206 -300l87 200h143l-144 -200h-86zM100 0v600h96v-93h28q22 48 65.5 75.5t97.5 27.5q81 0 128 -53.5t47 -146.5v-410h-96v391q0 63 -27.5 95t-78.5 32q-42 0 -84 -25.5t-80 -74.5v-418h-96z" />
    <glyph glyph-name="ncaron" unicode="&#x148;" 
d="M100 0v600h96v-93h28q22 48 65.5 75.5t97.5 27.5q81 0 128 -53.5t47 -146.5v-410h-96v391q0 63 -27.5 95t-78.5 32q-42 0 -84 -25.5t-80 -74.5v-418h-96zM316 704l-165 148l39 60l161 -113l159 113l39 -60l-163 -148h-70z" />
    <glyph glyph-name="o" unicode="o" 
d="M331 -10q-111 0 -171 57t-60 163v176q0 107 60 165.5t172 58.5q110 0 170 -58.5t60 -165.5v-175q0 -107 -60 -164t-171 -57zM331 77q68 0 101.5 32t33.5 101v176q0 70 -33.5 103.5t-101.5 33.5t-101.5 -33.5t-33.5 -103.5v-176q0 -69 33.5 -101t101.5 -32z" />
    <glyph glyph-name="ograve" unicode="&#xf2;" 
d="M331 -10q-111 0 -171 57t-60 163v176q0 107 60 165.5t172 58.5q110 0 170 -58.5t60 -165.5v-175q0 -107 -60 -164t-171 -57zM331 77q68 0 101.5 32t33.5 101v176q0 70 -33.5 103.5t-101.5 33.5t-101.5 -33.5t-33.5 -103.5v-176q0 -69 33.5 -101t101.5 -32zM331 700
l-181 200h143l123 -200h-85z" />
    <glyph glyph-name="oacute" unicode="&#xf3;" 
d="M331 -10q-111 0 -171 57t-60 163v176q0 107 60 165.5t172 58.5q110 0 170 -58.5t60 -165.5v-175q0 -107 -60 -164t-171 -57zM331 77q68 0 101.5 32t33.5 101v176q0 70 -33.5 103.5t-101.5 33.5t-101.5 -33.5t-33.5 -103.5v-176q0 -69 33.5 -101t101.5 -32zM225 700
l124 200h142l-180 -200h-86z" />
    <glyph glyph-name="ocircumflex" unicode="&#xf4;" 
d="M331 -10q-111 0 -171 57t-60 163v176q0 107 60 165.5t172 58.5q110 0 170 -58.5t60 -165.5v-175q0 -107 -60 -164t-171 -57zM331 77q68 0 101.5 32t33.5 101v176q0 70 -33.5 103.5t-101.5 33.5t-101.5 -33.5t-33.5 -103.5v-176q0 -69 33.5 -101t101.5 -32zM171 708
l-39 60l163 148h70l165 -148l-39 -60l-161 114z" />
    <glyph glyph-name="otilde" unicode="&#xf5;" 
d="M331 -10q-111 0 -171 57t-60 163v176q0 107 60 165.5t172 58.5q110 0 170 -58.5t60 -165.5v-175q0 -107 -60 -164t-171 -57zM331 77q68 0 101.5 32t33.5 101v176q0 70 -33.5 103.5t-101.5 33.5t-101.5 -33.5t-33.5 -103.5v-176q0 -69 33.5 -101t101.5 -32zM404 710
q-34 0 -55.5 18t-37.5 40l-29.5 40t-30.5 18q-18 0 -30 -20.5t-11 -74.5v-11h-74v15q0 75 31.5 124.5t90.5 49.5q37 0 59 -18t38 -40l28 -40t28 -18q18 0 30 20.5t12 74.5v11h73v-15q0 -76 -31.5 -125t-90.5 -49z" />
    <glyph glyph-name="odieresis" unicode="&#xf6;" 
d="M331 -10q-111 0 -171 57t-60 163v176q0 107 60 165.5t172 58.5q110 0 170 -58.5t60 -165.5v-175q0 -107 -60 -164t-171 -57zM331 77q68 0 101.5 32t33.5 101v176q0 70 -33.5 103.5t-101.5 33.5t-101.5 -33.5t-33.5 -103.5v-176q0 -69 33.5 -101t101.5 -32zM225 711
q-28 0 -45 12t-17 44v7q0 33 17 45.5t45 12.5t44.5 -12.5t16.5 -45.5v-7q0 -32 -17 -44t-44 -12zM437 711q-28 0 -44.5 12t-16.5 44v7q0 33 16.5 45.5t44.5 12.5t45 -12.5t17 -45.5v-7q0 -32 -17.5 -44t-44.5 -12z" />
    <glyph glyph-name="omacron" unicode="&#x14d;" 
d="M331 -10q-111 0 -171 57t-60 163v176q0 107 60 165.5t172 58.5q110 0 170 -58.5t60 -165.5v-175q0 -107 -60 -164t-171 -57zM331 77q68 0 101.5 32t33.5 101v176q0 70 -33.5 103.5t-101.5 33.5t-101.5 -33.5t-33.5 -103.5v-176q0 -69 33.5 -101t101.5 -32zM146 757v86
h370v-86h-370z" />
    <glyph glyph-name="obreve" unicode="&#x14f;" 
d="M331 -10q-111 0 -171 57t-60 163v176q0 107 60 165.5t172 58.5q110 0 170 -58.5t60 -165.5v-175q0 -107 -60 -164t-171 -57zM331 77q68 0 101.5 32t33.5 101v176q0 70 -33.5 103.5t-101.5 33.5t-101.5 -33.5t-33.5 -103.5v-176q0 -69 33.5 -101t101.5 -32zM332 693
q-94 0 -154 49t-61 159h95q1 -72 30.5 -101.5t89.5 -29.5t89.5 29.5t30.5 101.5h95q-1 -110 -61 -159t-154 -49z" />
    <glyph glyph-name="ohungarumlaut" unicode="&#x151;" 
d="M331 -10q-111 0 -171 57t-60 163v176q0 107 60 165.5t172 58.5q110 0 170 -58.5t60 -165.5v-175q0 -107 -60 -164t-171 -57zM331 77q68 0 101.5 32t33.5 101v176q0 70 -33.5 103.5t-101.5 33.5t-101.5 -33.5t-33.5 -103.5v-176q0 -69 33.5 -101t101.5 -32zM382 700
l51 200h131l-116 -200h-66zM171 700l50 200h132l-116 -200h-66z" />
    <glyph glyph-name="p" unicode="p" 
d="M324 75q73 0 107.5 33.5t34.5 105.5v176q0 66 -26.5 97t-81.5 31q-46 0 -85 -24.5t-77 -76.5v-303q28 -19 59 -29t69 -10zM326 -10q-31 0 -65 7.5t-65 20.5v-218h-96v800h96v-93h28q22 48 65 75.5t96 27.5q83 0 130 -59.5t47 -163.5v-175q0 -103 -63 -162.5t-173 -59.5z
" />
    <glyph glyph-name="q" unicode="q" 
d="M466 -200v293h-28q-24 -50 -66 -76.5t-95 -26.5q-85 0 -131 58t-46 165v175q0 107 67 164.5t171 57.5q61 0 119 -15.5t105 -43.5v-751h-96zM304 82q45 0 85 25t77 76v307q-29 18 -60.5 26.5t-66.5 8.5q-63 0 -103 -34.5t-40 -104.5v-165q0 -70 27 -104.5t81 -34.5z" />
    <glyph glyph-name="r" unicode="r" 
d="M144 0v600h97v-96h27q19 55 59 80.5t96 25.5q63 0 104 -43.5t41 -123.5v-92h-92v57q0 57 -22.5 83.5t-70.5 26.5q-43 0 -78.5 -23t-63.5 -70v-425h-97z" />
    <glyph glyph-name="racute" unicode="&#x155;" 
d="M144 0v600h97v-96h27q19 55 59 80.5t96 25.5q63 0 104 -43.5t41 -123.5v-92h-92v57q0 57 -22.5 83.5t-70.5 26.5q-43 0 -78.5 -23t-63.5 -70v-425h-97zM261 700l124 200h142l-180 -200h-86z" />
    <glyph glyph-name="rcommaaccent" unicode="&#x157;" 
d="M144 0v600h97v-96h27q19 55 59 80.5t96 25.5q63 0 104 -43.5t41 -123.5v-92h-92v57q0 57 -22.5 83.5t-70.5 26.5q-43 0 -78.5 -23t-63.5 -70v-425h-97zM75 -300l87 200h143l-144 -200h-86z" />
    <glyph glyph-name="rcaron" unicode="&#x159;" 
d="M144 0v600h97v-96h27q19 55 59 80.5t96 25.5q63 0 104 -43.5t41 -123.5v-92h-92v57q0 57 -22.5 83.5t-70.5 26.5q-43 0 -78.5 -23t-63.5 -70v-425h-97zM333 704l-165 148l39 60l161 -113l159 113l39 -60l-163 -148h-70z" />
    <glyph glyph-name="s" unicode="s" 
d="M340 -10q-71 0 -137.5 21t-119.5 64l41 77q45 -35 101.5 -55t114.5 -20q52 0 92 17t40 66q0 45 -35 63.5t-128 33.5q-106 17 -157 56.5t-51 118.5q0 87 61.5 132.5t148.5 45.5q65 0 126.5 -23t111.5 -63l-41 -77q-42 33 -92 54.5t-104 21.5q-48 0 -81.5 -19t-33.5 -65
q0 -43 34 -62t128 -34q107 -17 158 -59t51 -116q0 -90 -67.5 -134t-160.5 -44z" />
    <glyph glyph-name="sacute" unicode="&#x15b;" 
d="M340 -10q-71 0 -137.5 21t-119.5 64l41 77q45 -35 101.5 -55t114.5 -20q52 0 92 17t40 66q0 45 -35 63.5t-128 33.5q-106 17 -157 56.5t-51 118.5q0 87 61.5 132.5t148.5 45.5q65 0 126.5 -23t111.5 -63l-41 -77q-42 33 -92 54.5t-104 21.5q-48 0 -81.5 -19t-33.5 -65
q0 -43 34 -62t128 -34q107 -17 158 -59t51 -116q0 -90 -67.5 -134t-160.5 -44zM224 700l124 200h142l-180 -200h-86z" />
    <glyph glyph-name="scircumflex" unicode="&#x15d;" 
d="M340 -10q-71 0 -137.5 21t-119.5 64l41 77q45 -35 101.5 -55t114.5 -20q52 0 92 17t40 66q0 45 -35 63.5t-128 33.5q-106 17 -157 56.5t-51 118.5q0 87 61.5 132.5t148.5 45.5q65 0 126.5 -23t111.5 -63l-41 -77q-42 33 -92 54.5t-104 21.5q-48 0 -81.5 -19t-33.5 -65
q0 -43 34 -62t128 -34q107 -17 158 -59t51 -116q0 -90 -67.5 -134t-160.5 -44zM169 708l-39 60l163 148h70l165 -148l-39 -60l-161 114z" />
    <glyph glyph-name="scedilla" unicode="&#x15f;" 
d="M340 -10q-71 0 -137.5 21t-119.5 64l41 77q45 -35 101.5 -55t114.5 -20q52 0 92 17t40 66q0 45 -35 63.5t-128 33.5q-106 17 -157 56.5t-51 118.5q0 87 61.5 132.5t148.5 45.5q65 0 126.5 -23t111.5 -63l-41 -77q-42 33 -92 54.5t-104 21.5q-48 0 -81.5 -19t-33.5 -65
q0 -43 34 -62t128 -34q107 -17 158 -59t51 -116q0 -90 -67.5 -134t-160.5 -44zM301 0l19 42q46 -9 81.5 -40t35.5 -93q0 -64 -42.5 -94t-94.5 -30q-62 0 -101 23.5t-43 80.5l85 10q1 -19 13.5 -26.5t40.5 -7.5q27 0 41 12.5t14 46.5q0 35 -11 51.5t-38 24.5z" />
    <glyph glyph-name="scaron" unicode="&#x161;" 
d="M340 -10q-71 0 -137.5 21t-119.5 64l41 77q45 -35 101.5 -55t114.5 -20q52 0 92 17t40 66q0 45 -35 63.5t-128 33.5q-106 17 -157 56.5t-51 118.5q0 87 61.5 132.5t148.5 45.5q65 0 126.5 -23t111.5 -63l-41 -77q-42 33 -92 54.5t-104 21.5q-48 0 -81.5 -19t-33.5 -65
q0 -43 34 -62t128 -34q107 -17 158 -59t51 -116q0 -90 -67.5 -134t-160.5 -44zM295 704l-165 148l39 60l161 -113l159 113l39 -60l-163 -148h-70z" />
    <glyph glyph-name="scommaaccent" unicode="&#x219;" 
d="M340 -10q-71 0 -137.5 21t-119.5 64l41 77q45 -35 101.5 -55t114.5 -20q52 0 92 17t40 66q0 45 -35 63.5t-128 33.5q-106 17 -157 56.5t-51 118.5q0 87 61.5 132.5t148.5 45.5q65 0 126.5 -23t111.5 -63l-41 -77q-42 33 -92 54.5t-104 21.5q-48 0 -81.5 -19t-33.5 -65
q0 -43 34 -62t128 -34q107 -17 158 -59t51 -116q0 -90 -67.5 -134t-160.5 -44zM188 -300l87 200h143l-144 -200h-86z" />
    <glyph glyph-name="t" unicode="t" 
d="M427 -9q-93 0 -145 50t-52 146v326h-154v87h154v200h97v-200h236v-87h-236v-316q0 -57 26.5 -85.5t77.5 -28.5q34 0 64.5 5t57.5 15l19 -89q-29 -10 -65.5 -16.5t-79.5 -6.5z" />
    <glyph glyph-name="tcedilla" unicode="&#x163;" 
d="M427 -9q-93 0 -145 50t-52 146v326h-154v87h154v200h97v-200h236v-87h-236v-316q0 -57 26.5 -85.5t77.5 -28.5q34 0 64.5 5t57.5 15l19 -89q-29 -10 -65.5 -16.5t-79.5 -6.5zM362 0l19 42q46 -9 81.5 -40t35.5 -93q0 -64 -42.5 -94t-94.5 -30q-62 0 -101 23.5t-43 80.5
l85 10q1 -19 13.5 -26.5t40.5 -7.5q27 0 41 12.5t14 46.5q0 35 -11 51.5t-38 24.5z" />
    <glyph glyph-name="tcaron" unicode="&#x165;" 
d="M427 -9q-93 0 -145 50t-52 146v326h-154v87h154v200h97v-200h236v-87h-236v-316q0 -57 26.5 -85.5t77.5 -28.5q34 0 64.5 5t57.5 15l19 -89q-29 -10 -65.5 -16.5t-79.5 -6.5zM413 705l73 295h140l-144 -295h-69z" />
    <glyph glyph-name="tcommaaccent" unicode="&#x21b;" 
d="M427 -9q-93 0 -145 50t-52 146v326h-154v87h154v200h97v-200h236v-87h-236v-316q0 -57 26.5 -85.5t77.5 -28.5q34 0 64.5 5t57.5 15l19 -89q-29 -10 -65.5 -16.5t-79.5 -6.5zM208 -300l87 200h143l-144 -200h-86z" />
    <glyph glyph-name="u" unicode="u" 
d="M276 -10q-80 0 -128 55t-48 145v410h96v-392q0 -63 26 -94.5t80 -31.5q43 0 84 24.5t80 74.5v419h96v-600h-96v93h-28q-18 -46 -62.5 -74.5t-99.5 -28.5z" />
    <glyph glyph-name="ugrave" unicode="&#xf9;" 
d="M276 -10q-80 0 -128 55t-48 145v410h96v-392q0 -63 26 -94.5t80 -31.5q43 0 84 24.5t80 74.5v419h96v-600h-96v93h-28q-18 -46 -62.5 -74.5t-99.5 -28.5zM305 700l-181 200h143l123 -200h-85z" />
    <glyph glyph-name="uacute" unicode="&#xfa;" 
d="M276 -10q-80 0 -128 55t-48 145v410h96v-392q0 -63 26 -94.5t80 -31.5q43 0 84 24.5t80 74.5v419h96v-600h-96v93h-28q-18 -46 -62.5 -74.5t-99.5 -28.5zM262 700l124 200h142l-180 -200h-86z" />
    <glyph glyph-name="ucircumflex" unicode="&#xfb;" 
d="M276 -10q-80 0 -128 55t-48 145v410h96v-392q0 -63 26 -94.5t80 -31.5q43 0 84 24.5t80 74.5v419h96v-600h-96v93h-28q-18 -46 -62.5 -74.5t-99.5 -28.5zM172 708l-39 60l163 148h70l165 -148l-39 -60l-161 114z" />
    <glyph glyph-name="udieresis" unicode="&#xfc;" 
d="M276 -10q-80 0 -128 55t-48 145v410h96v-392q0 -63 26 -94.5t80 -31.5q43 0 84 24.5t80 74.5v419h96v-600h-96v93h-28q-18 -46 -62.5 -74.5t-99.5 -28.5zM226 711q-28 0 -45 12t-17 44v7q0 33 17 45.5t45 12.5t44.5 -12.5t16.5 -45.5v-7q0 -32 -17 -44t-44 -12zM438 711
q-28 0 -44.5 12t-16.5 44v7q0 33 16.5 45.5t44.5 12.5t45 -12.5t17 -45.5v-7q0 -32 -17.5 -44t-44.5 -12z" />
    <glyph glyph-name="utilde" unicode="&#x169;" 
d="M276 -10q-80 0 -128 55t-48 145v410h96v-392q0 -63 26 -94.5t80 -31.5q43 0 84 24.5t80 74.5v419h96v-600h-96v93h-28q-18 -46 -62.5 -74.5t-99.5 -28.5zM404 710q-34 0 -55.5 18t-37.5 40l-29.5 40t-30.5 18q-18 0 -30 -20.5t-11 -74.5v-11h-74v15q0 75 31.5 124.5
t90.5 49.5q37 0 59 -18t38 -40l28 -40t28 -18q18 0 30 20.5t12 74.5v11h73v-15q0 -76 -31.5 -125t-90.5 -49z" />
    <glyph glyph-name="umacron" unicode="&#x16b;" 
d="M276 -10q-80 0 -128 55t-48 145v410h96v-392q0 -63 26 -94.5t80 -31.5q43 0 84 24.5t80 74.5v419h96v-600h-96v93h-28q-18 -46 -62.5 -74.5t-99.5 -28.5zM146 757v86h370v-86h-370z" />
    <glyph glyph-name="ubreve" unicode="&#x16d;" 
d="M276 -10q-80 0 -128 55t-48 145v410h96v-392q0 -63 26 -94.5t80 -31.5q43 0 84 24.5t80 74.5v419h96v-600h-96v93h-28q-18 -46 -62.5 -74.5t-99.5 -28.5zM332 693q-94 0 -154 49t-61 159h95q1 -72 30.5 -101.5t89.5 -29.5t89.5 29.5t30.5 101.5h95q-1 -110 -61 -159
t-154 -49z" />
    <glyph glyph-name="uring" unicode="&#x16f;" 
d="M276 -10q-80 0 -128 55t-48 145v410h96v-392q0 -63 26 -94.5t80 -31.5q43 0 84 24.5t80 74.5v419h96v-600h-96v93h-28q-18 -46 -62.5 -74.5t-99.5 -28.5zM332 686q-67 0 -108 35t-41 109v32q0 75 41 111t108 36t108 -36t41 -111v-32q0 -74 -41 -109t-108 -35zM332 755
q37 0 56 17.5t19 57.5v32q0 40 -19 59t-56 19t-56 -19t-19 -59v-32q0 -40 19 -57.5t56 -17.5z" />
    <glyph glyph-name="uhungarumlaut" unicode="&#x171;" 
d="M276 -10q-80 0 -128 55t-48 145v410h96v-392q0 -63 26 -94.5t80 -31.5q43 0 84 24.5t80 74.5v419h96v-600h-96v93h-28q-18 -46 -62.5 -74.5t-99.5 -28.5zM400 700l51 200h131l-116 -200h-66zM189 700l50 200h132l-116 -200h-66z" />
    <glyph glyph-name="uogonek" unicode="&#x173;" 
d="M544 -215q-59 0 -99 32t-40 87q0 48 35.5 85.5t78.5 55.5l25 -22q-31 -21 -42.5 -46.5t-11.5 -45.5q0 -28 17.5 -42.5t48.5 -14.5q16 0 41 3t41 7v-89q-19 -4 -45.5 -7t-48.5 -3zM276 -10q-80 0 -128 55t-48 145v410h96v-392q0 -63 26 -94.5t80 -31.5q43 0 84 24.5
t80 74.5v419h96v-600h-96v93h-28q-18 -46 -62.5 -74.5t-99.5 -28.5z" />
    <glyph glyph-name="v" unicode="v" 
d="M392 0h-122l-194 600h104l152 -519l152 519h101z" />
    <glyph glyph-name="w" unicode="w" 
d="M411 0l-80 392l-77 -392h-107l-103 600h92l68 -523l71 424h108l78 -408l65 507h92l-103 -600h-104z" />
    <glyph glyph-name="wcircumflex" unicode="&#x175;" 
d="M411 0l-80 392l-77 -392h-107l-103 600h92l68 -523l71 424h108l78 -408l65 507h92l-103 -600h-104zM172 708l-39 60l163 148h70l165 -148l-39 -60l-161 114z" />
    <glyph glyph-name="wgrave" unicode="&#x1e81;" 
d="M411 0l-80 392l-77 -392h-107l-103 600h92l68 -523l71 424h108l78 -408l65 507h92l-103 -600h-104zM331 700l-181 200h143l123 -200h-85z" />
    <glyph glyph-name="wacute" unicode="&#x1e83;" 
d="M411 0l-80 392l-77 -392h-107l-103 600h92l68 -523l71 424h108l78 -408l65 507h92l-103 -600h-104zM228 700l124 200h142l-180 -200h-86z" />
    <glyph glyph-name="wdieresis" unicode="&#x1e85;" 
d="M411 0l-80 392l-77 -392h-107l-103 600h92l68 -523l71 424h108l78 -408l65 507h92l-103 -600h-104zM226 711q-28 0 -45 12t-17 44v7q0 33 17 45.5t45 12.5t44.5 -12.5t16.5 -45.5v-7q0 -32 -17 -44t-44 -12zM438 711q-28 0 -44.5 12t-16.5 44v7q0 33 16.5 45.5t44.5 12.5
t45 -12.5t17 -45.5v-7q0 -32 -17.5 -44t-44.5 -12z" />
    <glyph glyph-name="x" unicode="x" 
d="M466 0l-141 225l-133 -225h-107l193 301l-186 299h108l134 -216l135 216h107l-194 -294l191 -306h-107z" />
    <glyph glyph-name="y" unicode="y" 
d="M172 -206q-22 0 -45 3t-48 8l16 87q25 -6 45.5 -9t38.5 -3q46 0 77 25.5t49 82.5l3 10h-40l-193 602h105l153 -519l152 519h101l-197 -621q-31 -100 -86.5 -142.5t-130.5 -42.5z" />
    <glyph glyph-name="yacute" unicode="&#xfd;" 
d="M172 -206q-22 0 -45 3t-48 8l16 87q25 -6 45.5 -9t38.5 -3q46 0 77 25.5t49 82.5l3 10h-40l-193 602h105l153 -519l152 519h101l-197 -621q-31 -100 -86.5 -142.5t-130.5 -42.5zM225 700l124 200h142l-180 -200h-86z" />
    <glyph glyph-name="ydieresis" unicode="&#xff;" 
d="M172 -206q-22 0 -45 3t-48 8l16 87q25 -6 45.5 -9t38.5 -3q46 0 77 25.5t49 82.5l3 10h-40l-193 602h105l153 -519l152 519h101l-197 -621q-31 -100 -86.5 -142.5t-130.5 -42.5zM225 711q-28 0 -45 12t-17 44v7q0 33 17 45.5t45 12.5t44.5 -12.5t16.5 -45.5v-7
q0 -32 -17 -44t-44 -12zM437 711q-28 0 -44.5 12t-16.5 44v7q0 33 16.5 45.5t44.5 12.5t45 -12.5t17 -45.5v-7q0 -32 -17.5 -44t-44.5 -12z" />
    <glyph glyph-name="ycircumflex" unicode="&#x177;" 
d="M172 -206q-22 0 -45 3t-48 8l16 87q25 -6 45.5 -9t38.5 -3q46 0 77 25.5t49 82.5l3 10h-40l-193 602h105l153 -519l152 519h101l-197 -621q-31 -100 -86.5 -142.5t-130.5 -42.5zM171 708l-39 60l163 148h70l165 -148l-39 -60l-161 114z" />
    <glyph glyph-name="ygrave" unicode="&#x1ef3;" 
d="M172 -206q-22 0 -45 3t-48 8l16 87q25 -6 45.5 -9t38.5 -3q46 0 77 25.5t49 82.5l3 10h-40l-193 602h105l153 -519l152 519h101l-197 -621q-31 -100 -86.5 -142.5t-130.5 -42.5zM331 700l-181 200h143l123 -200h-85z" />
    <glyph glyph-name="z" unicode="z" 
d="M545 0h-428v87l314 426h-314v87h428v-87l-311 -426h311v-87z" />
    <glyph glyph-name="zacute" unicode="&#x17a;" 
d="M545 0h-428v87l314 426h-314v87h428v-87l-311 -426h311v-87zM228 700l124 200h142l-180 -200h-86z" />
    <glyph glyph-name="zdotaccent" unicode="&#x17c;" 
d="M545 0h-428v87l314 426h-314v87h428v-87l-311 -426h311v-87zM334 711q-36 0 -58 12t-22 44v7q0 33 22 45.5t58 12.5t58 -12.5t22 -45.5v-7q0 -32 -22.5 -44t-57.5 -12z" />
    <glyph glyph-name="zcaron" unicode="&#x17e;" 
d="M545 0h-428v87l314 426h-314v87h428v-87l-311 -426h311v-87zM296 704l-165 148l39 60l161 -113l159 113l39 -60l-163 -148h-70z" />
    <glyph glyph-name="ordfeminine" unicode="&#xaa;" 
d="M276 396q35 0 65 16t53 54v56h-124q-34 0 -56 -13.5t-22 -48.5q0 -31 19 -47.5t65 -16.5zM257 323q-61 0 -104.5 32.5t-43.5 100.5q0 60 40.5 95.5t97.5 35.5h147v61q0 39 -22.5 64.5t-69.5 25.5t-71.5 -15t-38.5 -69l-73 21q13 66 55.5 100.5t125.5 34.5q77 0 127 -37.5
t50 -114.5v-194q0 -45 19 -55.5t68 -3.5v-77q-57 -4 -93 11t-40 76h-16q-21 -39 -63 -65.5t-95 -26.5z" />
    <glyph glyph-name="ordmasculine" unicode="&#xba;" 
d="M331 323q-91 0 -145 45.5t-54 135.5v120q0 92 54 139t145 47t144.5 -47t53.5 -139v-120q0 -90 -54 -135.5t-144 -45.5zM331 398q58 0 86.5 24.5t28.5 81.5v120q0 57 -28.5 83.5t-86.5 26.5t-87 -26.5t-29 -83.5v-120q0 -57 29 -81.5t87 -24.5z" />
    <glyph glyph-name="germandbls" unicode="&#xdf;" 
d="M433 -6q-60 0 -114 22.5t-91 65.5l50 78q32 -32 72.5 -55.5t85.5 -23.5q43 0 73 19t30 64q0 46 -27.5 65t-90.5 34q-96 22 -140 62.5t-44 107.5q0 78 55.5 124t139.5 49q-8 59 -46 85t-95 26t-98 -36t-41 -114v-567h-97v580q0 113 69 170.5t168 57.5q107 0 172 -63.5
t65 -164.5v-45q-92 0 -144.5 -20t-52.5 -73q0 -42 34 -59t105 -33q85 -19 124 -61.5t39 -115.5q0 -92 -60 -135.5t-141 -43.5z" />
    <glyph glyph-name="ae" unicode="&#xe6;" 
d="M626 144q-10 -79 -48 -116.5t-113 -37.5q-51 0 -88 22t-55 68h-15q-21 -40 -52 -65t-82 -25q-52 0 -94 42t-42 129q0 79 43 124t102 45h111v88q0 52 -21 83.5t-63 31.5q-37 0 -53 -18t-32 -79l-75 24q13 74 51.5 112t113.5 38q39 0 70 -16.5t50 -50.5q20 34 51.5 50.5
t71.5 16.5q76 0 122 -49t46 -152v-128h-255v-100q0 -63 21 -91t64 -28t61.5 18.5t25.5 70.5zM370 415v-71h170v62q0 69 -21 100t-64 31q-41 0 -63 -29.5t-22 -92.5zM293 139v127h-85q-37 0 -61 -21.5t-24 -77.5q0 -49 16 -76t54 -27q31 0 54.5 20.5t45.5 54.5z" />
    <glyph glyph-name="aeacute" unicode="&#x1fd;" 
d="M626 144q-10 -79 -48 -116.5t-113 -37.5q-51 0 -88 22t-55 68h-15q-21 -40 -52 -65t-82 -25q-52 0 -94 42t-42 129q0 79 43 124t102 45h111v88q0 52 -21 83.5t-63 31.5q-37 0 -53 -18t-32 -79l-75 24q13 74 51.5 112t113.5 38q39 0 70 -16.5t50 -50.5q20 34 51.5 50.5
t71.5 16.5q76 0 122 -49t46 -152v-128h-255v-100q0 -63 21 -91t64 -28t61.5 18.5t25.5 70.5zM370 415v-71h170v62q0 69 -21 100t-64 31q-41 0 -63 -29.5t-22 -92.5zM293 139v127h-85q-37 0 -61 -21.5t-24 -77.5q0 -49 16 -76t54 -27q31 0 54.5 20.5t45.5 54.5zM274 700
l124 200h142l-180 -200h-86z" />
    <glyph glyph-name="eth" unicode="&#xf0;" 
d="M331 -10q-104 0 -168 56t-64 170v80q0 94 58 149t151 55q57 0 94.5 -22t51.5 -52h20q-4 63 -18.5 113.5t-42.5 87.5l-176 -86v78l123 61q-31 24 -71.5 42.5t-91.5 32.5l29 66q68 -20 120.5 -45.5t90.5 -57.5l167 81v-78l-116 -57q40 -54 57.5 -124.5t17.5 -161.5v-156
q0 -121 -64 -176.5t-168 -55.5zM332 77q73 0 103.5 34.5t30.5 103.5v69q0 64 -30.5 96t-103.5 32t-103.5 -32t-30.5 -96v-69q0 -69 30.5 -103.5t103.5 -34.5z" />
    <glyph glyph-name="oslash" unicode="&#xf8;" 
d="M195 210q0 -28 5.5 -49t15.5 -37l176 390q-13 4 -28.5 6t-32.5 2q-70 0 -103 -32.5t-33 -103.5v-176zM331 78q70 0 103 31.5t33 100.5v176q0 28 -5.5 49.5t-15.5 37.5l-176 -387q13 -4 28.5 -6t32.5 -2zM331 -10q-24 0 -46.5 3t-43.5 9l-47 -102h-93l66 140
q-32 27 -50 70t-18 100v176q0 113 64.5 168.5t168.5 55.5q25 0 47 -3t42 -9l47 102h93l-66 -141q32 -28 50 -71t18 -102v-176q0 -112 -64 -166t-168 -54z" />
    <glyph glyph-name="oslashacute" unicode="&#x1ff;" 
d="M195 210q0 -28 5.5 -49t15.5 -37l176 390q-13 4 -28.5 6t-32.5 2q-70 0 -103 -32.5t-33 -103.5v-176zM331 78q70 0 103 31.5t33 100.5v176q0 28 -5.5 49.5t-15.5 37.5l-176 -387q13 -4 28.5 -6t32.5 -2zM331 -10q-24 0 -46.5 3t-43.5 9l-47 -102h-93l66 140
q-32 27 -50 70t-18 100v176q0 113 64.5 168.5t168.5 55.5q25 0 47 -3t42 -9l47 102h93l-66 -141q32 -28 50 -71t18 -102v-176q0 -112 -64 -166t-168 -54zM228 700l124 200h142l-180 -200h-86z" />
    <glyph glyph-name="thorn" unicode="&#xfe;" 
d="M324 75q73 0 107.5 33.5t34.5 105.5v176q0 66 -26 97t-82 31q-46 0 -85.5 -24.5t-76.5 -76.5v-303q30 -20 60.5 -29.5t67.5 -9.5zM326 -10q-32 0 -67 7.5t-63 20.5v-218h-96v1000h96v-293h28q22 49 65 76t96 27q83 0 130 -59.5t47 -163.5v-175q0 -104 -63 -163t-173 -59z
" />
    <glyph glyph-name="dcroat" unicode="&#x111;" 
d="M304 82q46 0 85.5 25t76.5 76v254q-28 19 -59.5 29t-68.5 10q-72 0 -106 -34t-34 -105v-116q0 -71 26 -105t80 -34zM438 93q-22 -49 -65 -76t-96 -27q-83 0 -130 59.5t-47 163.5v126q0 104 63 163t173 59q32 0 65.5 -8t64.5 -21v100h-182v79h182v89h96v-89h92v-79h-92
v-632h-96v93h-28z" />
    <glyph glyph-name="hbar" unicode="&#x127;" 
d="M196 366v-366h-96v632h-92v79h92v89h96v-89h182v-79h-182v-177h28q19 49 65 77.5t104 28.5q78 0 123.5 -48.5t45.5 -130.5v-382h-96v360q0 54 -26 81.5t-80 27.5q-43 0 -83.5 -25.5t-80.5 -77.5z" />
    <glyph glyph-name="dotlessi" unicode="&#x131;" 
d="M100 0v87h183v426h-183v87h280v-513h182v-87h-462z" />
    <glyph glyph-name="ij" unicode="&#x133;" 
d="M165 711q-36 0 -58 12t-22 44v7q0 33 22 45.5t58 12.5t57.5 -12.5t21.5 -45.5v-7q0 -32 -22 -44t-57 -12zM512 711q-36 0 -58 12t-22 44v7q0 33 22 45.5t58 12.5t58 -12.5t22 -45.5v-7q0 -32 -22.5 -44t-57.5 -12zM213 0h-96v600h96v-600zM358 -208q-31 0 -61.5 5
t-65.5 17l18 94q30 -12 55 -17t50 -5q51 0 82 28t31 93v506h-119v87h215v-606q0 -103 -59 -152.5t-146 -49.5z" />
    <glyph glyph-name="kgreenlandic" unicode="&#x138;" 
d="M240 274v-274h-97v600h97v-244h46l175 244h116l-215 -279l212 -321h-110l-178 274h-46z" />
    <glyph glyph-name="ldot" unicode="&#x140;" 
d="M101 0v87h183v626h-183v87h280v-713h182v-87h-462zM626 309q-36 0 -58 12t-22 44v7q0 33 22 45.5t58 12.5t58 -12.5t22 -45.5v-7q0 -32 -22.5 -44t-57.5 -12z" />
    <glyph glyph-name="lslash" unicode="&#x142;" 
d="M101 0v87h183v266l-139 -41v77l139 41v283h-183v87h280v-341l134 40v-78l-134 -40v-294h182v-87h-462z" />
    <glyph glyph-name="napostrophe" unicode="&#x149;" 
d="M100 0v600h96v-93h28q22 48 65.5 75.5t97.5 27.5q81 0 128 -53.5t47 -146.5v-410h-96v391q0 63 -27.5 95t-78.5 32q-42 0 -84 -25.5t-80 -74.5v-418h-96zM-4 700l124 200h142l-180 -200h-86z" />
    <glyph glyph-name="eng" unicode="&#x14b;" 
d="M375 -208q-27 0 -56.5 6t-60.5 16l18 94q26 -10 50 -16t45 -6q43 0 69 26.5t26 87.5v404q0 57 -26.5 85.5t-79.5 28.5q-43 0 -83.5 -25t-80.5 -75v-418h-96v600h96v-93h28q22 48 67 75.5t101 27.5q79 0 124.5 -49.5t45.5 -134.5v-439q0 -99 -53.5 -147t-133.5 -48z" />
    <glyph glyph-name="oe" unicode="&#x153;" 
d="M625 133q-9 -73 -46.5 -108t-113.5 -35q-48 0 -83 18.5t-54 56.5q-22 -38 -55 -56.5t-75 -18.5q-72 0 -116 54.5t-44 167.5v172q0 114 44.5 170t116.5 56q42 0 75 -18.5t53 -56.5q19 38 52.5 56.5t76.5 18.5q76 0 122 -48t46 -149v-132h-254v-105q0 -60 20.5 -87
t63.5 -27q44 0 62.5 16t25.5 62zM370 419v-75h168v66q0 66 -20.5 96.5t-63.5 30.5q-42 0 -63 -29t-21 -89zM208 67q43 0 63.5 33.5t20.5 111.5v172q0 77 -20.5 113t-63.5 36q-42 0 -63 -36t-21 -113v-172q0 -78 21 -111.5t63 -33.5z" />
    <glyph glyph-name="tbar" unicode="&#x167;" 
d="M427 -9q-93 0 -145 50t-52 146v95h-121v88h121v143h-154v87h154v200h97v-200h236v-87h-236v-143h207v-88h-207v-85q0 -57 26.5 -85.5t77.5 -28.5q34 0 64.5 5t57.5 15l19 -89q-29 -10 -65.5 -16.5t-79.5 -6.5z" />
    <glyph glyph-name="longs" unicode="&#x17f;" 
d="M283 0v513h-111v87h111v40q0 80 49 124t121 44q26 0 59.5 -8t58.5 -18l-18 -81q-22 8 -45 14t-45 6q-39 0 -61 -19.5t-22 -59.5v-642h-97z" />
    <glyph glyph-name="dotlessj" unicode="&#xf6be;" 
d="M245 -208q-35 0 -70 4.5t-75 17.5l18 94q34 -13 64 -17.5t59 -4.5q60 0 96.5 28t36.5 93v506h-256v87h353v-606q0 -103 -65 -152.5t-161 -49.5z" />
    <glyph glyph-name="dotlessj" unicode="&#x237;" 
d="M245 -208q-35 0 -70 4.5t-75 17.5l18 94q34 -13 64 -17.5t59 -4.5q60 0 96.5 28t36.5 93v506h-256v87h353v-606q0 -103 -65 -152.5t-161 -49.5z" />
    <glyph glyph-name="alpha" unicode="&#x3b1;" 
d="M286 82q43 0 79 25t72 76v234q-36 51 -72 76t-79 25q-49 0 -72.5 -35t-23.5 -104v-157q0 -70 24 -105t72 -35zM458 102h-27q-24 -54 -68.5 -83t-102.5 -29q-77 0 -123 58t-46 165v175q0 106 46.5 164t122.5 58q51 0 89.5 -27t60.5 -76h27v93h97v-443q0 -52 22.5 -66
t68.5 -5v-89q-75 -10 -118 14t-49 91z" />
    <glyph glyph-name="alphatonos" unicode="&#x3ac;" 
d="M286 82q43 0 79 25t72 76v234q-36 51 -72 76t-79 25q-49 0 -72.5 -35t-23.5 -104v-157q0 -70 24 -105t72 -35zM458 102h-27q-24 -54 -68.5 -83t-102.5 -29q-77 0 -123 58t-46 165v175q0 106 46.5 164t122.5 58q51 0 89.5 -27t60.5 -76h27v93h97v-443q0 -52 22.5 -66
t68.5 -5v-89q-75 -10 -118 14t-49 91zM309 700l68 200h134l-126 -200h-76z" />
    <glyph glyph-name="beta" unicode="&#x3b2;" 
d="M323 75q72 0 106.5 35t34.5 110v43q0 61 -34 90.5t-103 29.5h-45v86h39q60 0 88.5 27t28.5 82v18q0 65 -30 96t-91 31q-62 0 -91.5 -34t-29.5 -105v-471q28 -19 59 -28.5t68 -9.5zM326 -10q-35 0 -68.5 8t-61.5 21v-219h-96v780q0 117 60.5 173.5t156.5 56.5
q95 0 155.5 -51.5t60.5 -145.5v-27q0 -53 -24 -90.5t-78 -47.5v-29q61 -7 95.5 -48.5t35.5 -98.5v-52q0 -119 -71.5 -174.5t-164.5 -55.5z" />
    <glyph glyph-name="gamma" unicode="&#x3b3;" 
d="M389 -200h-116l10 220l-208 580h106l153 -456l151 456h101l-206 -580z" />
    <glyph glyph-name="delta" unicode="&#x3b4;" 
d="M331 -10q-104 0 -168 55t-64 169v98q0 61 35 106t95 72q-55 27 -78.5 60.5t-23.5 85.5q0 84 50.5 124t150.5 40h171v-87h-171q-57 0 -84 -15t-27 -59q0 -35 28.5 -54.5t136.5 -55.5q101 -34 141 -79.5t40 -126.5v-109q0 -114 -64 -169t-168 -55zM331 77q67 0 101 32
t34 105v109q0 54 -37.5 83.5t-136.5 57.5q-45 -21 -70.5 -59t-25.5 -93v-98q0 -73 34 -105t101 -32z" />
    <glyph glyph-name="epsilon" unicode="&#x3b5;" 
d="M335 -10q-128 0 -190 43.5t-62 134.5v9q0 51 35.5 89.5t107.5 43.5v22q-59 4 -92.5 31.5t-33.5 75.5v13q0 81 57.5 119.5t177.5 38.5q110 0 165.5 -43t62.5 -136l-95 -8q-6 57 -36.5 79.5t-96.5 22.5q-75 0 -106.5 -18t-31.5 -60v-14q0 -37 30 -53t101 -16h52v-79h-52
q-80 0 -114 -22.5t-34 -75.5v-10q0 -55 35.5 -78.5t119.5 -23.5q75 0 109 25t41 88l95 -7q-7 -101 -65.5 -146t-179.5 -45z" />
    <glyph glyph-name="epsilontonos" unicode="&#x3ad;" 
d="M335 -10q-128 0 -190 43.5t-62 134.5v9q0 51 35.5 89.5t107.5 43.5v22q-59 4 -92.5 31.5t-33.5 75.5v13q0 81 57.5 119.5t177.5 38.5q110 0 165.5 -43t62.5 -136l-95 -8q-6 57 -36.5 79.5t-96.5 22.5q-75 0 -106.5 -18t-31.5 -60v-14q0 -37 30 -53t101 -16h52v-79h-52
q-80 0 -114 -22.5t-34 -75.5v-10q0 -55 35.5 -78.5t119.5 -23.5q75 0 109 25t41 88l95 -7q-7 -101 -65.5 -146t-179.5 -45zM263 700l68 200h134l-126 -200h-76z" />
    <glyph glyph-name="zeta" unicode="&#x3b6;" 
d="M385 -200h-103v88h116q34 0 53.5 12.5t19.5 52.5t-19.5 53t-53.5 13h-77q-113 0 -170 66.5t-57 159.5q0 63 24 119.5t61 100.5l137 163l-6 14q-99 -10 -155.5 38.5t-74.5 128.5l82 16q13 -66 71 -91t142 -1l179 88l38 -108l-144 -47l-189 -237q-29 -37 -48.5 -81
t-19.5 -96q0 -66 32.5 -105.5t97.5 -39.5h78q75 0 119.5 -36.5t44.5 -117.5q0 -74 -48.5 -113.5t-129.5 -39.5z" />
    <glyph glyph-name="eta" unicode="&#x3b7;" 
d="M466 -200v604q0 57 -26.5 85.5t-79.5 28.5q-43 0 -83.5 -25t-80.5 -75v-418h-96v600h96v-93h28q22 47 67 75t101 28q78 0 124 -50t46 -134v-626h-96z" />
    <glyph glyph-name="etatonos" unicode="&#x3ae;" 
d="M466 -200v604q0 57 -26.5 85.5t-79.5 28.5q-43 0 -83.5 -25t-80.5 -75v-418h-96v600h96v-93h28q22 47 67 75t101 28q78 0 124 -50t46 -134v-626h-96zM266 700l68 200h134l-126 -200h-76z" />
    <glyph glyph-name="theta" unicode="&#x3b8;" 
d="M331 -10q-106 0 -168.5 56.5t-62.5 170.5v362q0 116 62.5 173.5t169.5 57.5q106 0 168 -57.5t62 -173.5v-362q0 -114 -62.5 -170.5t-168.5 -56.5zM196 579v-130h270v130q0 73 -33 108.5t-102 35.5t-102 -35t-33 -109zM331 77q69 0 102 33.5t33 105.5v145h-270v-145
q0 -72 33 -105.5t102 -33.5z" />
    <glyph glyph-name="iota" unicode="&#x3b9;" 
d="M464 -5q-85 0 -133.5 51t-48.5 141v326h-199v87h296v-416q0 -50 22 -75.5t68 -25.5q20 0 47 5t44 14l19 -84q-22 -11 -52 -17t-63 -6z" />
    <glyph glyph-name="iotadieresistonos" unicode="&#x390;" 
d="M464 -5q-85 0 -133.5 51t-48.5 141v326h-199v87h296v-416q0 -50 22 -75.5t68 -25.5q20 0 47 5t44 14l19 -84q-22 -11 -52 -17t-63 -6zM262 700l42 200h113l-96 -200h-59zM159 701q-23 0 -37.5 11.5t-14.5 44.5v6q0 33 14.5 45.5t37.5 12.5t37.5 -12.5t14.5 -45.5v-6
q0 -33 -15 -44.5t-37 -11.5zM485 701q-23 0 -37.5 11.5t-14.5 44.5v6q0 33 14.5 45.5t37.5 12.5t37.5 -12.5t14.5 -45.5v-6q0 -33 -15 -44.5t-37 -11.5z" />
    <glyph glyph-name="iotatonos" unicode="&#x3af;" 
d="M464 -5q-85 0 -133.5 51t-48.5 141v326h-199v87h296v-416q0 -50 22 -75.5t68 -25.5q20 0 47 5t44 14l19 -84q-22 -11 -52 -17t-63 -6zM258 700l68 200h134l-126 -200h-76z" />
    <glyph glyph-name="iotadieresis" unicode="&#x3ca;" 
d="M464 -5q-85 0 -133.5 51t-48.5 141v326h-199v87h296v-416q0 -50 22 -75.5t68 -25.5q20 0 47 5t44 14l19 -84q-22 -11 -52 -17t-63 -6zM221 711q-28 0 -45 12t-17 44v7q0 33 17 45.5t45 12.5t44.5 -12.5t16.5 -45.5v-7q0 -32 -17 -44t-44 -12zM433 711q-28 0 -44.5 12
t-16.5 44v7q0 33 16.5 45.5t44.5 12.5t45 -12.5t17 -45.5v-7q0 -32 -17.5 -44t-44.5 -12z" />
    <glyph glyph-name="kappa" unicode="&#x3ba;" 
d="M240 274v-274h-97v600h97v-244h46l175 244h116l-215 -279l212 -321h-110l-178 274h-46z" />
    <glyph glyph-name="lambda" unicode="&#x3bb;" 
d="M481 0l-152 518l-152 -518h-102l192 605h36l-6 21q-13 46 -39.5 70t-75.5 24q-17 0 -39 -3t-47 -9l-16 86q25 5 48.5 8t45.5 3q71 0 122.5 -33t76.5 -110l213 -662h-105z" />
    <glyph glyph-name="mu" unicode="&#x3bc;" 
d="M197 20l9 -220h-115l9 220v580h97v-406q0 -60 30.5 -86t74.5 -26q40 0 70 20t57 56v442h97v-443q0 -53 22 -67t68 -4v-89q-67 -11 -103 15t-41 89h-19q-24 -48 -63 -79.5t-96 -31.5q-29 0 -53.5 12t-43.5 36v-18z" />
    <glyph glyph-name="nu" unicode="&#x3bd;" 
d="M381 0h-101l-205 600h101l167 -527q64 131 101 266t47 261h95q-17 -169 -73.5 -320t-131.5 -280z" />
    <glyph glyph-name="xi" unicode="&#x3be;" 
d="M580 -47q0 -74 -48 -113.5t-130 -39.5h-101v88h114q34 0 53.5 12.5t19.5 52.5t-19.5 53t-53.5 13h-95q-101 0 -160.5 50.5t-59.5 136.5v27q0 62 40.5 108.5t121.5 53.5v23q-52 0 -79.5 30.5t-27.5 76.5q0 37 18.5 66t58.5 46v23q-82 5 -130 44.5t-64 104.5l82 16
q13 -49 76 -72t147 -11l185 79l38 -108l-198 -54l-46 -29q-37 -24 -53.5 -49t-16.5 -55q0 -43 20 -60t51 -17h174v-88h-173q-67 0 -97 -33t-30 -80v-27q0 -51 30.5 -82.5t96.5 -31.5h92q75 0 119.5 -36.5t44.5 -117.5z" />
    <glyph glyph-name="omicron" unicode="&#x3bf;" 
d="M331 -10q-111 0 -171 57t-60 163v176q0 107 60 165.5t172 58.5q110 0 170 -58.5t60 -165.5v-175q0 -107 -60 -164t-171 -57zM331 77q68 0 101.5 32t33.5 101v176q0 70 -33.5 103.5t-101.5 33.5t-101.5 -33.5t-33.5 -103.5v-176q0 -69 33.5 -101t101.5 -32z" />
    <glyph glyph-name="omicrontonos" unicode="&#x3cc;" 
d="M331 -10q-111 0 -171 57t-60 163v176q0 107 60 165.5t172 58.5q110 0 170 -58.5t60 -165.5v-175q0 -107 -60 -164t-171 -57zM331 77q68 0 101.5 32t33.5 101v176q0 70 -33.5 103.5t-101.5 33.5t-101.5 -33.5t-33.5 -103.5v-176q0 -69 33.5 -101t101.5 -32zM262 700
l68 200h134l-126 -200h-76z" />
    <glyph glyph-name="pi" unicode="&#x3c0;" 
d="M589 600v-87h-108v-356q0 -51 22.5 -65.5t86.5 -5.5v-89q-106 -10 -155.5 19t-49.5 101v396h-154v-513h-96v513h-90v87h544z" />
    <glyph glyph-name="rho" unicode="&#x3c1;" 
d="M358 82q54 0 81 34.5t27 104.5v165q0 69 -34 103t-101 34t-101 -34t-34 -103v-203q37 -51 77 -76t85 -25zM100 -200v586q0 112 63 168t169 56q105 0 167.5 -56t62.5 -168v-174q0 -107 -49 -164.5t-130 -57.5q-54 0 -95.5 27t-63.5 76h-28v-293h-96z" />
    <glyph glyph-name="sigma1" unicode="&#x3c2;" 
d="M286 -200v87h115q34 0 53.5 13t19.5 53t-19.5 53t-53.5 13h-78q-118 0 -170.5 58.5t-52.5 171.5v135q0 110 55.5 168t178.5 58q109 0 161 -52.5t59 -162.5l-90 -6q-4 73 -34.5 103.5t-96.5 30.5q-72 0 -104.5 -31.5t-32.5 -100.5v-153q0 -69 31 -100.5t99 -31.5h78
q75 0 118.5 -36.5t43.5 -116.5q0 -75 -48.5 -114t-130.5 -39h-101z" />
    <glyph glyph-name="sigma" unicode="&#x3c3;" 
d="M313 77q58 0 87 31t29 102v144q0 81 -29 119.5t-87 38.5t-87.5 -33t-29.5 -103v-166q0 -71 29.5 -102t87.5 -31zM313 -10q-96 0 -154.5 54t-58.5 166v165q0 109 59 167t155 58h338v-97l-198 17q34 -24 53 -65t19 -98v-147q0 -112 -59 -166t-154 -54z" />
    <glyph glyph-name="tau" unicode="&#x3c4;" 
d="M490 -3q-111 -10 -159 17.5t-48 102.5v396h-184v87h473v-87h-192v-362q0 -45 23 -59t87 -6v-89z" />
    <glyph glyph-name="upsilon" unicode="&#x3c5;" 
d="M331 -10q-112 0 -171.5 56.5t-59.5 162.5v391h96v-392q0 -70 32 -100.5t103 -30.5t103 30.5t32 100.5v392h96v-391q0 -106 -59.5 -162.5t-171.5 -56.5z" />
    <glyph glyph-name="upsilondieresistonos" unicode="&#x3b0;" 
d="M331 -10q-112 0 -171.5 56.5t-59.5 162.5v391h96v-392q0 -70 32 -100.5t103 -30.5t103 30.5t32 100.5v392h96v-391q0 -106 -59.5 -162.5t-171.5 -56.5zM271 700l42 200h113l-96 -200h-59zM168 701q-23 0 -37.5 11.5t-14.5 44.5v6q0 33 14.5 45.5t37.5 12.5t37.5 -12.5
t14.5 -45.5v-6q0 -33 -15 -44.5t-37 -11.5zM494 701q-23 0 -37.5 11.5t-14.5 44.5v6q0 33 14.5 45.5t37.5 12.5t37.5 -12.5t14.5 -45.5v-6q0 -33 -15 -44.5t-37 -11.5z" />
    <glyph glyph-name="upsilondieresis" unicode="&#x3cb;" 
d="M331 -10q-112 0 -171.5 56.5t-59.5 162.5v391h96v-392q0 -70 32 -100.5t103 -30.5t103 30.5t32 100.5v392h96v-391q0 -106 -59.5 -162.5t-171.5 -56.5zM225 711q-28 0 -45 12t-17 44v7q0 33 17 45.5t45 12.5t44.5 -12.5t16.5 -45.5v-7q0 -32 -17 -44t-44 -12zM437 711
q-28 0 -44.5 12t-16.5 44v7q0 33 16.5 45.5t44.5 12.5t45 -12.5t17 -45.5v-7q0 -32 -17.5 -44t-44.5 -12z" />
    <glyph glyph-name="upsilontonos" unicode="&#x3cd;" 
d="M331 -10q-112 0 -171.5 56.5t-59.5 162.5v391h96v-392q0 -70 32 -100.5t103 -30.5t103 30.5t32 100.5v392h96v-391q0 -106 -59.5 -162.5t-171.5 -56.5zM262 700l68 200h134l-126 -200h-76z" />
    <glyph glyph-name="phi" unicode="&#x3c6;" 
d="M375 -200h-88v192q-103 12 -163 78.5t-60 182.5v95q0 83 17.5 151t46.5 119l84 -32q-25 -45 -42.5 -105t-17.5 -133v-95q0 -81 34 -127t102 -56v530h88q100 0 161 -68.5t61 -211.5v-64q0 -119 -61 -185.5t-162 -78.5v-192zM374 523v-453q69 10 103 57t34 129v64
q0 105 -34.5 154t-102.5 49z" />
    <glyph glyph-name="chi" unicode="&#x3c7;" 
d="M458 -200l-136 305l-142 -305h-94l196 396l-180 404h96l139 -309l145 309h94l-199 -400l179 -400h-98z" />
    <glyph glyph-name="psi" unicode="&#x3c8;" 
d="M375 -200h-88v193q-115 10 -169 72t-54 164v371h88v-372q0 -70 32 -105.5t104 -42.5v520h87v-520q71 7 103 42.5t32 105.5v372h88v-371q0 -102 -54.5 -164t-168.5 -72v-193z" />
    <glyph glyph-name="omega" unicode="&#x3c9;" 
d="M201 -10q-61 0 -99 60t-38 175v101q0 90 17 170.5t39 120.5l83 -32q-15 -34 -33 -106.5t-18 -152.5v-101q0 -74 17 -111t52 -37q34 0 50.5 27.5t16.5 91.5v265h87v-265q0 -64 16 -91.5t50 -27.5t51.5 37t17.5 111v101q0 80 -18 152.5t-33 106.5l83 32q22 -40 39 -120.5
t17 -170.5v-101q0 -115 -38 -175t-99 -60q-43 0 -76 30t-48 98h-12q-14 -68 -47.5 -98t-76.5 -30z" />
    <glyph glyph-name="omegatonos" unicode="&#x3ce;" 
d="M201 -10q-61 0 -99 60t-38 175v101q0 90 17 170.5t39 120.5l83 -32q-15 -34 -33 -106.5t-18 -152.5v-101q0 -74 17 -111t52 -37q34 0 50.5 27.5t16.5 91.5v265h87v-265q0 -64 16 -91.5t50 -27.5t51.5 37t17.5 111v101q0 80 -18 152.5t-33 106.5l83 32q22 -40 39 -120.5
t17 -170.5v-101q0 -115 -38 -175t-99 -60q-43 0 -76 30t-48 98h-12q-14 -68 -47.5 -98t-76.5 -30zM271 700l68 200h134l-126 -200h-76z" />
    <glyph glyph-name="acyrillic" unicode="&#x430;" 
d="M265 74q49 0 88 19t67 64v99h-157q-43 0 -69 -20t-26 -69q0 -44 22.5 -68.5t74.5 -24.5zM251 -10q-74 0 -126 42t-52 129q0 78 48 123.5t118 45.5h181v90q0 46 -29 74t-87 28q-60 0 -89 -20.5t-46 -86.5l-84 24q16 85 70.5 128t147.5 43q92 0 153 -43.5t61 -133.5v-278
q0 -51 27 -65t81 -4v-89q-63 -10 -110.5 9.5t-52.5 90.5h-19q-25 -46 -76.5 -76.5t-115.5 -30.5z" />
    <glyph glyph-name="becyrillic" unicode="&#x431;" 
d="M331 -10q-104 0 -168 55.5t-64 175.5v301q0 115 62.5 175t163.5 79l197 38l14 -82l-196 -38q-78 -16 -115.5 -59t-37.5 -136v-31h21q15 28 54.5 50t102.5 22q96 0 147 -55.5t51 -149.5v-119q0 -114 -64 -170t-168 -56zM331 77q73 0 103.5 34.5t30.5 103.5v109
q0 64 -30.5 96t-103.5 32q-74 0 -104.5 -32t-30.5 -96v-109q0 -69 30.5 -103.5t104.5 -34.5z" />
    <glyph glyph-name="vecyrillic" unicode="&#x432;" 
d="M100 0v600h227q120 0 178 -37.5t58 -115.5v-13q0 -48 -33.5 -75.5t-92.5 -31.5v-22q72 -5 107.5 -41.5t35.5 -86.5v-10q0 -84 -62.5 -125.5t-190.5 -41.5h-227zM196 354h139q75 0 103.5 14.5t28.5 54.5v14q0 45 -29.5 61.5t-109.5 16.5h-132v-161zM196 85h132
q89 0 122 19.5t33 71.5v10q0 51 -31.5 70t-116.5 19h-139v-190z" />
    <glyph glyph-name="gecyrillic" unicode="&#x433;" 
d="M145 0v600h425v-87h-328v-513h-97z" />
    <glyph glyph-name="gjecyrillic" unicode="&#x453;" 
d="M145 0v600h425v-87h-328v-513h-97zM290 700l124 200h142l-180 -200h-86z" />
    <glyph glyph-name="decyrillic" unicode="&#x434;" 
d="M219 112v-25h211v426h-172l-2 -263q-1 -44 -9.5 -78t-27.5 -60zM141 0v-150h-95v237h65q25 21 38 61.5t14 107.5l3 344h360v-513h90v-237h-95v150h-380z" />
    <glyph glyph-name="iecyrillic" unicode="&#x435;" 
d="M565 131q-25 -74 -76.5 -107.5t-156.5 -33.5q-109 0 -170.5 56t-61.5 165v175q0 112 64.5 168t167.5 56q104 0 167 -57t63 -175v-97h-366v-70q0 -74 33.5 -106t102.5 -32q65 0 94.5 20.5t45.5 65.5zM196 385v-30h270v21q0 79 -34 115t-101 36t-101 -35t-34 -107z" />
    <glyph glyph-name="iegravecyrillic" unicode="&#x450;" 
d="M565 131q-25 -74 -76.5 -107.5t-156.5 -33.5q-109 0 -170.5 56t-61.5 165v175q0 112 64.5 168t167.5 56q104 0 167 -57t63 -175v-97h-366v-70q0 -74 33.5 -106t102.5 -32q65 0 94.5 20.5t45.5 65.5zM196 385v-30h270v21q0 79 -34 115t-101 36t-101 -35t-34 -107zM332 700
l-181 200h143l123 -200h-85z" />
    <glyph glyph-name="iocyrillic" unicode="&#x451;" 
d="M565 131q-25 -74 -76.5 -107.5t-156.5 -33.5q-109 0 -170.5 56t-61.5 165v175q0 112 64.5 168t167.5 56q104 0 167 -57t63 -175v-97h-366v-70q0 -74 33.5 -106t102.5 -32q65 0 94.5 20.5t45.5 65.5zM196 385v-30h270v21q0 79 -34 115t-101 36t-101 -35t-34 -107zM226 711
q-28 0 -45 12t-17 44v7q0 33 17 45.5t45 12.5t44.5 -12.5t16.5 -45.5v-7q0 -32 -17 -44t-44 -12zM438 711q-28 0 -44.5 12t-16.5 44v7q0 33 16.5 45.5t44.5 12.5t45 -12.5t17 -45.5v-7q0 -32 -17.5 -44t-44.5 -12z" />
    <glyph glyph-name="zhecyrillic" unicode="&#x436;" 
d="M259 287l-128 -287h-97l159 329l-162 271h97l132 -235h29v235h85v-235h28l132 235h96l-161 -270l159 -330h-97l-128 287h-29v-287h-85v287h-30z" />
    <glyph glyph-name="zecyrillic" unicode="&#x437;" 
d="M328 -10q-125 0 -181.5 43.5t-63.5 147.5l95 7q7 -67 40.5 -90t109.5 -23q85 0 120 21.5t35 80.5v10q0 57 -33.5 77.5t-114.5 20.5h-52v79h52q72 0 101.5 14.5t29.5 54.5v14q0 45 -31.5 61.5t-106.5 16.5q-67 0 -97 -20.5t-37 -81.5l-95 8q7 96 61 137.5t168 41.5
q112 0 173.5 -37t61.5 -121v-13q0 -48 -34 -75.5t-92 -31.5v-22q72 -5 107.5 -43.5t35.5 -89.5v-9q0 -87 -57.5 -132.5t-194.5 -45.5z" />
    <glyph glyph-name="iicyrillic" unicode="&#x438;" 
d="M471 0v480l-246 -480h-125v600h91v-489l252 489h119v-600h-91z" />
    <glyph glyph-name="iishortcyrillic" unicode="&#x439;" 
d="M471 0v480l-246 -480h-125v600h91v-489l252 489h119v-600h-91zM331 693q-81 0 -138.5 44.5t-58.5 153.5l95 10q1 -71 23 -101t79 -30t79 30t23 101l95 -10q-1 -109 -58.5 -153.5t-138.5 -44.5z" />
    <glyph glyph-name="igravecyrillic" unicode="&#x45d;" 
d="M471 0v480l-246 -480h-125v600h91v-489l252 489h119v-600h-91zM332 700l-181 200h143l123 -200h-85z" />
    <glyph glyph-name="kacyrillic" unicode="&#x43a;" 
d="M240 274v-274h-97v600h97v-244h46l175 244h116l-215 -279l212 -321h-110l-178 274h-46z" />
    <glyph glyph-name="kjecyrillic" unicode="&#x45c;" 
d="M240 274v-274h-97v600h97v-244h46l175 244h116l-215 -279l212 -321h-110l-178 274h-46zM283 700l124 200h142l-180 -200h-86z" />
    <glyph glyph-name="elcyrillic" unicode="&#x43b;" 
d="M466 0v513h-198l-3 -278q-1 -125 -44 -185t-120 -60q-19 0 -36 4t-32 8l16 85q15 -5 24.5 -7.5t17.5 -2.5q45 0 62.5 38t18.5 133l3 352h388v-600h-97z" />
    <glyph glyph-name="emcyrillic" unicode="&#x43c;" 
d="M282 150l-106 362l1 -512h-87v600h144l100 -357l99 357h139v-600h-87l-1 507l-104 -357h-98z" />
    <glyph glyph-name="encyrillic" unicode="&#x43d;" 
d="M100 0v600h96v-211h270v211h96v-600h-96v303h-270v-303h-96z" />
    <glyph glyph-name="ocyrillic" unicode="&#x43e;" 
d="M331 -10q-111 0 -171 57t-60 163v176q0 107 60 165.5t172 58.5q110 0 170 -58.5t60 -165.5v-175q0 -107 -60 -164t-171 -57zM331 77q68 0 101.5 32t33.5 101v176q0 70 -33.5 103.5t-101.5 33.5t-101.5 -33.5t-33.5 -103.5v-176q0 -69 33.5 -101t101.5 -32z" />
    <glyph glyph-name="pecyrillic" unicode="&#x43f;" 
d="M100 0v600h462v-600h-96v513h-270v-513h-96z" />
    <glyph glyph-name="ercyrillic" unicode="&#x440;" 
d="M324 75q73 0 107.5 33.5t34.5 105.5v176q0 66 -26.5 97t-81.5 31q-46 0 -85 -24.5t-77 -76.5v-303q28 -19 59 -29t69 -10zM326 -10q-31 0 -65 7.5t-65 20.5v-218h-96v800h96v-93h28q22 48 65 75.5t96 27.5q83 0 130 -59.5t47 -163.5v-175q0 -103 -63 -162.5t-173 -59.5z
" />
    <glyph glyph-name="escyrillic" unicode="&#x441;" 
d="M344 -10q-122 0 -183 56.5t-61 163.5v176q0 110 61 167t182 57q107 0 164.5 -51t64.5 -154l-95 -5q-4 66 -36.5 94.5t-98.5 28.5q-73 0 -109.5 -33t-36.5 -103v-178q0 -68 36.5 -100t110.5 -32q66 0 98.5 23.5t35.5 79.5l95 -5q-6 -93 -63 -139t-165 -46z" />
    <glyph glyph-name="tecyrillic" unicode="&#x442;" 
d="M283 0v513h-210v87h516v-87h-209v-513h-97z" />
    <glyph glyph-name="ucyrillic" unicode="&#x443;" 
d="M172 -206q-22 0 -45 3t-48 8l16 87q25 -6 45.5 -9t38.5 -3q46 0 77 25.5t49 82.5l3 10h-40l-193 602h105l153 -519l152 519h101l-197 -621q-31 -100 -86.5 -142.5t-130.5 -42.5z" />
    <glyph glyph-name="ushortcyrillic" unicode="&#x45e;" 
d="M172 -206q-22 0 -45 3t-48 8l16 87q25 -6 45.5 -9t38.5 -3q46 0 77 25.5t49 82.5l3 10h-40l-193 602h105l153 -519l152 519h101l-197 -621q-31 -100 -86.5 -142.5t-130.5 -42.5zM331 693q-81 0 -138.5 44.5t-58.5 153.5l95 10q1 -71 23 -101t79 -30t79 30t23 101l95 -10
q-1 -109 -58.5 -153.5t-138.5 -44.5z" />
    <glyph glyph-name="efcyrillic" unicode="&#x444;" 
d="M405 0h-30v-200h-88v200h-30q-91 0 -142 64t-51 177v118q0 113 51 177t142 64h30v200h88v-200h30q91 0 142 -64t51 -177v-118q0 -113 -51 -177t-142 -64zM268 83h24v434h-24q-57 0 -86.5 -40.5t-29.5 -121.5v-112q0 -80 29.5 -120t86.5 -40zM394 517h-24v-434h24
q57 0 86.5 40t29.5 120v112q0 81 -29.5 121.5t-86.5 40.5z" />
    <glyph glyph-name="khacyrillic" unicode="&#x445;" 
d="M466 0l-141 225l-133 -225h-107l193 301l-186 299h108l134 -216l135 216h107l-194 -294l191 -306h-107z" />
    <glyph glyph-name="tsecyrillic" unicode="&#x446;" 
d="M516 -150v150h-416v600h96v-513h226v513h96v-513h91v-237h-93z" />
    <glyph glyph-name="checyrillic" unicode="&#x447;" 
d="M519 600v-600h-97v213q-23 -9 -55 -14t-66 -5q-110 0 -164.5 52.5t-54.5 158.5v195h97v-193q0 -71 33.5 -99t95.5 -29q34 -1 64.5 6.5t49.5 17.5v297h97z" />
    <glyph glyph-name="shacyrillic" unicode="&#x448;" 
d="M64 0v600h88v-521h135v521h88v-521h135v521h88v-600h-534z" />
    <glyph glyph-name="shchacyrillic" unicode="&#x449;" 
d="M648 -150h-88v150h-496v600h88v-521h135v521h88v-521h135v521h88v-513h50v-237z" />
    <glyph glyph-name="hardsigncyrillic" unicode="&#x44a;" 
d="M397 0h-249v513h-138v87h234v-202h152q91 0 142.5 -47t51.5 -129v-42q0 -84 -51.5 -132t-141.5 -48zM244 87h133q60 0 88.5 22t28.5 71v42q0 48 -28.5 69.5t-88.5 21.5h-133v-226z" />
    <glyph glyph-name="yericyrillic" unicode="&#x44b;" 
d="M81 0v600h88v-203h77q79 0 123.5 -47t44.5 -131v-38q0 -85 -44 -133t-123 -48h-166zM493 0v600h88v-600h-88zM169 84h60q51 0 74 22.5t23 73.5v41q0 49 -23 71.5t-74 22.5h-60v-231z" />
    <glyph glyph-name="softsigncyrillic" unicode="&#x44c;" 
d="M99 0v600h97v-202h197q93 0 144.5 -46.5t51.5 -129.5v-42q0 -84 -51.5 -132t-143.5 -48h-295zM196 87h178q62 0 90 22t28 71v42q0 48 -28 69.5t-90 21.5h-178v-226z" />
    <glyph glyph-name="ereversedcyrillic" unicode="&#x44d;" 
d="M318 -10q-110 0 -166 46.5t-63 142.5l94 6q3 -57 35 -82.5t101 -25.5q75 0 111 32.5t36 100.5v61h-205v78h205v38q0 70 -35.5 103t-110.5 33q-69 0 -101 -29.5t-36 -96.5l-94 6q7 104 64 155.5t166 51.5q122 0 182.5 -57.5t60.5 -167.5v-171q0 -110 -60.5 -167
t-183.5 -57z" />
    <glyph glyph-name="iucyrillic" unicode="&#x44e;" 
d="M419 -10q-92 0 -135.5 54t-43.5 150v98h-81v-292h-95v600h95v-221h81v23q0 97 44 152.5t136 55.5q93 0 135.5 -56.5t42.5 -151.5v-208q0 -93 -42.5 -148.5t-136.5 -55.5zM419 78q50 0 71.5 27t21.5 89v208q0 64 -21.5 92t-71.5 28q-49 0 -71 -28t-22 -92v-208
q0 -62 22 -89t71 -27z" />
    <glyph glyph-name="iacyrillic" unicode="&#x44f;" 
d="M287 297h179v215h-179q-47 0 -68 -21.5t-21 -70.5v-22q0 -52 21 -76.5t68 -24.5zM466 212h-86l-171 -212h-118l172 213q-79 5 -120.5 51t-41.5 130v21q0 90 47 137.5t136 47.5h278v-600h-96v212z" />
    <glyph glyph-name="djecyrillic" unicode="&#x452;" 
d="M375 -208q-27 0 -57 6t-61 16l19 94q26 -10 50 -16t45 -6q43 0 69 28t26 93v356q0 53 -28 79.5t-78 26.5q-43 0 -85 -26t-79 -73v-370h-96v632h-92v79h92v89h96v-89h182v-79h-182v-174h28q22 49 66 76t103 27q78 0 123.5 -47.5t45.5 -127.5v-392q0 -103 -53.5 -152.5
t-133.5 -49.5z" />
    <glyph glyph-name="ecyrillic" unicode="&#x454;" 
d="M573 179q-7 -96 -63.5 -142.5t-165.5 -46.5q-122 0 -183 57t-61 167v171q0 110 61 167.5t182 57.5q108 0 165.5 -51.5t64.5 -155.5l-95 -6q-4 66 -36 95.5t-100 29.5q-73 0 -109.5 -32.5t-36.5 -102.5v-38h206v-78h-206v-61q0 -68 36.5 -100t111.5 -32q66 0 98.5 25
t35.5 82z" />
    <glyph glyph-name="dzecyrillic" unicode="&#x455;" 
d="M340 -10q-71 0 -137.5 21t-119.5 64l41 77q45 -35 101.5 -55t114.5 -20q52 0 92 17t40 66q0 45 -35 63.5t-128 33.5q-106 17 -157 56.5t-51 118.5q0 87 61.5 132.5t148.5 45.5q65 0 126.5 -23t111.5 -63l-41 -77q-42 33 -92 54.5t-104 21.5q-48 0 -81.5 -19t-33.5 -65
q0 -43 34 -62t128 -34q107 -17 158 -59t51 -116q0 -90 -67.5 -134t-160.5 -44z" />
    <glyph glyph-name="icyrillic" unicode="&#x456;" 
d="M100 0v87h183v426h-183v87h280v-513h182v-87h-462zM332 711q-36 0 -58 12t-22 44v7q0 33 22 45.5t58 12.5t58 -12.5t22 -45.5v-7q0 -32 -22.5 -44t-57.5 -12z" />
    <glyph glyph-name="yicyrillic" unicode="&#x457;" 
d="M100 0v87h183v426h-183v87h280v-513h182v-87h-462zM225 711q-28 0 -45 12t-17 44v7q0 33 17 45.5t45 12.5t44.5 -12.5t16.5 -45.5v-7q0 -32 -17 -44t-44 -12zM437 711q-28 0 -44.5 12t-16.5 44v7q0 33 16.5 45.5t44.5 12.5t45 -12.5t17 -45.5v-7q0 -32 -17.5 -44
t-44.5 -12z" />
    <glyph glyph-name="jecyrillic" unicode="&#x458;" 
d="M245 -208q-35 0 -70 4.5t-75 17.5l18 94q34 -13 64 -17.5t59 -4.5q60 0 96.5 28t36.5 93v506h-256v87h353v-606q0 -103 -65 -152.5t-161 -49.5zM419 711q-36 0 -58 12t-22 44v7q0 33 22 45.5t58 12.5t58 -12.5t22 -45.5v-7q0 -32 -22.5 -44t-57.5 -12z" />
    <glyph glyph-name="ljecyrillic" unicode="&#x459;" 
d="M204 512l-8 -367q-2 -78 -38.5 -115.5t-90.5 -37.5q-16 0 -33 3t-33 9l19 94q10 -4 21 -7t21 -3q20 0 32.5 15t13.5 53l11 444h265v-202h76q69 0 108 -46t39 -126v-61q0 -78 -39 -121.5t-107 -43.5h-164v512h-93zM384 84h57q40 1 59 23.5t19 68.5v50q0 46 -19 68t-59 22
h-57v-232z" />
    <glyph glyph-name="njecyrillic" unicode="&#x45a;" 
d="M376 84h56q40 0 59.5 20t19.5 61v61q0 45 -19.5 67t-59.5 22h-56v-231zM151 305v-305h-87v600h87v-211h137v211h88v-203h75q69 0 108 -46t39 -127v-58q0 -78 -39 -122t-107 -44h-164v305h-137z" />
    <glyph glyph-name="tshecyrillic" unicode="&#x45b;" 
d="M196 366v-366h-96v632h-92v79h92v89h96v-89h182v-79h-182v-177h28q19 49 65 77.5t104 28.5q78 0 123.5 -48.5t45.5 -130.5v-382h-96v360q0 54 -26 81.5t-80 27.5q-43 0 -83.5 -25.5t-80.5 -77.5z" />
    <glyph glyph-name="dzhecyrillic" unicode="&#x45f;" 
d="M285 -150v150h-185v600h96v-513h270v513h96v-600h-184v-150h-93z" />
    <glyph glyph-name="gheupturncyrillic" unicode="&#x491;" 
d="M145 0v600h333v150h92v-237h-328v-513h-97z" />
    <glyph glyph-name="nsuperior" unicode="&#x207f;" 
d="M145 303v499h81v-76h23q10 24 24.5 40.5t31.5 25.5q17 10 34.5 14t35.5 4q30 0 56 -11t45 -32q20 -20 30.5 -50.5t10.5 -67.5v-346h-80v328q0 26 -6 45.5t-17 32.5t-26.5 19t-33.5 6q-20 0 -37 -6t-33 -16q-15 -11 -29 -25.5t-29 -33.5v-350h-81z" />
    <glyph glyph-name="gravecmb" unicode="&#x300;" horiz-adv-x="0" 
d="M0 700l-181 200h143l123 -200h-85z" />
    <glyph glyph-name="acutecmb" unicode="&#x301;" horiz-adv-x="0" 
d="M-106 700l124 200h142l-180 -200h-86z" />
    <glyph glyph-name="circumflexcmb" unicode="&#x302;" horiz-adv-x="0" 
d="M-160 708l-39 60l163 148h70l165 -148l-39 -60l-161 114z" />
    <glyph glyph-name="tildecmb" unicode="&#x303;" horiz-adv-x="0" 
d="M73 710q-34 0 -55.5 18t-37.5 40l-29.5 40t-30.5 18q-18 0 -30 -20.5t-11 -74.5v-11h-74v15q0 75 31.5 124.5t90.5 49.5q37 0 59 -18t38 -40l28 -40t28 -18q18 0 30 20.5t12 74.5v11h73v-15q0 -76 -31.5 -125t-90.5 -49z" />
    <glyph glyph-name="macroncmb" unicode="&#x304;" horiz-adv-x="0" 
d="M-185 757v86h370v-86h-370z" />
    <glyph glyph-name="brevecmb" unicode="&#x306;" horiz-adv-x="0" 
d="M0 693q-94 0 -154 49t-61 159h95q1 -72 30.5 -101.5t89.5 -29.5t89.5 29.5t30.5 101.5h95q-1 -110 -61 -159t-154 -49z" />
    <glyph glyph-name="dotaccentcmb" unicode="&#x307;" horiz-adv-x="0" 
d="M0 711q-36 0 -58 12t-22 44v7q0 33 22 45.5t58 12.5t58 -12.5t22 -45.5v-7q0 -32 -22.5 -44t-57.5 -12z" />
    <glyph glyph-name="dieresiscmb" unicode="&#x308;" horiz-adv-x="0" 
d="M-106 711q-28 0 -45 12t-17 44v7q0 33 17 45.5t45 12.5t44.5 -12.5t16.5 -45.5v-7q0 -32 -17 -44t-44 -12zM106 711q-28 0 -44.5 12t-16.5 44v7q0 33 16.5 45.5t44.5 12.5t45 -12.5t17 -45.5v-7q0 -32 -17.5 -44t-44.5 -12z" />
    <glyph glyph-name="ringcmb" unicode="&#x30a;" horiz-adv-x="0" 
d="M0 686q-67 0 -108 35t-41 109v32q0 75 41 111t108 36t108 -36t41 -111v-32q0 -74 -41 -109t-108 -35zM0 755q37 0 56 17.5t19 57.5v32q0 40 -19 59t-56 19t-56 -19t-19 -59v-32q0 -40 19 -57.5t56 -17.5z" />
    <glyph glyph-name="hungarumlautcmb" unicode="&#x30b;" horiz-adv-x="0" 
d="M68 700l51 200h131l-116 -200h-66zM-143 700l50 200h132l-116 -200h-66z" />
    <glyph glyph-name="caroncmb" unicode="&#x30c;" horiz-adv-x="0" 
d="M-34 704l-165 148l39 60l161 -113l159 113l39 -60l-163 -148h-70z" />
    <glyph glyph-name="commaturnedabovecmb" unicode="&#x312;" horiz-adv-x="0" 
d="M-124 700l144 200h85l-86 -200h-143z" />
    <glyph glyph-name="commaaccentcmb" unicode="&#x326;" horiz-adv-x="0" 
d="M-125 -300l87 200h143l-144 -200h-86z" />
    <glyph glyph-name="cedillacmb" unicode="&#x327;" horiz-adv-x="0" 
d="M-28 0l19 42q46 -9 81.5 -40t35.5 -93q0 -64 -42.5 -94t-94.5 -30q-62 0 -101 23.5t-43 80.5l85 10q1 -19 13.5 -26.5t40.5 -7.5q27 0 41 12.5t14 46.5q0 35 -11 51.5t-38 24.5z" />
    <glyph glyph-name="ogonekcmb" unicode="&#x328;" horiz-adv-x="0" 
d="M48 -215q-59 0 -99 32t-40 87q0 48 35.5 85.5t78.5 55.5l25 -22q-31 -21 -42.5 -46.5t-11.5 -45.5q0 -28 17.5 -42.5t48.5 -14.5q16 0 41 3t41 7v-89q-19 -4 -45.5 -7t-48.5 -3z" />
    <glyph glyph-name="zero" unicode="0" 
d="M331 -10q-122 0 -185.5 87t-63.5 254v134q0 169 64 257t186 88t185 -88t63 -257v-134q0 -167 -63.5 -254t-185.5 -87zM331 77q83 0 118 58.5t35 194.5v136q0 138 -35 197.5t-118 59.5t-118 -59.5t-35 -197.5v-136q0 -136 35 -194.5t118 -58.5zM331 323q-30 0 -48 11
t-18 42v47q0 30 18 41.5t48 11.5t47.5 -11.5t17.5 -41.5v-47q0 -31 -18 -42t-47 -11z" />
    <glyph glyph-name="one" unicode="1" 
d="M127 0v87h200v596h-26q-28 -55 -78.5 -80t-113.5 -15l-9 95q69 -7 129 23.5t101 93.5h94v-713h182v-87h-479z" />
    <glyph glyph-name="two" unicode="2" 
d="M82 0v170q0 93 39.5 144t133.5 82l123 40q51 16 73.5 41.5t22.5 75.5v42q0 69 -31 98.5t-112 29.5q-77 0 -106.5 -35t-36.5 -139l-97 10q7 137 61.5 194t177.5 57q122 0 181.5 -50.5t59.5 -153.5v-68q0 -75 -39 -118.5t-131 -73.5l-123 -40q-48 -15 -73.5 -43t-25.5 -91
v-85h401v-87h-498z" />
    <glyph glyph-name="three" unicode="3" 
d="M323 -10q-143 0 -193 56.5t-57 169.5l97 10q8 -91 38.5 -121t114.5 -30q89 0 124.5 32t35.5 110v27q0 77 -33.5 107.5t-118.5 30.5h-92v87h92q75 0 104.5 24t29.5 84v32q0 64 -32 90t-110 26q-70 0 -99 -29t-36 -107l-97 10q7 113 63.5 162t167.5 49q110 0 175 -47.5
t65 -154.5v-33q0 -60 -38.5 -94.5t-104.5 -39.5v-29q80 -7 120.5 -55t40.5 -113v-27q0 -107 -58 -167t-199 -60z" />
    <glyph glyph-name="four" unicode="4" 
d="M177 298h242v392zM626 211h-110v-211h-97v211h-346v87l305 502h138v-502h110v-87z" />
    <glyph glyph-name="five" unicode="5" 
d="M328 -10q-142 0 -195 48t-60 181l97 10q7 -95 36.5 -123.5t122.5 -28.5q84 0 119 34.5t35 102.5v49q0 71 -28.5 104.5t-94.5 33.5h-260v399h444v-87h-347v-220h167q107 0 161.5 -54.5t54.5 -167.5v-66q0 -99 -64 -157t-188 -58z" />
    <glyph glyph-name="six" unicode="6" 
d="M331 -10q-128 0 -188.5 76t-60.5 210v250q0 139 64.5 211.5t186.5 72.5q111 0 165.5 -42.5t73.5 -139.5l-105 -23q-13 64 -39 91t-98 27q-82 0 -116.5 -45.5t-34.5 -151.5v-104h17q25 37 62.5 57t99.5 20q112 0 167 -66t55 -171v-22q0 -122 -64 -186t-185 -64zM330 77
q78 0 114.5 39t36.5 122v13q0 83 -36.5 121.5t-114.5 38.5t-114.5 -38.5t-36.5 -121.5v-13q0 -83 36.5 -122t114.5 -39z" />
    <glyph glyph-name="seven" unicode="7" 
d="M237 0q51 260 96.5 399t149.5 304h-401v97h498v-97q-104 -187 -153.5 -336t-83.5 -367h-106z" />
    <glyph glyph-name="eight" unicode="8" 
d="M331 -10q-131 0 -190 51.5t-59 164.5v22q0 76 38 124t106 55v29q-54 5 -90 45t-36 106v32q0 100 55 145.5t176 45.5q122 0 176.5 -45.5t54.5 -145.5v-32q0 -66 -36 -106t-90 -45v-29q68 -7 106 -55.5t38 -123.5v-22q0 -113 -59 -164.5t-190 -51.5zM331 464q75 0 104.5 26
t29.5 92v27q0 65 -29.5 90.5t-104.5 25.5t-104.5 -25.5t-29.5 -90.5v-27q0 -66 29.5 -92t104.5 -26zM331 75q85 0 118.5 31t33.5 110v17q0 81 -33.5 112t-118.5 31t-118.5 -31t-33.5 -112v-17q0 -79 33.5 -110t118.5 -31z" />
    <glyph glyph-name="nine" unicode="9" 
d="M332 389q77 0 114 39t37 121v13q0 82 -37 121.5t-114 39.5t-114 -39.5t-37 -121.5v-13q0 -82 37 -121t114 -39zM329 -10q-111 0 -165.5 43t-73.5 139l105 23q14 -69 42.5 -93.5t94.5 -24.5q81 0 116 46t35 151v104h-17q-24 -38 -64.5 -57.5t-100.5 -19.5
q-108 0 -163.5 64t-55.5 173v22q0 122 64 186t185 64q128 0 188.5 -76t60.5 -210v-250q0 -133 -61 -208.5t-190 -75.5z" />
    <glyph glyph-name="onequarter" unicode="&#xbc;" 
d="M174 410v72h125v220h-14q-5 -20 -16 -36t-27 -28t-35 -18.5t-39 -6.5l-5 73q23 1 45.5 9t41.5 23t32.5 37.5t18.5 50.5h85v-324h114v-72h-326zM10 250v99l292 -20v-59zM373 270v59l279 20v-99zM545 -114h-85v-96h-86v96h-234v68l208 262h112v-262h85v-68zM215 -46h159
v197z" />
    <glyph glyph-name="onehalf" unicode="&#xbd;" 
d="M174 410v72h125v220h-14q-5 -20 -16 -36t-27 -28t-35 -18.5t-39 -6.5l-5 73q22 1 44 8.5t41 22.5t33 37t20 52h85v-324h114v-72h-326zM10 250v99l292 -20v-59zM373 270v59l279 20v-99zM146 -210v83q0 24 6 44t19 37q12 16 32.5 27.5t49.5 17.5l112 25q17 4 28 8t18 9
q7 6 10.5 13.5t3.5 18.5v20q0 12 -4.5 21t-15.5 16q-10 6 -28.5 9.5t-45.5 3.5q-28 0 -45.5 -4t-27.5 -13q-9 -8 -13.5 -21.5t-6.5 -35.5l-87 7q2 35 12 60.5t31 41.5q21 17 54.5 25.5t82.5 8.5q48 0 82.5 -8t56.5 -23q21 -15 31 -36t10 -49v-34q0 -24 -7.5 -41.5
t-21.5 -30.5q-14 -12 -32.5 -20t-43.5 -14l-112 -25q-17 -4 -27.5 -7.5t-18.5 -10.5t-12 -19.5t-4 -32.5h285v-71h-371z" />
    <glyph glyph-name="threequarters" unicode="&#xbe;" 
d="M330 404q-51 0 -86.5 7.5t-57.5 23.5q-22 15 -33 38.5t-13 55.5l86 6q2 -18 7 -29.5t16 -18.5q10 -7 29.5 -10t51.5 -3q30 0 49.5 3t30.5 8q11 6 15.5 13.5t4.5 18.5v16q0 11 -4.5 18.5t-15.5 13.5q-11 5 -30.5 7.5t-48.5 2.5h-51v71h51q25 0 41.5 2t26.5 7q11 5 15.5 14
t4.5 22v21q0 8 -6.5 14t-17.5 10q-12 3 -29 4.5t-40 1.5t-39 -3t-27 -8q-10 -6 -15.5 -15.5t-6.5 -23.5l-87 6q2 31 13.5 52.5t32.5 34.5q21 14 53 20.5t76 6.5q41 0 73 -4.5t56 -15.5t37 -29.5t13 -45.5v-16q0 -17 -6 -31t-18 -24q-11 -10 -27 -16t-35 -8v-18q21 -2 39 -8
t32 -16q13 -9 20 -22.5t7 -28.5v-14q0 -29 -11.5 -49.5t-34.5 -34.5t-58 -20.5t-83 -6.5zM10 250v99l292 -20v-59zM373 270v59l279 20v-99zM545 -114h-85v-96h-86v96h-234v68l208 262h112v-262h85v-68zM215 -46h159v197z" />
    <glyph glyph-name="oneeighth" unicode="&#x215b;" 
d="M174 410v72h125v220h-14q-5 -20 -16 -36t-27 -28t-35 -18.5t-39 -6.5l-5 73q22 1 44 8.5t41 22.5t33 37t20 52h85v-324h114v-72h-326zM10 250v99l292 -20v-59zM373 270v59l279 20v-99zM336 -215q-52 0 -88 8t-57 23t-30.5 36.5t-9.5 49.5v14q0 19 6 34t18 26
q12 12 29 18.5t39 8.5v18q-17 2 -32 7.5t-26 14.5t-17 21t-6 27v20q0 27 11.5 46t33.5 32q22 12 54.5 18t74.5 6q43 0 75 -5.5t54 -17.5q22 -13 33.5 -32.5t11.5 -46.5v-20q0 -15 -6 -27t-17 -21t-26 -14.5t-32 -7.5v-18q22 -2 39.5 -9t29.5 -18q12 -12 18 -27t6 -33v-14
q0 -29 -9.5 -50.5t-30.5 -36.5q-22 -15 -58 -22.5t-88 -7.5zM336 46q23 0 39.5 2t27.5 7t16 13t5 20v14q0 12 -5 19.5t-16 12.5t-27.5 7t-39.5 2t-39.5 -2t-27.5 -7q-10 -5 -15.5 -12.5t-5.5 -19.5v-14q0 -12 5.5 -20t15.5 -13q11 -4 27.5 -6.5t39.5 -2.5zM336 -145
q31 0 51 3.5t30 11.5q11 7 14.5 17t3.5 24v9q0 14 -3.5 24.5t-14.5 17.5q-10 7 -30 11t-51 4q-32 0 -51.5 -4t-30.5 -11q-10 -7 -13.5 -17t-3.5 -25v-9q0 -15 3.5 -24.5t13.5 -16.5q11 -8 30.5 -11.5t51.5 -3.5z" />
    <glyph glyph-name="threeeighths" unicode="&#x215c;" 
d="M330 404q-51 0 -86.5 7.5t-57.5 23.5q-22 15 -33 38.5t-13 55.5l86 6q2 -18 7 -29.5t16 -18.5q10 -7 29.5 -10t51.5 -3q30 0 49.5 3t30.5 8q11 6 15.5 13.5t4.5 18.5v16q0 11 -4.5 18.5t-15.5 13.5q-11 5 -30.5 7.5t-48.5 2.5h-51v71h51q25 0 41.5 2t26.5 7
q11 5 15.5 13.5t4.5 22.5v21q0 8 -6.5 14t-17.5 10q-12 3 -29 4.5t-40 1.5t-39 -3t-26 -8q-11 -6 -16 -15.5t-7 -23.5l-87 6q2 31 13.5 52.5t32.5 35.5q21 13 53 19.5t76 6.5q41 0 73 -4.5t56 -15.5t37 -29.5t13 -45.5v-16q0 -17 -6 -31t-18 -24q-11 -10 -27 -16t-35 -8v-18
q21 -2 39 -8t32 -16q13 -9 20 -22.5t7 -28.5v-14q0 -29 -11.5 -49.5t-34.5 -34.5t-58 -20.5t-83 -6.5zM10 250v99l292 -20v-59zM373 270v59l279 20v-99zM336 -215q-52 0 -88 8t-57 23t-30.5 36.5t-9.5 49.5v14q0 19 6 34t18 26q12 12 29 18.5t39 8.5v18q-17 2 -32 7.5
t-26 14.5t-17 21t-6 27v20q0 27 11.5 46t33.5 32q22 12 54.5 18t74.5 6q43 0 75 -5.5t54 -17.5q22 -13 33.5 -32.5t11.5 -46.5v-20q0 -15 -6 -27t-17 -21t-26 -14.5t-32 -7.5v-18q22 -2 39.5 -9t29.5 -18q12 -12 18 -27t6 -33v-14q0 -29 -9.5 -50.5t-30.5 -36.5
q-22 -15 -58 -22.5t-88 -7.5zM336 46q23 0 39.5 2t27.5 7t16 13t5 20v14q0 12 -5 19.5t-16 12.5t-27.5 7t-39.5 2t-39.5 -2t-27.5 -7q-10 -5 -15.5 -12.5t-5.5 -19.5v-14q0 -12 5.5 -20t15.5 -13q11 -4 27.5 -6.5t39.5 -2.5zM336 -145q31 0 51 3.5t30 11.5q11 7 14.5 17
t3.5 24v9q0 14 -3.5 24.5t-14.5 17.5q-10 7 -30 11t-51 4q-32 0 -51.5 -4t-30.5 -11q-10 -7 -13.5 -17t-3.5 -25v-9q0 -15 3.5 -24.5t13.5 -16.5q11 -8 30.5 -11.5t51.5 -3.5z" />
    <glyph glyph-name="fiveeighths" unicode="&#x215d;" 
d="M331 404q-52 0 -87 6t-57 19q-22 14 -33.5 37t-13.5 59l86 6q2 -19 7.5 -30t17.5 -17q11 -6 30.5 -8.5t50.5 -2.5q28 0 47 3t30 9q11 5 16 14t5 22v26q0 12 -4.5 20.5t-15.5 14.5q-11 5 -30 8t-47 3h-176v213h340v-69h-254v-70h111q40 0 70 -7t51 -21q21 -13 31.5 -34.5
t10.5 -49.5v-34q0 -26 -11.5 -47.5t-34.5 -37.5q-23 -15 -58 -23.5t-82 -8.5zM10 250v99l292 -20v-59zM373 270v59l279 20v-99zM336 -215q-52 0 -88 8t-57 23t-30.5 36.5t-9.5 49.5v14q0 19 6 34t18 26q12 12 29 18.5t39 8.5v18q-17 2 -32 7.5t-26 14.5t-17 21t-6 27v20
q0 27 11.5 46t33.5 32q22 12 54.5 18t74.5 6q43 0 75 -5.5t54 -17.5q22 -13 33.5 -32.5t11.5 -46.5v-20q0 -15 -6 -27t-17 -21t-26 -14.5t-32 -7.5v-18q22 -2 39.5 -9t29.5 -18q12 -12 18 -27t6 -33v-14q0 -29 -9.5 -50.5t-30.5 -36.5q-22 -15 -58 -22.5t-88 -7.5zM336 46
q23 0 39.5 2t27.5 7t16 13t5 20v14q0 12 -5 19.5t-16 12.5t-27.5 7t-39.5 2t-39.5 -2t-27.5 -7q-10 -5 -15.5 -12.5t-5.5 -19.5v-14q0 -12 5.5 -20t15.5 -13q11 -4 27.5 -6.5t39.5 -2.5zM336 -145q31 0 51 3.5t30 11.5q11 7 14.5 17t3.5 24v9q0 14 -3.5 24.5t-14.5 17.5
q-10 7 -30 11t-51 4q-32 0 -51.5 -4t-30.5 -11q-10 -7 -13.5 -17t-3.5 -25v-9q0 -15 3.5 -24.5t13.5 -16.5q11 -8 30.5 -11.5t51.5 -3.5z" />
    <glyph glyph-name="seveneighths" unicode="&#x215e;" 
d="M261 410q13 54 28 97.5t35 81.5q20 37 46.5 72t61.5 70h-285v75h371v-75q-34 -38 -61 -76.5t-47 -78.5q-21 -40 -35 -81t-22 -85h-92zM10 250v99l292 -20v-59zM373 270v59l279 20v-99zM336 -215q-52 0 -88 8t-57 23t-30.5 36.5t-9.5 49.5v14q0 19 6 34t18 26
q12 12 29 18.5t39 8.5v18q-17 2 -32 7.5t-26 14.5t-17 21t-6 27v20q0 27 11.5 46t33.5 32q22 12 54.5 18t74.5 6q43 0 75 -5.5t54 -17.5q22 -13 33.5 -32.5t11.5 -46.5v-20q0 -15 -6 -27t-17 -21t-26 -14.5t-32 -7.5v-18q22 -2 39.5 -9t29.5 -18q12 -12 18 -27t6 -33v-14
q0 -29 -9.5 -50.5t-30.5 -36.5q-22 -15 -58 -22.5t-88 -7.5zM336 46q23 0 39.5 2t27.5 7t16 13t5 20v14q0 12 -5 19.5t-16 12.5t-27.5 7t-39.5 2t-39.5 -2t-27.5 -7q-10 -5 -15.5 -12.5t-5.5 -19.5v-14q0 -12 5.5 -20t15.5 -13q11 -4 27.5 -6.5t39.5 -2.5zM336 -145
q31 0 51 3.5t30 11.5q11 7 14.5 17t3.5 24v9q0 14 -3.5 24.5t-14.5 17.5q-10 7 -30 11t-51 4q-32 0 -51.5 -4t-30.5 -11q-10 -7 -13.5 -17t-3.5 -25v-9q0 -15 3.5 -24.5t13.5 -16.5q11 -8 30.5 -11.5t51.5 -3.5z" />
    <glyph glyph-name="underscore" unicode="_" 
d="M74 -200v96h514v-96h-514z" />
    <glyph glyph-name="hyphen" unicode="&#x2011;" 
d="M74 302v96h514v-96h-514z" />
    <glyph glyph-name="hyphen" unicode="&#x2010;" 
d="M74 302v96h514v-96h-514z" />
    <glyph glyph-name="hyphen" unicode="&#xad;" 
d="M74 302v96h514v-96h-514z" />
    <glyph glyph-name="hyphen" unicode="-" 
d="M74 302v96h514v-96h-514z" />
    <glyph glyph-name="endash" unicode="&#x2013;" 
d="M99 302v96h464v-96h-464z" />
    <glyph glyph-name="emdash" unicode="&#x2014;" 
d="M10 302v96h642v-96h-642z" />
    <glyph glyph-name="horizontalbar" unicode="&#x2015;" 
d="M10 302v96h642v-96h-642z" />
    <glyph glyph-name="parenleft" unicode="(" 
d="M516 -210q-149 37 -237 170t-88 340t88 340t237 170l10 -75q-121 -37 -179.5 -153t-58.5 -282q0 -167 58.5 -283t179.5 -152z" />
    <glyph glyph-name="parenright" unicode=")" 
d="M146 -210l-10 75q122 36 180 152.5t58 282.5t-58 282t-180 153l10 75q149 -37 237 -170t88 -340t-88 -340t-237 -170z" />
    <glyph glyph-name="bracketleft" unicode="[" 
d="M191 -200v1000h326v-87h-229v-838h229v-75h-326z" />
    <glyph glyph-name="bracketright" unicode="]" 
d="M145 -200v75h229v838h-229v87h326v-1000h-326z" />
    <glyph glyph-name="braceleft" unicode="{" 
d="M517 -210q-197 -4 -284.5 37.5t-87.5 128.5q0 50 18.5 84t40.5 59l41.5 48t18.5 47q0 47 -46 66.5t-165 22.5v58q119 3 165 22t46 65q0 25 -19 43l-41 40t-40.5 53.5t-18.5 82.5q0 84 87.5 125.5t284.5 37.5v-87q-153 3 -214 -18t-61 -69q0 -23 14.5 -44.5t45.5 -51.5
q30 -30 44.5 -55t14.5 -56q0 -55 -45.5 -83.5t-135.5 -32.5v-5q90 -10 135.5 -42t45.5 -90q0 -28 -15 -51.5t-47 -54.5q-29 -28 -43 -50.5t-14 -52.5q0 -51 61 -73t214 -19v-85z" />
    <glyph glyph-name="braceright" unicode="}" 
d="M517 -44q0 -87 -87.5 -128.5t-284.5 -37.5v85q153 -3 214 19t61 73q0 30 -14 52.5t-43 50.5q-31 31 -46.5 54.5t-15.5 51.5q0 58 45.5 90t135.5 42v5q-90 4 -135.5 32.5t-45.5 83.5q0 31 14.5 56t44.5 55q31 30 45.5 51.5t14.5 44.5q0 48 -61 69t-214 18v87
q197 4 284.5 -37.5t87.5 -125.5q0 -51 -18.5 -82.5t-40.5 -53.5l-41 -40t-19 -43q0 -46 46 -65t165 -22v-58q-119 -3 -165 -22.5t-46 -66.5q0 -25 18.5 -47l41.5 -48q22 -25 40.5 -59t18.5 -84z" />
    <glyph glyph-name="numbersign" unicode="#" 
d="M390 289l10 222h-127l-10 -222h127zM376 0l10 202h-128l-9 -202h-86l10 202h-120v87h124l10 222h-134v87h138l9 202h86l-10 -202h128l9 202h86l-10 -202h120v-87h-123l-10 -222h133v-87h-138l-9 -202h-86z" />
    <glyph glyph-name="percent" unicode="%" 
d="M194 455q-66 0 -107 38t-41 117v56q0 78 41 116t107 38t106.5 -38t40.5 -116v-56q0 -79 -40.5 -117t-106.5 -38zM194 532q28 0 44.5 18t16.5 58v60q0 38 -16.5 56t-44.5 18t-45 -18t-17 -56v-60q0 -40 17 -58t45 -18zM37 200l545 460l47 -58l-546 -460zM469 -22
q-66 0 -107.5 37t-41.5 115v60q0 78 41.5 115.5t107.5 37.5t106.5 -37.5t40.5 -115.5v-60q0 -78 -40.5 -115t-106.5 -37zM469 56q28 0 44 17t16 55v64q0 38 -16 56t-44 18t-45 -18t-17 -56v-64q0 -38 17 -55t45 -17z" />
    <glyph glyph-name="perthousand" unicode="&#x2030;" 
d="M181 455q-60 0 -97.5 36.5t-37.5 111.5v70q0 75 37.5 111t97.5 36t97 -36t37 -111v-70q0 -75 -37 -111.5t-97 -36.5zM132 601q0 -37 13.5 -53t35.5 -16t34.5 16t12.5 53v74q0 34 -12.5 50.5t-34.5 16.5t-35.5 -16.5t-13.5 -50.5v-74zM609 605l-547 -446l-45 58l545 447z
M534 -22q-26 0 -47 12.5t-34 37.5q-13 -25 -34 -37.5t-47 -12.5q-46 0 -74.5 35.5t-28.5 108.5v81q0 74 28.5 110t74.5 36q27 0 48 -12.5t34 -37.5q13 25 34 37.5t47 12.5q46 0 74 -36t28 -110v-81q0 -73 -28.5 -108.5t-74.5 -35.5zM347 110q0 -33 9 -47.5t25 -14.5
t24.5 14.5t8.5 47.5v105q0 34 -8.5 49.5t-24.5 15.5t-25 -15.5t-9 -49.5v-105zM492 110q0 -33 9 -47.5t25 -14.5t24.5 14.5t8.5 47.5v105q0 34 -8.5 49.5t-24.5 15.5t-25 -15.5t-9 -49.5v-105z" />
    <glyph glyph-name="quotesingle" unicode="'" 
d="M284 403l-29 397h152l-28 -397h-95z" />
    <glyph glyph-name="quotedbl" unicode="&#x22;" 
d="M424 403l-28 397h151l-28 -397h-95zM143 403l-28 397h151l-28 -397h-95z" />
    <glyph glyph-name="quoteleft" unicode="&#x2018;" 
d="M192 403l208 397h79l-100 -397h-187z" />
    <glyph glyph-name="quoteleft" unicode="&#x2bb;" 
d="M192 403l208 397h79l-100 -397h-187z" />
    <glyph glyph-name="quoteright" unicode="&#x2019;" 
d="M183 403l100 397h187l-208 -397h-79z" />
    <glyph glyph-name="quotedblleft" unicode="&#x201c;" 
d="M332 403l208 397h71l-100 -397h-179zM52 403l208 397h71l-100 -397h-179z" />
    <glyph glyph-name="quotedblright" unicode="&#x201d;" 
d="M331 403l100 397h178l-207 -397h-71zM51 403l100 397h179l-208 -397h-71z" />
    <glyph glyph-name="quotereversed" unicode="&#x201b;" 
d="M377 403l-208 397h188l100 -397h-80z" />
    <glyph glyph-name="quotesinglbase" unicode="&#x201a;" 
d="M197 -203l82 398h187l-190 -398h-79z" />
    <glyph glyph-name="quotedblbase" unicode="&#x201e;" 
d="M265 -202l100 397h178l-207 -397h-71zM-15 -202l100 397h179l-208 -397h-71z" />
    <glyph glyph-name="guilsinglleft" unicode="&#x2039;" 
d="M471 104l-280 199v94l280 199v-91l-219 -155l219 -155v-91z" />
    <glyph glyph-name="guilsinglright" unicode="&#x203a;" 
d="M191 104v91l219 155l-219 155v91l280 -199v-94z" />
    <glyph glyph-name="guillemotleft" unicode="&#xab;" 
d="M591 103l-240 199v94l240 199v-91l-187 -155l187 -155v-91zM313 103l-240 199v94l240 199v-91l-187 -155l187 -155v-91z" />
    <glyph glyph-name="guillemotright" unicode="&#xbb;" 
d="M72 104v91l188 155l-188 155v91l241 -199v-94zM350 104v91l188 155l-188 155v91l240 -199v-94z" />
    <glyph glyph-name="asterisk" unicode="*" 
d="M541 300l-181 155l26 -235h-112l27 234l-180 -154l-57 99l214 112l-214 112l57 99l180 -155l-27 233h112l-26 -233l181 155l56 -99l-214 -112l214 -112z" />
    <glyph glyph-name="dagger" unicode="&#x2020;" 
d="M283 -200v713h-90l-36 -210h-76l27 297h173l-6 200h112l-6 -200h173l27 -297h-76l-36 210h-90v-713h-96z" />
    <glyph glyph-name="daggerdbl" unicode="&#x2021;" 
d="M275 -200l6 200h-173l-28 228h76l37 -141h90v426h-90l-37 -141h-76l28 228h173l-6 200h112l-6 -200h173l28 -228h-76l-37 141h-90v-426h90l37 141h76l-28 -228h-173l6 -200h-112z" />
    <glyph glyph-name="period" unicode="." 
d="M332 -10q-47 0 -76 22t-29 70v27q0 49 29 71.5t76 22.5t75.5 -22.5t28.5 -71.5v-27q0 -48 -29 -70t-75 -22z" />
    <glyph glyph-name="comma" unicode="," 
d="M192 -203l82 398h187l-190 -398h-79z" />
    <glyph glyph-name="colon" unicode=":" 
d="M332 393q-46 0 -75 20t-29 63v45q0 44 29 64.5t75 20.5t74.5 -20.5t28.5 -64.5v-45q0 -43 -29 -63t-74 -20zM332 -10q-46 0 -75 20t-29 63v45q0 44 29 64.5t75 20.5t74.5 -20.5t28.5 -64.5v-45q0 -43 -29 -63t-74 -20z" />
    <glyph glyph-name="semicolon" unicode=";" 
d="M332 393q-46 0 -75 20t-29 63v45q0 44 29 64.5t75 20.5t74.5 -20.5t28.5 -64.5v-45q0 -43 -29 -63t-74 -20zM193 -204l81 400h186l-189 -400h-78z" />
    <glyph glyph-name="ellipsis" unicode="&#x2026;" 
d="M550 -9q-29 0 -47 20.5t-18 63.5v43q0 44 18 65t47 21q30 0 48 -21t18 -65v-43q0 -43 -19 -63.5t-47 -20.5zM331 -9q-29 0 -47.5 20.5t-18.5 63.5v43q0 44 18.5 65t47.5 21q30 0 48 -21t18 -65v-43q0 -43 -19 -63.5t-47 -20.5zM113 -9q-30 0 -48.5 20.5t-18.5 63.5v43
q0 44 18.5 65t48.5 21q29 0 46.5 -21t17.5 -65v-43q0 -43 -18 -63.5t-46 -20.5z" />
    <glyph glyph-name="exclam" unicode="!" 
d="M294 300l-28 500h134l-27 -500h-79zM335 -10q-48 0 -70 20.5t-22 63.5v28q0 44 22 65t70 21q47 0 68.5 -21t21.5 -65v-28q0 -43 -22 -63.5t-68 -20.5z" />
    <glyph glyph-name="exclamdown" unicode="&#xa1;" 
d="M331 810q47 0 69.5 -20.5t22.5 -63.5v-28q0 -44 -22.5 -65t-69.5 -21t-69 21t-22 65v28q0 43 22.5 63.5t68.5 20.5zM372 500l27 -500h-134l28 500h79z" />
    <glyph glyph-name="exclamdbl" unicode="&#x203c;" 
d="M424 300l-28 500h132l-28 -500h-76zM162 300l-27 500h131l-27 -500h-77zM463 -10q-23 0 -40 5t-28 15q-11 11 -16.5 26.5t-5.5 37.5v28q0 22 5.5 38.5t16.5 26.5q11 11 28 16t40 5t40 -5t28 -16q11 -10 16.5 -26.5t5.5 -38.5v-28q0 -22 -5.5 -37.5t-16.5 -26.5
q-11 -10 -28 -15t-40 -5zM202 -10q-23 0 -40.5 5t-28.5 15q-11 11 -16.5 26.5t-5.5 37.5v28q0 22 5.5 38.5t16.5 26.5q11 11 28.5 16t40.5 5t40 -5t28 -16q11 -10 16 -26.5t5 -38.5v-28q0 -22 -5.5 -37.5t-16.5 -26.5q-11 -10 -27.5 -15t-39.5 -5z" />
    <glyph glyph-name="question" unicode="?" 
d="M258 316l-19 78q160 28 213.5 63t53.5 95v31q0 64 -34.5 102t-137.5 38q-111 0 -142.5 -37.5t-38.5 -136.5l-97 10q7 140 66.5 195.5t210.5 55.5q146 0 207.5 -59.5t61.5 -155.5v-47q0 -105 -81.5 -153.5t-262.5 -78.5zM292 -10q-47 0 -69 20.5t-22 63.5v28q0 44 22 65
t69 21t69.5 -21t22.5 -65v-28q0 -43 -23 -63.5t-69 -20.5z" />
    <glyph glyph-name="questiondown" unicode="&#xbf;" 
d="M370 810q47 0 69 -20.5t22 -63.5v-28q0 -44 -22 -65t-69 -21t-69.5 21t-22.5 65v28q0 43 23 63.5t69 20.5zM404 484l19 -78q-160 -28 -213.5 -63t-53.5 -95v-31q0 -65 34.5 -102.5t137.5 -37.5q111 0 142.5 37.5t38.5 136.5l97 -10q-7 -140 -66.5 -195.5t-210.5 -55.5
q-146 0 -207.5 59.5t-61.5 155.5v47q0 105 81.5 153.5t262.5 78.5z" />
    <glyph glyph-name="slash" unicode="/" 
d="M100 -200l367 1000h95l-367 -1000h-95z" />
    <glyph glyph-name="backslash" unicode="\" 
d="M467 -200l-367 1000h95l367 -1000h-95z" />
    <glyph glyph-name="fraction" unicode="&#x2215;" 
d="M100 0l367 800h95l-367 -800h-95z" />
    <glyph glyph-name="fraction" unicode="&#x2044;" 
d="M100 0l367 800h95l-367 -800h-95z" />
    <glyph glyph-name="bar" unicode="|" 
d="M288 -200v1000h86v-1000h-86z" />
    <glyph glyph-name="brokenbar" unicode="&#xa6;" 
d="M288 400v400h86v-400h-86zM288 -200v400h86v-400h-86z" />
    <glyph glyph-name="at" unicode="@" 
d="M388 -110q-151 0 -228 83t-77 226v318q0 133 64 213t192 80q116 0 178.5 -80t62.5 -213v-244q-4 -81 -44.5 -122t-116.5 -41q-82 0 -120.5 44.5t-38.5 124.5v128q0 78 37.5 125.5t92.5 47.5q32 0 51.5 -15.5t30.5 -36.5h26q-2 99 -40.5 153.5t-119.5 54.5
q-93 0 -133 -57.5t-40 -161.5v-318q0 -111 52 -172.5t171 -61.5q50 0 94 8t78 20v-76q-34 -10 -80.5 -18.5t-91.5 -8.5zM420 190q35 0 55 17.5t20 74.5v119q0 52 -21.5 75.5t-53.5 23.5q-35 0 -54.5 -23t-19.5 -77v-112q0 -53 18.5 -75.5t55.5 -22.5z" />
    <glyph glyph-name="ampersand" unicode="&#x26;" 
d="M623 -5q-54 17 -104 45.5t-95 63.5q-41 -52 -87.5 -83t-109.5 -31q-80 0 -130.5 53t-50.5 155q0 82 38 140.5t89 90.5q-21 49 -32.5 94.5t-11.5 81.5q0 97 43 151t124 54q71 0 116 -49t45 -116q0 -84 -43 -135t-146 -97q8 -17 18 -34.5l20 -33.5q22 -35 48.5 -68.5
t55.5 -62.5q25 43 48.5 97t44.5 115l80 -39q-25 -61 -59 -113.5l-73 -109.5l187 -80zM219 600q0 -31 7 -65.5t20 -69.5q66 33 97 72t31 92q0 42 -22 69.5t-53 27.5q-43 0 -61.5 -33t-18.5 -93zM237 75q34 0 67 20.5t64 57.5q-33 31 -61.5 65t-53.5 69l-27.5 42t-24.5 42
q-30 -30 -47 -74t-17 -90q0 -60 25.5 -96t74.5 -36z" />
    <glyph glyph-name="section" unicode="&#xa7;" 
d="M322 200q8 -1 17 -3.5t17 -4.5q46 1 81.5 24.5t35.5 78.5q0 48 -35.5 68.5t-92.5 33.5q-8 1 -17 3.5t-17 4.5q-46 -1 -82 -24.5t-36 -78.5q0 -48 36 -68.5t93 -33.5zM348 -207q-66 0 -127 24.5t-105 69.5l45 78q48 -43 92.5 -64t98.5 -21q51 0 89 21.5t38 73.5
q0 61 -48 88.5t-120 44.5q-107 22 -161 62.5t-54 116.5q0 62 33.5 98t84.5 52q-57 27 -87.5 68.5t-30.5 104.5q0 100 66.5 147t156.5 47q66 0 126.5 -24.5t105.5 -69.5l-47 -78q-47 43 -91 64t-98 21t-90.5 -24.5t-36.5 -69.5q0 -62 48 -89.5t123 -43.5q104 -23 157.5 -63.5
t53.5 -118.5q0 -60 -34 -96t-85 -52q57 -26 88 -67.5t31 -105.5q0 -97 -63 -145.5t-159 -48.5z" />
    <glyph glyph-name="paragraph" unicode="&#xb6;" 
d="M469 340h-92v-540h-97v540q-87 0 -149 47.5t-62 149.5v52q0 106 61.5 158.5t148.5 52.5h287v-1000h-97v540z" />
    <glyph glyph-name="lsquare" unicode="&#x2113;" 
d="M317 338q20 0 37 3.5t30 11.5t21.5 21t11.5 31l36 226q3 21 1.5 37.5t-9.5 28.5q-9 13 -25 19.5t-41 6.5q-21 0 -38 -4t-30 -13t-21.5 -22.5t-11.5 -31.5l-38 -230q-3 -20 -0.5 -35.5t11.5 -26.5t25.5 -16.5t40.5 -5.5zM460 28q-18 -8 -37 -14t-39 -11q-19 -5 -40 -7.5
t-42 -2.5q-50 0 -90 14t-66 41q-25 26 -35 64.5t-2 85.5l72 451q6 40 24 70.5t46 50.5q27 20 61 30t73 10q47 0 81.5 -12.5t54.5 -36.5q21 -24 28 -57.5t1 -75.5l-35 -221q-7 -40 -24 -69.5t-42 -49.5q-25 -19 -57 -28.5t-69 -9.5q-17 0 -32 2.5t-28 8.5q-13 5 -23.5 13
t-18.5 18l-14 -85q-4 -29 1 -51.5t19 -37.5t35 -23t49 -8q15 0 32 2t35 6l38 11t40 15z" />
    <glyph glyph-name="numero" unicode="&#x2116;" 
d="M187 714v-302h-87v388h118l257 -294v294h87v-388h-118zM412 -14q-67 0 -107 38.5t-40 113.5v54q0 77 40 116t107 39q69 0 108.5 -39t39.5 -116v-54q0 -75 -40 -113.5t-108 -38.5zM412 60q34 0 51 18t17 60v54q0 42 -17 62t-51 20t-50.5 -20t-16.5 -62v-54q0 -42 16.5 -60
t50.5 -18z" />
    <glyph glyph-name="periodcentered" unicode="&#x2219;" 
d="M332 292q-47 0 -76 22.5t-29 70.5v25q0 49 29 72t76 23t75.5 -23t28.5 -72v-25q0 -48 -29 -70.5t-75 -22.5z" />
    <glyph glyph-name="periodcentered" unicode="&#xb7;" 
d="M332 292q-47 0 -76 22.5t-29 70.5v25q0 49 29 72t76 23t75.5 -23t28.5 -72v-25q0 -48 -29 -70.5t-75 -22.5z" />
    <glyph glyph-name="bullet" unicode="&#x2022;" 
d="M332 236q-69 0 -111.5 30.5t-42.5 95.5v72q0 66 42.5 97.5t111.5 31.5t111 -31.5t42 -97.5v-72q0 -65 -43 -95.5t-110 -30.5z" />
    <glyph glyph-name="anoteleia" unicode="&#x387;" 
d="M337 292q-47 0 -76 22.5t-29 70.5v25q0 49 29 72t76 23t75.5 -23t28.5 -72v-25q0 -48 -29 -70.5t-75 -22.5z" />
    <glyph glyph-name="underscoredbl" unicode="&#x2017;" 
d="M74 0v96h514v-96h-514zM74 -195v96h514v-96h-514z" />
    <glyph glyph-name="minute" unicode="&#x2032;" 
d="M188 403l100 397h187l-208 -397h-79z" />
    <glyph glyph-name="second" unicode="&#x2033;" 
d="M239 403l100 397h178l-207 -397h-71zM-41 403l100 397h179l-208 -397h-71z" />
    <glyph glyph-name="overline" unicode="&#x203e;" 
d="M74 904v96h514v-96h-514z" />
    <glyph glyph-name="plus" unicode="+" 
d="M284 41v261h-210v96h210v261h95v-261h209v-96h-209v-261h-95z" />
    <glyph glyph-name="minus" unicode="&#x2212;" 
d="M74 302v96h514v-96h-514z" />
    <glyph glyph-name="plusminus" unicode="&#xb1;" 
d="M284 141v261h-210v96h210v261h95v-261h209v-96h-209v-261h-95zM74 0v96h514v-96h-514z" />
    <glyph glyph-name="divide" unicode="&#xf7;" 
d="M331 527q-35 0 -57.5 15.5t-22.5 47.5v17q0 33 22.5 49t57.5 16t57 -16t22 -49v-17q0 -32 -22 -47.5t-57 -15.5zM74 301v98h514v-98h-514zM331 27q-35 0 -57.5 15.5t-22.5 47.5v17q0 33 22.5 49t57.5 16t57 -16t22 -49v-17q0 -32 -22 -47.5t-57 -15.5z" />
    <glyph glyph-name="multiply" unicode="&#xd7;" 
d="M137 50l-62 58l196 242l-196 242l62 58l194 -239l194 234l62 -58l-196 -237l196 -237l-62 -58l-194 234z" />
    <glyph glyph-name="equal" unicode="=" 
d="M74 434v97h514v-97h-514zM74 169v97h514v-97h-514z" />
    <glyph glyph-name="less" unicode="&#x3c;" 
d="M561 21l-460 281v96l460 281v-92l-388 -237l388 -237v-92z" />
    <glyph glyph-name="greater" unicode="&#x3e;" 
d="M101 21v92l387 237l-387 237v92l460 -281v-96z" />
    <glyph glyph-name="lessequal" unicode="&#x2264;" 
d="M561 200l-460 252v96l460 252v-92l-379 -208l379 -208v-92zM101 0v88h460v-88h-460z" />
    <glyph glyph-name="greaterequal" unicode="&#x2265;" 
d="M101 200v92l379 208l-379 208v92l460 -252v-95zM561 0h-460v88h460v-88z" />
    <glyph glyph-name="approxequal" unicode="&#x2248;" 
d="M446 391q-24 0 -43 6t-36 19q-16 13 -31.5 34t-30.5 52q-19 37 -31 58t-22 32q-10 12 -20 16t-25 4q-13 0 -23.5 -6.5t-18.5 -20.5q-7 -14 -11.5 -37t-4.5 -55v-94h-85v100q0 50 11 89.5t32 65.5q20 27 48 40.5t62 13.5q24 0 43 -6t35 -19q17 -13 32 -34t30 -51
q18 -37 30 -58.5t22 -32.5q11 -12 21 -16t25 -4q12 0 22.5 6.5t18.5 20.5q7 14 11.5 37.5t4.5 55.5v93h85v-100q0 -50 -11 -89.5t-31 -65.5q-20 -27 -48 -40.5t-61 -13.5zM446 -9q-24 0 -43 6t-36 19q-16 13 -31.5 34t-30.5 52q-19 37 -31 58t-22 32q-10 12 -20 16t-25 4
q-13 0 -23.5 -6.5t-18.5 -20.5q-7 -14 -11.5 -37t-4.5 -55v-94h-85v100q0 50 11 89.5t32 65.5q20 27 48 40.5t62 13.5q24 0 43 -6t35 -19q17 -13 32 -34t30 -51q18 -37 30 -58.5t22 -32.5q11 -12 21 -16t25 -4q12 0 22.5 6.5t18.5 20.5q7 14 11.5 37.5t4.5 55.5v93h85v-100
q0 -50 -11 -89.5t-31 -65.5q-20 -27 -48 -40.5t-61 -13.5z" />
    <glyph glyph-name="notequal" unicode="&#x2260;" 
d="M588 191h-258l-44 -191h-94l44 191h-162v98h185l51 222h-236v98h259l43 191h94l-44 -191h162v-98h-184l-51 -222h235v-98z" />
    <glyph glyph-name="logicalnot" unicode="&#xac;" 
d="M494 0v302h-420v96h514v-398h-94z" />
    <glyph glyph-name="uni23af" unicode="&#x23af;" 
d="M-10 353v94h682v-94h-682z" />
    <glyph glyph-name="arrowleft" unicode="&#x2190;" 
d="M315 78l-305 312v20l305 312h19v-275h318v-94h-318v-275h-19z" />
    <glyph glyph-name="arrowup" unicode="&#x2191;" 
d="M283 3v450h-253v20l292 324h18l292 -324v-20h-252v-450h-97z" />
    <glyph glyph-name="arrowright" unicode="&#x2192;" 
d="M329 78v275h-319v94h319v275h18l305 -312v-20l-305 -312h-18z" />
    <glyph glyph-name="arrowdown" unicode="&#x2193;" 
d="M322 3l-292 324v20h253v450h97v-450h252v-20l-292 -324h-18z" />
    <glyph glyph-name="arrowboth" unicode="&#x2194;" 
d="M266 353v-275h-18l-238 312v20l238 312h18v-275h130v275h18l238 -312v-20l-238 -312h-18v275h-130z" />
    <glyph glyph-name="partialdiff" unicode="&#x2202;" 
d="M280 -10q-54 0 -96 14t-69 42t-37 70.5t1 98.5l13 72q9 47 30.5 85t53.5 64q32 27 72.5 41t87.5 14q28 0 52.5 -5.5t42.5 -15.5q19 -10 30.5 -23.5t16.5 -28.5h21q8 63 1.5 110t-32.5 85q-25 37 -74 66.5t-126 51.5l53 75q91 -27 149 -65t88 -90q30 -51 34.5 -120
t-12.5 -161l-28 -149q-11 -60 -35 -103.5t-59 -71.5q-35 -29 -79.5 -42.5t-98.5 -13.5zM290 75q37 0 64.5 8.5t46.5 25.5q19 18 31.5 43.5t19.5 61.5l12 62q6 33 2.5 56.5t-16.5 39.5t-37.5 24t-61.5 8t-65 -8t-47 -24q-19 -15 -30.5 -39t-17.5 -57l-12 -62
q-7 -36 -4.5 -61.5t15.5 -42.5t38 -26t62 -9z" />
    <glyph glyph-name="Delta#1" unicode="&#x2206;" 
d="M46 0v87l229 713h105l236 -713v-87h-570zM519 87l-189 611l-191 -611h380z" />
    <glyph glyph-name="product" unicode="&#x220f;" 
d="M99 -200v1000h464v-1000h-97v913h-270v-913h-97z" />
    <glyph glyph-name="summation" unicode="&#x2211;" 
d="M581 -113v-87h-509v87l336 426l-336 400v87h509v-87h-403l302 -359v-76l-313 -391h414z" />
    <glyph glyph-name="mu1" unicode="&#xb5;" 
d="M188 20l9 -220h-115l9 220v580h97v-406q0 -60 30.5 -86t74.5 -26q40 0 70 20t57 56v442h97v-443q0 -53 22 -67t68 -4v-89q-67 -11 -103 15t-41 89h-19q-24 -48 -63 -79.5t-96 -31.5q-29 0 -53.5 12t-43.5 36v-18z" />
    <glyph glyph-name="radical" unicode="&#x221a;" 
d="M317 0l-158 408l-105 -20v82l162 30l157 -434l171 834h90l-198 -900h-119z" />
    <glyph glyph-name="infinity" unicode="&#x221e;" 
d="M194 121q-28 0 -53.5 18t-44.5 54t-30 88.5t-11 118.5q0 67 11.5 119.5t31.5 87.5q21 36 47.5 54t57.5 18q25 0 46 -13t38 -37q16 -25 29 -57.5t22 -73.5q13 44 27 77t30 56q15 23 34 35.5t42 12.5q28 0 52.5 -18t43.5 -54t29.5 -88.5t10.5 -118.5q0 -67 -11.5 -119.5
t-31.5 -87.5q-21 -36 -49 -54t-60 -18q-24 0 -43 12.5t-34 36.5q-16 23 -28.5 54.5t-24.5 73.5q-13 -43 -26.5 -75.5t-28.5 -54.5q-16 -23 -35 -35t-41 -12zM458 197q14 0 25.5 11.5t19.5 35.5q9 25 14 64.5t5 93.5q-1 54 -6 92.5t-13 62.5q-9 24 -20 35t-25 11
q-15 0 -28 -14.5t-23 -39.5t-17 -48l-25 -85l24.5 -101t19.5 -61q10 -28 22 -42.5t27 -14.5zM204 197q15 0 27.5 14.5t22.5 38.5q11 25 15 37.5t28 92.5l-24.5 103t-19.5 62q-10 28 -22 43t-27 15q-14 0 -25.5 -11.5t-19.5 -35.5q-9 -25 -14 -64.5t-5 -93.5q1 -54 6 -92.5
t13 -62.5q9 -24 20 -35t25 -11z" />
    <glyph glyph-name="orthogonal" unicode="&#x221f;" 
d="M102 0v700h97v-614h380v-86h-477z" />
    <glyph glyph-name="intersection" unicode="&#x2229;" 
d="M100 0v439q0 67 16 118t46 85q31 34 73.5 51t95.5 17t95.5 -17t73.5 -51q30 -34 46 -85t16 -118v-439h-97v440q0 49 -8.5 84t-24.5 57q-17 22 -42 32t-59 10t-59 -10t-42 -32q-16 -22 -24.5 -57t-8.5 -84v-440h-97z" />
    <glyph glyph-name="integral" unicode="&#x222b;" 
d="M198 -206q-18 0 -35 1.5t-32 4.5q-16 3 -30.5 7.5t-27.5 10.5l19 84q13 -5 26.5 -9t25.5 -7q13 -2 24.5 -3t21.5 -1q28 0 45.5 7.5t28.5 24.5q10 18 14.5 46.5t4.5 73.5v560q0 49 12 89t36 68q23 28 56 42.5t74 14.5q18 0 35 -1.5t34 -4.5q16 -3 30.5 -7.5t27.5 -10.5
l-18 -83q-12 5 -24.5 9t-24.5 7q-13 2 -25 3t-25 1q-27 0 -44.5 -8t-27.5 -25q-10 -18 -14.5 -47t-4.5 -73v-560q0 -49 -12.5 -88.5t-36.5 -67.5t-57.5 -43t-75.5 -15z" />
    <glyph glyph-name="equivalence" unicode="&#x2261;" 
d="M74 499v97h514v-97h-514zM74 302v97h514v-97h-514zM74 105v97h514v-97h-514z" />
    <glyph glyph-name="integralbt" unicode="&#x2321;" 
d="M206 -206q-13 0 -30 1.5t-35 4.5t-35.5 7.5t-29.5 10.5l18 84q13 -5 26.5 -9t26.5 -7q12 -2 23.5 -3t22.5 -1q29 0 46.5 9t27.5 27q10 19 14 48.5t4 74.5v759h97v-785q0 -52 -13 -93.5t-36 -69.5q-24 -29 -56 -43.5t-71 -14.5z" />
    <glyph glyph-name="dollar" unicode="$" 
d="M185 570q0 -40 25.5 -65.5t92.5 -48.5v213q-56 -2 -87 -23.5t-31 -75.5zM481 231q0 41 -26 66.5t-95 48.5v-222q55 2 88 28t33 79zM369 -50h-76v97q-56 5 -109.5 22.5t-90.5 45.5l28 79q40 -28 88 -45t94 -22v236q-113 32 -158.5 78.5t-45.5 124.5q0 87 48.5 134
t145.5 53v97h76v-98q50 -5 96.5 -19.5t78.5 -36.5l-28 -81q-35 21 -75.5 34t-80.5 17v-228q116 -34 162.5 -80t46.5 -121q0 -87 -52 -136t-148 -56v-95z" />
    <glyph glyph-name="cent" unicode="&#xa2;" 
d="M195 316q0 -66 28 -98.5t88 -39.5v444q-60 -5 -88 -38t-28 -100v-168zM302 -50v142q-107 9 -155 69t-48 166v150q0 104 48 163t155 68v142h75v-141q96 -7 142 -60t53 -154l-90 -6q-4 72 -30.5 101t-83.5 32v-444q58 2 84 28t30 95l90 -6q-6 -99 -52.5 -148t-142.5 -56
v-141h-75z" />
    <glyph glyph-name="sterling" unicode="&#xa3;" 
d="M599 214q-6 -110 -55.5 -167t-133.5 -57q-31 0 -62 15.5l-68 35.5q-32 16 -56.5 21.5t-49.5 -11.5l-84 -60l-53 72l76 49q33 22 57 73.5t24 100.5q0 31 -6 55.5t-15 45.5h-127v89h81q-12 24 -19.5 53.5t-7.5 69.5q0 95 58 153t167 58q117 0 174.5 -52.5t63.5 -165.5
l-96 -10q-6 81 -36.5 111t-105.5 30q-66 0 -96.5 -31t-30.5 -95q0 -37 10.5 -66t24.5 -55h183v-89h-141q7 -20 11 -43t4 -50q0 -37 -17 -79.5t-66 -80.5l11 -16q25 17 48.5 15.5t49.5 -12.5q25 -10 47.5 -23.5t48.5 -13.5q46 0 65.5 30t25.5 110z" />
    <glyph glyph-name="currency" unicode="&#xa4;" 
d="M331 177q54 0 81 31t27 102v176q0 70 -27 103.5t-81 33.5t-81 -33.5t-27 -103.5v-176q0 -71 27 -102t81 -31zM331 90q-46 0 -83.5 13.5t-63.5 40.5l-79 -87l-59 62l93 103q-5 19 -8 41t-3 47v176q0 26 3 49t9 43l-94 103l59 62l79 -88q27 28 64.5 41.5t83.5 13.5
t83.5 -14t63.5 -42l78 84l59 -62l-93 -101q5 -19 8 -41.5t3 -47.5v-176q0 -24 -2.5 -45t-8.5 -40l93 -101l-59 -62l-77 83q-27 -28 -65 -41.5t-84 -13.5z" />
    <glyph glyph-name="yen" unicode="&#xa5;" 
d="M563 100h-183v-100h-97v100h-184v89h184v111h-184v89h137l-216 411h105l207 -431l206 431h103l-215 -411h137v-89h-183v-111h183v-89z" />
    <glyph glyph-name="franc" unicode="&#x20a3;" 
d="M377 198h-181v-198h-97v198h-92v89h92v513h482v-87h-385v-215h321v-86h-321v-125h181v-89z" />
    <glyph glyph-name="lira" unicode="&#x20a4;" 
d="M628 214q-3 -55 -17.5 -97t-39.5 -70t-60 -42.5t-79 -14.5q-20 0 -40 4.5t-38 12.5q-10 4 -29.5 13l-48.5 23q-21 9 -37.5 14.5t-32.5 8.5q-16 2 -31 -1.5t-29 -13.5l-84 -60l-54 72l77 49q16 11 30.5 30t25.5 43q12 24 18 50.5t6 50.5l-147 10v79h130q-2 5 -4.5 10.5
t-4.5 9.5q-3 5 -6.5 12l-5.5 11q-24 44 -19 35t1 -1l-8 16.5l-8 17.5h-75v79h56q0 6 -0.5 9.5t-0.5 7.5q-1 4 -1 8.5v8.5q0 48 17 87t50 66q33 28 81.5 43t110.5 15q66 0 114 -13t79 -40q32 -27 48.5 -68t19.5 -97l-97 -10q-3 40 -13 66t-29 42t-48.5 23t-73.5 7
q-43 0 -73.5 -8t-49.5 -23q-20 -15 -29 -38t-9 -54v-8t1 -8q0 -4 0.5 -8t0.5 -8h249v-79h-221q2 -5 4.5 -9.5t4.5 -8.5l5.5 -10.5t5.5 -9.5l9.5 -17.5t8.5 -17.5t7.5 -18.5t6.5 -19.5h169v-79h-157v-2q0 -19 -3.5 -38t-13.5 -40q-9 -20 -26 -41t-43 -41l12 -16
q15 10 30.5 14.5t30.5 3.5q15 0 30.5 -4t32.5 -10q11 -4 31.5 -12.5l33.5 -13.5q12 -5 26 -8.5t27 -3.5q28 0 45.5 8t28.5 25t16.5 42.5t8.5 64.5z" />
    <glyph glyph-name="peseta" unicode="&#x20a7;" 
d="M112 357h26q9 0 16 4.5t11 14.5q5 9 7.5 26t2.5 41v192q0 24 -2.5 41t-7.5 26q-4 10 -11 14.5t-16 4.5h-26v-364zM634 151q0 -39 -9 -69t-25 -51q-17 -20 -40 -30.5t-51 -10.5q-7 0 -14.5 0.5t-14.5 2.5q-6 1 -13 3.5t-13 5.5q-8 -3 -16 -5t-15 -3q-7 -2 -14.5 -2.5
t-14.5 -0.5q-20 0 -36 8.5t-28 27.5q-13 19 -19.5 49t-6.5 71v374h-55v-80q0 -43 -7.5 -74t-21.5 -50t-34.5 -28t-46.5 -9h-27v-280h-74v800h102q26 0 46.5 -9t34.5 -28t21 -50t7 -74v-39h55v200h74v-200h75v-39q7 12 16 21t19 16q10 6 22 9t25 3q14 0 26 -2.5t24 -7.5
t24 -13t25 -19l-42 -68l-16.5 14.5t-12.5 9.5q-6 3 -12.5 5t-13.5 2q-9 0 -15.5 -4.5t-10.5 -13.5q-5 -9 -7 -23t-2 -34q0 -21 5.5 -39t14.5 -34t17.5 -27.5l28.5 -37.5q15 -19 26 -35.5t20 -36.5q9 -19 14.5 -43t5.5 -52zM509 69q12 0 21.5 4t16.5 13q6 9 9.5 23.5
t3.5 34.5q0 17 -5 34.5t-14 33.5q-9 17 -19.5 32l-26.5 37l-27 38t-20 35q-9 20 -14.5 43.5t-5.5 51.5q0 10 0.5 19.5t1.5 18.5t2.5 17.5t3.5 16.5h-58v-386q0 -16 1.5 -28t4.5 -20t7.5 -12t9.5 -4q4 0 9 0.5t9 1.5q5 1 10 3l10 4l12 20q12 -10 18 -14.5t13 -8.5
q6 -4 12.5 -6t14.5 -2z" />
    <glyph glyph-name="Euro" unicode="&#x20ac;" 
d="M360 -10q-124 0 -183 71.5t-59 199.5v4h-91v79h91v110h-91v79h91v3q0 129 59.5 201.5t183.5 72.5q123 0 177 -55t60 -162l-96 -10q-5 72 -32 106t-110 34q-84 0 -115.5 -47t-31.5 -138v-5h182v-79h-182v-110h182v-79h-182v-5q0 -92 31.5 -137.5t115.5 -45.5q83 0 110 33
t32 103l96 -10q-6 -106 -60.5 -159.5t-177.5 -53.5z" />
    <glyph glyph-name="florin" unicode="&#x192;" 
d="M209 -6q-15 0 -33 1.5t-37 4.5t-36 7.5t-30 10.5l19 84q13 -5 26.5 -9t25.5 -7q13 -2 24.5 -3t21.5 -1q27 0 44.5 5.5t28.5 17.5q11 13 15.5 33t4.5 50v223h-193v87h193v142q0 38 12.5 69t34.5 54q23 22 54.5 33.5t68.5 11.5q15 0 33 -1.5t37 -4.5t36 -7.5t29 -10.5
l-18 -83q-13 5 -26.5 9t-26.5 7q-12 2 -23.5 3t-22.5 1q-26 0 -43.5 -6t-27.5 -18q-11 -13 -15.5 -33t-4.5 -50v-116h200v-87h-200v-249q0 -38 -12 -69.5t-35 -53.5t-54.5 -33.5t-69.5 -11.5z" />
    <glyph glyph-name="asciicircum" unicode="^" 
d="M524 200l-192 485l-185 -485h-93l229 600h97l236 -600h-92z" />
    <glyph glyph-name="asciitilde" unicode="~" 
d="M452 216q-53 0 -87 32t-68 116q-30 75 -47.5 100.5t-42.5 25.5q-27 0 -42.5 -25t-15.5 -88v-151h-85v157q0 95 42 148t103 53q54 0 88 -31.5t68 -117.5q29 -75 46.5 -100.5t43.5 -25.5q25 0 41 27.5t16 89.5v149h85v-156q0 -96 -41 -149.5t-104 -53.5z" />
    <glyph glyph-name="acute" unicode="&#xb4;" 
d="M225 700l124 200h142l-180 -200h-86z" />
    <glyph glyph-name="grave" unicode="`" 
d="M372 403l-208 397h188l100 -397h-80z" />
    <glyph glyph-name="hungarumlaut" unicode="&#x2dd;" 
d="M399 700l51 200h131l-116 -200h-66zM188 700l50 200h132l-116 -200h-66z" />
    <glyph glyph-name="circumflex" unicode="&#x2c6;" 
d="M171 708l-39 60l163 148h70l165 -148l-39 -60l-161 114z" />
    <glyph glyph-name="caron" unicode="&#x2c7;" 
d="M297 704l-165 148l39 60l161 -113l159 113l39 -60l-163 -148h-70z" />
    <glyph glyph-name="breve" unicode="&#x2d8;" 
d="M331 693q-94 0 -154 49t-61 159h95q1 -72 30.5 -101.5t89.5 -29.5t89.5 29.5t30.5 101.5h95q-1 -110 -61 -159t-154 -49z" />
    <glyph glyph-name="tilde" unicode="&#x2dc;" 
d="M404 710q-34 0 -55.5 18t-37.5 40l-29.5 40t-30.5 18q-18 0 -30 -20.5t-11 -74.5v-11h-74v15q0 75 31.5 124.5t90.5 49.5q37 0 59 -18t38 -40l28 -40t28 -18q18 0 30 20.5t12 74.5v11h73v-15q0 -76 -31.5 -125t-90.5 -49z" />
    <glyph glyph-name="macron" unicode="&#x2c9;" 
d="M146 757v86h370v-86h-370z" />
    <glyph glyph-name="macron" unicode="&#xaf;" 
d="M146 757v86h370v-86h-370z" />
    <glyph glyph-name="dieresis" unicode="&#xa8;" 
d="M225 711q-28 0 -45 12t-17 44v7q0 33 17 45.5t45 12.5t44.5 -12.5t16.5 -45.5v-7q0 -32 -17 -44t-44 -12zM437 711q-28 0 -44.5 12t-16.5 44v7q0 33 16.5 45.5t44.5 12.5t45 -12.5t17 -45.5v-7q0 -32 -17.5 -44t-44.5 -12z" />
    <glyph glyph-name="dotaccent" unicode="&#x2d9;" 
d="M331 711q-36 0 -58 12t-22 44v7q0 33 22 45.5t58 12.5t58 -12.5t22 -45.5v-7q0 -32 -22.5 -44t-57.5 -12z" />
    <glyph glyph-name="ring" unicode="&#x2da;" 
d="M331 686q-67 0 -108 35t-41 109v32q0 75 41 111t108 36t108 -36t41 -111v-32q0 -74 -41 -109t-108 -35zM331 755q37 0 56 17.5t19 57.5v32q0 40 -19 59t-56 19t-56 -19t-19 -59v-32q0 -40 19 -57.5t56 -17.5z" />
    <glyph glyph-name="cedilla" unicode="&#xb8;" 
d="M303 0l19 42q46 -9 81.5 -40t35.5 -93q0 -64 -42.5 -94t-94.5 -30q-62 0 -101 23.5t-43 80.5l85 10q1 -19 13.5 -26.5t40.5 -7.5q27 0 41 12.5t14 46.5q0 35 -11 51.5t-38 24.5z" />
    <glyph glyph-name="ogonek" unicode="&#x2db;" 
d="M379 -215q-59 0 -99 32t-40 87q0 48 35.5 85.5t78.5 55.5l25 -22q-31 -21 -42.5 -46.5t-11.5 -45.5q0 -28 17.5 -42.5t48.5 -14.5q16 0 41 3t41 7v-89q-19 -4 -45.5 -7t-48.5 -3z" />
    <glyph glyph-name="tonos" unicode="&#x384;" 
d="M262 700l68 200h134l-126 -200h-76z" />
    <glyph glyph-name="dieresistonos" unicode="&#x385;" 
d="M271 700l42 200h113l-96 -200h-59zM168 701q-23 0 -37.5 11.5t-14.5 44.5v6q0 33 14.5 45.5t37.5 12.5t37.5 -12.5t14.5 -45.5v-6q0 -33 -15 -44.5t-37 -11.5zM494 701q-23 0 -37.5 11.5t-14.5 44.5v6q0 33 14.5 45.5t37.5 12.5t37.5 -12.5t14.5 -45.5v-6
q0 -33 -15 -44.5t-37 -11.5z" />
    <glyph glyph-name="copyright" unicode="&#xa9;" 
d="M331 -110q-158 0 -230.5 95.5t-72.5 271.5v222q0 178 73 274.5t231 96.5t230 -96.5t72 -274.5v-222q0 -176 -72.5 -271.5t-230.5 -95.5zM331 -47q128 0 181.5 76.5t53.5 233.5v209q0 157 -53.5 236t-181.5 79t-181.5 -79t-53.5 -236v-208q0 -157 53.5 -234t181.5 -77z
M339 102q-78 0 -111.5 47t-33.5 137v170q0 89 34 135.5t111 46.5q66 0 96 -42.5t36 -130.5l-79 -6q-4 60 -15 80t-39 20q-31 0 -45 -22t-14 -73v-188q0 -51 14.5 -73t45.5 -22q28 0 38.5 17.5t14.5 74.5l79 -6q-6 -86 -36 -125.5t-96 -39.5z" />
    <glyph glyph-name="registered" unicode="&#xae;" 
d="M331 139q-135 0 -196.5 74.5t-61.5 198.5v173q0 125 61.5 200t197.5 75q134 0 195.5 -75t61.5 -200v-173q0 -124 -61.5 -198.5t-196.5 -74.5zM331 193q107 1 153 58t46 171v152q0 115 -46 173.5t-153 58.5t-153 -58.5t-46 -173.5v-152q0 -114 46 -171t153 -58zM284 501
h56q21 0 32 9t11 33v28q0 28 -11 40t-32 12h-56v-122zM284 325h-64v355h121q51 0 78.5 -28.5t27.5 -80.5v-28q0 -36 -15.5 -59.5t-44.5 -33.5l67 -125h-72l-61 118h-37v-118z" />
    <glyph glyph-name="trademark" unicode="&#x2122;" 
d="M102 351v379h-83v70h231v-70h-74v-379h-74zM359 725l3 -374h-67v449h105l53 -205l60 205h94v-449h-66l2 368l-67 -231h-49z" />
    <glyph glyph-name="degree" unicode="&#xb0;" 
d="M331 348q-83 0 -134 44t-51 134v98q0 92 51 137t134 45q84 0 134.5 -45t50.5 -137v-98q0 -90 -51 -134t-134 -44zM331 432q47 0 71 21.5t24 71.5v100q0 49 -24 72.5t-71 23.5q-48 0 -71.5 -23.5t-23.5 -72.5v-100q0 -50 23.5 -71.5t71.5 -21.5z" />
    <glyph glyph-name="careof" unicode="&#x2105;" 
d="M255 588l86 -8q0 -31 -10.5 -55t-29.5 -39q-20 -16 -47 -23.5t-60 -7.5q-34 0 -61 9.5t-47 28.5q-19 19 -29.5 48.5t-10.5 68.5v56q0 39 10.5 68t30.5 48q19 19 46.5 28.5t60.5 9.5q34 0 61 -7.5t46 -23.5q19 -15 29.5 -38.5t10.5 -54.5l-86 -8q0 14 -4 24t-12 17
q-8 6 -19.5 9.5t-25.5 3.5t-25.5 -4.5t-19.5 -13.5t-12.5 -23t-4.5 -33v-60q0 -20 4.5 -34.5t12.5 -23.5t19 -13.5t26 -4.5t26 3t19 10t12 17.5t4 25.5zM37 200l545 460l47 -58l-546 -460zM469 -22q-34 0 -61.5 9t-46.5 28q-20 19 -30.5 48t-10.5 67v60q0 38 10.5 67
t30.5 48t47.5 28.5t60.5 9.5q34 0 61 -9.5t46 -28.5t29.5 -48t10.5 -67v-60q0 -38 -10.5 -67t-29.5 -48q-20 -19 -47 -28t-60 -9zM469 56q14 0 25.5 4t18.5 13q8 9 12 22.5t4 32.5v64q0 19 -4 33t-12 23q-7 9 -18.5 13.5t-25.5 4.5t-25.5 -4.5t-19.5 -13.5t-12.5 -23
t-4.5 -33v-64q0 -19 4.5 -32.5t12.5 -22.5t19 -13t26 -4z" />
    <glyph glyph-name="uni2117" unicode="&#x2117;" 
d="M331 -110q-155 0 -226.5 95.5t-71.5 271.5v222q0 178 71.5 274.5t227.5 96.5q155 0 226 -96.5t71 -274.5v-222q0 -176 -71.5 -271.5t-226.5 -95.5zM331 -47q125 0 177.5 76.5t52.5 233.5v209q0 157 -52.5 236t-177.5 79t-177.5 -79t-52.5 -236v-208q0 -157 52.5 -234
t177.5 -77zM208 123v502h135q73 0 111 -41.5t38 -121.5v-37q0 -73 -38 -111t-112 -38h-48v-153h-86zM294 353h48q35 0 50 16.5t15 55.5v37q0 44 -15 63.5t-50 19.5h-48v-192z" />
    <glyph glyph-name="estimated" unicode="&#x212e;" 
d="M327 -12q-128 0 -209.5 116t-81.5 298q0 185 81 299t213 114q128 0 209 -128.5t85 -336.5h-420v-233q27 -25 57 -38.5t66 -13.5q69 0 121 31t83 85l44 -57q-39 -63 -101.5 -99.5t-146.5 -36.5zM204 430h247v253q-26 24 -54.5 39.5t-68.5 15.5q-37 0 -67.5 -13t-56.5 -39
v-256z" />
    <glyph glyph-name="arrowupdn" unicode="&#x2195;" 
d="M340 -97h-18l-292 327v20h253v300h-253v20l292 327h18l292 -327v-20h-252v-300h252v-20z" />
    <glyph glyph-name="arrowupdnbse" unicode="&#x21a8;" 
d="M74 -196v96h514v-96h-514zM340 -97h-18l-292 327v20h253v300h-253v20l292 327h18l292 -327v-20h-252v-300h252v-20z" />
    <glyph glyph-name="logicalnotreversed" unicode="&#x2310;" 
d="M70 0v398h522v-96h-427v-302h-95z" />
    <glyph glyph-name="lighthorzbxd" unicode="&#x2500;" 
d="M-20 350h702v-100h-702v100z" />
    <glyph glyph-name="heavyhorzbxd" unicode="&#x2501;" 
d="M-20 400h702v-200h-702v200z" />
    <glyph glyph-name="lightvertbxd" unicode="&#x2502;" 
d="M281 1050h100v-1500h-100v1500z" />
    <glyph glyph-name="heavyvertbxd" unicode="&#x2503;" 
d="M231 1050h200v-1500h-200v1500z" />
    <glyph glyph-name="lighttrpldashhorzbxd" unicode="&#x2504;" 
d="M36 350h147v-100h-147v100zM256 350h147v-100h-147v100zM476 350h147v-100h-147v100z" />
    <glyph glyph-name="heavytrpldashhorzbxd" unicode="&#x2505;" 
d="M36 400h147v-200h-147v200zM256 400h147v-200h-147v200zM476 400h147v-200h-147v200z" />
    <glyph glyph-name="lighttrpldashvertbxd" unicode="&#x2506;" 
d="M281 55h100v-244h-100v244zM281 421h100v-244h-100v244zM281 787h100v-244h-100v244zM281 1153h100v-244h-100v244z" />
    <glyph glyph-name="heavytrpldashvertbxd" unicode="&#x2507;" 
d="M231 55h200v-244h-200v244zM231 421h200v-244h-200v244zM231 787h200v-244h-200v244zM231 1153h200v-244h-200v244z" />
    <glyph glyph-name="lightquaddashhorzbxd" unicode="&#x2508;" 
d="M20 350h124v-100h-124v100zM185 350h124v-100h-124v100zM350 350h124v-100h-124v100zM515 350h124v-100h-124v100z" />
    <glyph glyph-name="heavyquaddashhorzbxd" unicode="&#x2509;" 
d="M20 400h124v-200h-124v200zM185 400h124v-200h-124v200zM350 400h124v-200h-124v200zM515 400h124v-200h-124v200z" />
    <glyph glyph-name="lightquaddashvertbxd" unicode="&#x250a;" 
d="M281 -9h100v-207h-100v207zM281 266h100v-207h-100v207zM281 541h100v-207h-100v207zM281 816h100v-207h-100v207z" />
    <glyph glyph-name="heavyquaddashvertbxd" unicode="&#x250b;" 
d="M231 -9h200v-207h-200v207zM231 266h200v-207h-200v207zM231 541h200v-207h-200v207zM231 816h200v-207h-200v207z" />
    <glyph glyph-name="lightdnrightbxd" unicode="&#x250c;" 
d="M281 350h401v-100h-301v-700h-100v800z" />
    <glyph glyph-name="dnlightrightheavybxd" unicode="&#x250d;" 
d="M281 400h401v-200h-301v-650h-100v850z" />
    <glyph glyph-name="dnheavyrightlightbxd" unicode="&#x250e;" 
d="M231 350h451v-100h-251v-700h-200v800z" />
    <glyph glyph-name="heavydnrightbxd" unicode="&#x250f;" 
d="M231 400h451v-200h-251v-650h-200v850z" />
    <glyph glyph-name="lightdnleftbxd" unicode="&#x2510;" 
d="M-20 350h401v-800h-100v700h-301v100z" />
    <glyph glyph-name="dnlightleftheavybxd" unicode="&#x2511;" 
d="M-20 400h401v-850h-100v650h-301v200z" />
    <glyph glyph-name="dnheavyleftlightbxd" unicode="&#x2512;" 
d="M-20 350h451v-800h-200v700h-251v100z" />
    <glyph glyph-name="heavydnleftbxd" unicode="&#x2513;" 
d="M-20 400h451v-850h-200v650h-251v200z" />
    <glyph glyph-name="lightuprightbxd" unicode="&#x2514;" 
d="M281 1050h100v-700h301v-100h-401v800z" />
    <glyph glyph-name="uplightrightheavybxd" unicode="&#x2515;" 
d="M281 1050h100v-650h301v-200h-401v850z" />
    <glyph glyph-name="upheavyrightlightbxd" unicode="&#x2516;" 
d="M231 1050h200v-700h251v-100h-451v800z" />
    <glyph glyph-name="heavyuprightbxd" unicode="&#x2517;" 
d="M231 1050h200v-650h251v-200h-451v850z" />
    <glyph glyph-name="lightupleftbxd" unicode="&#x2518;" 
d="M-20 350h301v700h100v-800h-401v100z" />
    <glyph glyph-name="uplightleftheavybxd" unicode="&#x2519;" 
d="M-20 400h301v650h100v-850h-401v200z" />
    <glyph glyph-name="upheavyleftlightbxd" unicode="&#x251a;" 
d="M-20 350h251v700h200v-800h-451v100z" />
    <glyph glyph-name="heavyupleftbxd" unicode="&#x251b;" 
d="M-20 400h251v650h200v-850h-451v200z" />
    <glyph glyph-name="lightvertrightbxd" unicode="&#x251c;" 
d="M281 1050h100v-700h301v-100h-301v-700h-100v1500z" />
    <glyph glyph-name="vertlightrightheavybxd" unicode="&#x251d;" 
d="M281 1050h100v-650h301v-200h-301v-650h-100v1500z" />
    <glyph glyph-name="upheavyrightdnlightbxd" unicode="&#x251e;" 
d="M231 1050h200v-700h251v-100h-301v-700h-100v700h-50v800z" />
    <glyph glyph-name="dnheavyrightuplightbxd" unicode="&#x251f;" 
d="M231 350h50v700h100v-700h301v-100h-251v-700h-200v800z" />
    <glyph glyph-name="vertheavyrightlightbxd" unicode="&#x2520;" 
d="M231 1050h200v-700h251v-100h-251v-700h-200v1500z" />
    <glyph glyph-name="dnlightrightupheavybxd" unicode="&#x2521;" 
d="M231 1050h200v-650h251v-200h-301v-650h-100v650h-50v850z" />
    <glyph glyph-name="uplightrightdnheavybxd" unicode="&#x2522;" 
d="M231 400h50v650h100v-650h301v-200h-251v-650h-200v850z" />
    <glyph glyph-name="heavyvertrightbxd" unicode="&#x2523;" 
d="M231 1050h200v-650h251v-200h-251v-650h-200v1500z" />
    <glyph glyph-name="lightvertleftbxd" unicode="&#x2524;" 
d="M-20 350h301v700h100v-1500h-100v700h-301v100z" />
    <glyph glyph-name="vertlightleftheavybxd" unicode="&#x2525;" 
d="M-20 400h301v650h100v-1500h-100v650h-301v200z" />
    <glyph glyph-name="upheavyleftdnlightbxd" unicode="&#x2526;" 
d="M-20 350h251v700h200v-800h-50v-700h-100v700h-301v100z" />
    <glyph glyph-name="dnheavyleftuplightbxd" unicode="&#x2527;" 
d="M-20 350h301v700h100v-700h50v-800h-200v700h-251v100z" />
    <glyph glyph-name="vertheavyleftlightbxd" unicode="&#x2528;" 
d="M-20 350h251v700h200v-1500h-200v700h-251v100z" />
    <glyph glyph-name="dnlightleftupheavybxd" unicode="&#x2529;" 
d="M-20 400h251v650h200v-850h-50v-650h-100v650h-301v200z" />
    <glyph glyph-name="uplightleftdnheavybxd" unicode="&#x252a;" 
d="M-20 400h301v650h100v-650h50v-850h-200v650h-251v200z" />
    <glyph glyph-name="heavyvertleftbxd" unicode="&#x252b;" 
d="M-20 400h251v650h200v-1500h-200v650h-251v200z" />
    <glyph glyph-name="lightdnhorzbxd" unicode="&#x252c;" 
d="M-20 350h702v-100h-301v-700h-100v700h-301v100z" />
    <glyph glyph-name="leftheavyrightdnlightbxd" unicode="&#x252d;" 
d="M-20 400h401v-50h301v-100h-301v-700h-100v650h-301v200z" />
    <glyph glyph-name="rightheavyleftdnlightbxd" unicode="&#x252e;" 
d="M-20 350h301v50h401v-200h-301v-650h-100v700h-301v100z" />
    <glyph glyph-name="dnlighthorzheavybxd" unicode="&#x252f;" 
d="M-20 400h702v-200h-301v-650h-100v650h-301v200z" />
    <glyph glyph-name="dnheavyhorzlightbxd" unicode="&#x2530;" 
d="M-20 350h702v-100h-251v-700h-200v700h-251v100z" />
    <glyph glyph-name="rightlightleftdnheavybxd" unicode="&#x2531;" 
d="M-20 400h451v-50h251v-100h-251v-700h-200v650h-251v200z" />
    <glyph glyph-name="leftlightrightdnheavybxd" unicode="&#x2532;" 
d="M-20 350h251v50h451v-200h-251v-650h-200v700h-251v100z" />
    <glyph glyph-name="heavydnhorzbxd" unicode="&#x2533;" 
d="M-20 400h702v-200h-251v-650h-200v650h-251v200z" />
    <glyph glyph-name="lightuphorzbxd" unicode="&#x2534;" 
d="M-20 350h301v700h100v-700h301v-100h-702v100z" />
    <glyph glyph-name="leftheavyrightuplightbxd" unicode="&#x2535;" 
d="M-20 400h301v650h100v-700h301v-100h-301v-50h-401v200z" />
    <glyph glyph-name="rightheavyleftuplightbxd" unicode="&#x2536;" 
d="M-20 350h301v700h100v-650h301v-200h-401v50h-301v100z" />
    <glyph glyph-name="uplighthorzheavybxd" unicode="&#x2537;" 
d="M-20 400h301v650h100v-650h301v-200h-702v200z" />
    <glyph glyph-name="upheavyhorzlightbxd" unicode="&#x2538;" 
d="M-20 350h251v700h200v-700h251v-100h-702v100z" />
    <glyph glyph-name="rightlightleftupheavybxd" unicode="&#x2539;" 
d="M-20 400h251v650h200v-700h251v-100h-251v-50h-451v200z" />
    <glyph glyph-name="leftlightrightupheavybxd" unicode="&#x253a;" 
d="M-20 350h251v700h200v-650h251v-200h-451v50h-251v100z" />
    <glyph glyph-name="heavyuphorzbxd" unicode="&#x253b;" 
d="M-20 400h251v650h200v-650h251v-200h-702v200z" />
    <glyph glyph-name="lightverthorzbxd" unicode="&#x253c;" 
d="M-20 350h301v700h100v-700h301v-100h-301v-700h-100v700h-301v100z" />
    <glyph glyph-name="leftheavyrightvertlightbxd" unicode="&#x253d;" 
d="M-20 400h301v650h100v-700h301v-100h-301v-700h-100v650h-301v200z" />
    <glyph glyph-name="rightheavyleftvertlightbxd" unicode="&#x253e;" 
d="M-20 350h301v700h100v-650h301v-200h-301v-650h-100v700h-301v100z" />
    <glyph glyph-name="vertlighthorzheavybxd" unicode="&#x253f;" 
d="M-20 400h301v650h100v-650h301v-200h-301v-650h-100v650h-301v200z" />
    <glyph glyph-name="upheavydnhorzlightbxd" unicode="&#x2540;" 
d="M-20 350h251v700h200v-700h251v-100h-301v-700h-100v700h-301v100z" />
    <glyph glyph-name="dnheavyuphorzlightbxd" unicode="&#x2541;" 
d="M-20 350h301v700h100v-700h301v-100h-251v-700h-200v700h-251v100z" />
    <glyph glyph-name="vertheavyhorzlightbxd" unicode="&#x2542;" 
d="M-20 350h251v700h200v-700h251v-100h-251v-700h-200v700h-251v100z" />
    <glyph glyph-name="leftupheavyrightdnlightbxd" unicode="&#x2543;" 
d="M-20 400h251v650h200v-700h251v-100h-251v-50h-50v-650h-100v650h-301v200z" />
    <glyph glyph-name="rightupheavyleftdnlightbxd" unicode="&#x2544;" 
d="M-20 350h251v700h200v-650h251v-200h-301v-650h-100v650h-50v50h-251v100z" />
    <glyph glyph-name="leftdnheavyrightuplightbxd" unicode="&#x2545;" 
d="M-20 400h301v650h100v-650h50v-50h251v-100h-251v-700h-200v650h-251v200z" />
    <glyph glyph-name="rightdnheavyleftuplightbxd" unicode="&#x2546;" 
d="M-20 350h251v50h50v650h100v-650h301v-200h-251v-650h-200v700h-251v100z" />
    <glyph glyph-name="dnlightuphorzheavybxd" unicode="&#x2547;" 
d="M-20 400h251v650h200v-650h251v-200h-301v-650h-100v650h-301v200z" />
    <glyph glyph-name="uplightdnhorzheavybxd" unicode="&#x2548;" 
d="M-20 400h301v650h100v-650h301v-200h-251v-650h-200v650h-251v200z" />
    <glyph glyph-name="rightlightleftvertheavybxd" unicode="&#x2549;" 
d="M-20 400h251v650h200v-700h251v-100h-251v-700h-200v650h-251v200z" />
    <glyph glyph-name="leftlightrightvertheavybxd" unicode="&#x254a;" 
d="M-20 350h251v700h200v-650h251v-200h-251v-650h-200v700h-251v100z" />
    <glyph glyph-name="heavyverthorzbxd" unicode="&#x254b;" 
d="M-20 400h251v650h200v-650h251v-200h-251v-650h-200v650h-251v200z" />
    <glyph glyph-name="lightdbldashhorzbxd" unicode="&#x254c;" 
d="M82 350h166v-100h-166v100zM413 350h166v-100h-166v100z" />
    <glyph glyph-name="heavydbldashhorzbxd" unicode="&#x254d;" 
d="M82 400h166v-200h-166v200zM413 400h166v-200h-166v200z" />
    <glyph glyph-name="lightdbldashvertbxd" unicode="&#x254e;" 
d="M281 162h100v-275h-100v275zM281 712h100v-275h-100v275z" />
    <glyph glyph-name="heavydbldashvertbxd" unicode="&#x254f;" 
d="M231 162h200v-275h-200v275zM231 712h200v-275h-200v275z" />
    <glyph glyph-name="dblhorzbxd" unicode="&#x2550;" 
d="M-20 450h702v-100h-702v100zM-20 250h702v-100h-702v100z" />
    <glyph glyph-name="dblvertbxd" unicode="&#x2551;" 
d="M181 1050h100v-1500h-100v1500zM381 1050h100v-1500h-100v1500z" />
    <glyph glyph-name="dnsngrightdblbxd" unicode="&#x2552;" 
d="M281 450h401v-100h-301v-100h301v-100h-301v-600h-100v900z" />
    <glyph glyph-name="dndblrightsngbxd" unicode="&#x2553;" 
d="M181 350h501v-100h-201v-700h-100v700h-100v-700h-100v800z" />
    <glyph glyph-name="dbldnrightbxd" unicode="&#x2554;" 
d="M181 450h501v-100h-401v-800h-100v900zM381 250h301v-100h-201v-600h-100v700z" />
    <glyph glyph-name="dnsngleftdblbxd" unicode="&#x2555;" 
d="M-20 450h401v-900h-100v600h-301v100h301v100h-301v100z" />
    <glyph glyph-name="dndblleftsngbxd" unicode="&#x2556;" 
d="M-20 350h501v-800h-100v700h-100v-700h-100v700h-201v100z" />
    <glyph glyph-name="dbldnleftbxd" unicode="&#x2557;" 
d="M-20 450h501v-900h-100v800h-401v100zM-20 250h301v-700h-100v600h-201v100z" />
    <glyph glyph-name="upsngrightdblbxd" unicode="&#x2558;" 
d="M281 1050h100v-600h301v-100h-301v-100h301v-100h-401v900z" />
    <glyph glyph-name="updblrightsngbxd" unicode="&#x2559;" 
d="M181 1050h100v-700h100v700h100v-700h201v-100h-501v800z" />
    <glyph glyph-name="dbluprightbxd" unicode="&#x255a;" 
d="M181 1050h100v-800h401v-100h-501v900zM381 1050h100v-600h201v-100h-301v700z" />
    <glyph glyph-name="upsngleftdblbxd" unicode="&#x255b;" 
d="M-20 450h301v600h100v-900h-401v100h301v100h-301v100z" />
    <glyph glyph-name="updblleftsngbxd" unicode="&#x255c;" 
d="M-20 350h201v700h100v-700h100v700h100v-800h-501v100z" />
    <glyph glyph-name="dblupleftbxd" unicode="&#x255d;" 
d="M-20 250h401v800h100v-900h-501v100zM-20 450h201v600h100v-700h-301v100z" />
    <glyph glyph-name="vertsngrightdblbxd" unicode="&#x255e;" 
d="M281 1050h100v-600h301v-100h-301v-100h301v-100h-301v-600h-100v1500z" />
    <glyph glyph-name="vertdblrightsngbxd" unicode="&#x255f;" 
d="M381 1050h100v-700h201v-100h-201v-700h-100v1500zM181 1050h100v-1500h-100v1500z" />
    <glyph glyph-name="dblvertrightbxd" unicode="&#x2560;" 
d="M181 1050h100v-1500h-100v1500zM381 1050h100v-600h201v-100h-301v700zM381 250h301v-100h-201v-600h-100v700z" />
    <glyph glyph-name="vertsngleftdblbxd" unicode="&#x2561;" 
d="M-20 450h301v600h100v-1500h-100v600h-301v100h301v100h-301v100z" />
    <glyph glyph-name="vertdblleftsngbxd" unicode="&#x2562;" 
d="M-20 350h201v700h100v-1500h-100v700h-201v100zM381 1050h100v-1500h-100v1500z" />
    <glyph glyph-name="dblvertleftbxd" unicode="&#x2563;" 
d="M381 1050h100v-1500h-100v1500zM-20 250h301v-700h-100v600h-201v100zM-20 450h201v600h100v-700h-301v100z" />
    <glyph glyph-name="dnsnghorzdblbxd" unicode="&#x2564;" 
d="M-20 250h702v-100h-301v-600h-100v600h-301v100zM-20 450h702v-100h-702v100z" />
    <glyph glyph-name="dndblhorzsngbxd" unicode="&#x2565;" 
d="M-20 350h702v-100h-201v-700h-100v700h-100v-700h-100v700h-201v100z" />
    <glyph glyph-name="dbldnhorzbxd" unicode="&#x2566;" 
d="M-20 250h301v-700h-100v600h-201v100zM381 250h301v-100h-201v-600h-100v700zM-20 450h702v-100h-702v100z" />
    <glyph glyph-name="upsnghorzdblbxd" unicode="&#x2567;" 
d="M-20 450h301v600h100v-600h301v-100h-702v100zM-20 250h702v-100h-702v100z" />
    <glyph glyph-name="updblhorzsngbxd" unicode="&#x2568;" 
d="M-20 350h201v700h100v-700h100v700h100v-700h201v-100h-702v100z" />
    <glyph glyph-name="dbluphorzbxd" unicode="&#x2569;" 
d="M-20 450h201v600h100v-700h-301v100zM381 1050h100v-600h201v-100h-301v700zM-20 250h702v-100h-702v100z" />
    <glyph glyph-name="vertsnghorzdblbxd" unicode="&#x256a;" 
d="M-20 450h301v600h100v-600h301v-100h-301v-100h301v-100h-301v-600h-100v600h-301v100h301v100h-301v100z" />
    <glyph glyph-name="vertdblhorzsngbxd" unicode="&#x256b;" 
d="M-20 350h201v700h100v-700h100v700h100v-700h201v-100h-201v-700h-100v700h-100v-700h-100v700h-201v100z" />
    <glyph glyph-name="dblverthorzbxd" unicode="&#x256c;" 
d="M-20 450h201v600h100v-700h-301v100zM-20 250h301v-700h-100v600h-201v100zM381 1050h100v-600h201v-100h-301v700zM381 250h301v-100h-201v-600h-100v700z" />
    <glyph glyph-name="lightarcdnrightbxd" unicode="&#x256d;" 
d="M281 -31q0 79 30 148t81.5 121t121 82t148.5 30h20v-100h-20q-58 0 -109 -22t-89.5 -60.5t-60.5 -89.5t-22 -109v-419h-100v419z" />
    <glyph glyph-name="lightarcdnleftbxd" unicode="&#x256e;" 
d="M381 -450h-100v419q0 58 -22 109t-60.5 89.5t-89.5 60.5t-109 22h-20v100h20q79 0 148 -30t121 -82t82 -121t30 -148v-419z" />
    <glyph glyph-name="lightarcupleftbxd" unicode="&#x256f;" 
d="M381 631q0 -79 -30 -148.5t-82 -121t-121 -81.5t-148 -30h-20v100h20q58 0 109 22t89.5 60.5t60.5 89.5t22 109v419h100v-419z" />
    <glyph glyph-name="lightarcuprightbxd" unicode="&#x2570;" 
d="M281 1050h100v-419q0 -58 22 -109t60.5 -89.5t89.5 -60.5t109 -22h20v-100h-20q-79 0 -148.5 30t-121 81.5t-81.5 121t-30 148.5v419z" />
    <glyph glyph-name="lightdiaguprightdnleftbxd" unicode="&#x2571;" 
d="M604 850h58v-97l-604 -1003h-58v97z" />
    <glyph glyph-name="lightdiagupleftdnrightbxd" unicode="&#x2572;" 
d="M662 -153v-97h-58l-604 1003v97h58z" />
    <glyph glyph-name="lightdiagcrossbxd" unicode="&#x2573;" 
d="M273 300l-273 453v97h58l273 -454l273 454h58v-97l-273 -453l273 -453v-97h-58l-273 453l-273 -453h-58v97z" />
    <glyph glyph-name="lightleftbxd" unicode="&#x2574;" 
d="M-20 350h401v-100h-401v100z" />
    <glyph glyph-name="lightupbxd" unicode="&#x2575;" 
d="M281 1050h100v-800h-100v800z" />
    <glyph glyph-name="lightrightbxd" unicode="&#x2576;" 
d="M281 350h401v-100h-401v100z" />
    <glyph glyph-name="lightdnbxd" unicode="&#x2577;" 
d="M281 350h100v-800h-100v800z" />
    <glyph glyph-name="heavyleftbxd" unicode="&#x2578;" 
d="M-20 400h401v-200h-401v200z" />
    <glyph glyph-name="heavyupbxd" unicode="&#x2579;" 
d="M231 1050h200v-800h-200v800z" />
    <glyph glyph-name="heavyrightbxd" unicode="&#x257a;" 
d="M281 400h401v-200h-401v200z" />
    <glyph glyph-name="heavydnbxd" unicode="&#x257b;" 
d="M231 350h200v-800h-200v800z" />
    <glyph glyph-name="lightleftheavyrightbxd" unicode="&#x257c;" 
d="M-20 350h301v50h401v-200h-401v50h-301v100z" />
    <glyph glyph-name="lightupheavydnbxd" unicode="&#x257d;" 
d="M231 350h50v700h100v-700h50v-800h-200v800z" />
    <glyph glyph-name="heavyleftlightrightbxd" unicode="&#x257e;" 
d="M-20 400h401v-50h301v-100h-301v-50h-401v200z" />
    <glyph glyph-name="heavyuplightdnbxd" unicode="&#x257f;" 
d="M231 1050h200v-800h-50v-700h-100v700h-50v800z" />
    <glyph glyph-name="uphalfblock" unicode="&#x2580;" 
d="M0 850h662v-550h-662v550z" />
    <glyph glyph-name="dneighthblock" unicode="&#x2581;" 
d="M0 -113h662v-137h-662v137z" />
    <glyph glyph-name="dnquarterblock" unicode="&#x2582;" 
d="M0 25h662v-275h-662v275z" />
    <glyph glyph-name="dnthreeeighthsblock" unicode="&#x2583;" 
d="M0 162h662v-412h-662v412z" />
    <glyph glyph-name="dnhalfblock" unicode="&#x2584;" 
d="M0 300h662v-550h-662v550z" />
    <glyph glyph-name="dnfiveeighthsblock" unicode="&#x2585;" 
d="M0 437h662v-687h-662v687z" />
    <glyph glyph-name="dnthreequartersblock" unicode="&#x2586;" 
d="M0 575h662v-825h-662v825z" />
    <glyph glyph-name="dnseveneighthsblock" unicode="&#x2587;" 
d="M0 712h662v-962h-662v962z" />
    <glyph glyph-name="fullblock" unicode="&#x2588;" 
d="M0 850h662v-1100h-662v1100z" />
    <glyph glyph-name="leftseveneighthsblock" unicode="&#x2589;" 
d="M0 850h579v-1100h-579v1100z" />
    <glyph glyph-name="leftthreequartersblock" unicode="&#x258a;" 
d="M0 850h496v-1100h-496v1100z" />
    <glyph glyph-name="leftfiveeighthsblock" unicode="&#x258b;" 
d="M0 850h413v-1100h-413v1100z" />
    <glyph glyph-name="lefthalfblock" unicode="&#x258c;" 
d="M0 850h331v-1100h-331v1100z" />
    <glyph glyph-name="leftthreeeighthsblock" unicode="&#x258d;" 
d="M0 850h248v-1100h-248v1100z" />
    <glyph glyph-name="leftquarterblock" unicode="&#x258e;" 
d="M0 850h165v-1100h-165v1100z" />
    <glyph glyph-name="lefteighthblock" unicode="&#x258f;" 
d="M0 850h82v-1100h-82v1100z" />
    <glyph glyph-name="righthalfblock" unicode="&#x2590;" 
d="M331 850h331v-1100h-331v1100z" />
    <glyph glyph-name="lightshade" unicode="&#x2591;" 
d="M0 -220h20v-30h-20v30zM50 -170h20v-30h-20v30zM0 -120h20v-30h-20v30zM50 -70h20v-30h-20v30zM0 -20h20v-30h-20v30zM50 30h20v-30h-20v30zM0 80h20v-30h-20v30zM50 130h20v-30h-20v30zM0 180h20v-30h-20v30zM50 230h20v-30h-20v30zM0 280h20v-30h-20v30zM50 330h20v-30
h-20v30zM0 380h20v-30h-20v30zM50 430h20v-30h-20v30zM0 480h20v-30h-20v30zM50 530h20v-30h-20v30zM0 580h20v-30h-20v30zM50 630h20v-30h-20v30zM0 680h20v-30h-20v30zM50 730h20v-30h-20v30zM0 780h20v-30h-20v30zM50 830h20v-30h-20v30zM100 -220h20v-30h-20v30z
M150 -170h20v-30h-20v30zM100 -120h20v-30h-20v30zM150 -70h20v-30h-20v30zM100 -20h20v-30h-20v30zM150 30h20v-30h-20v30zM100 80h20v-30h-20v30zM150 130h20v-30h-20v30zM100 180h20v-30h-20v30zM150 230h20v-30h-20v30zM100 280h20v-30h-20v30zM150 330h20v-30h-20v30z
M100 380h20v-30h-20v30zM150 430h20v-30h-20v30zM100 480h20v-30h-20v30zM150 530h20v-30h-20v30zM100 580h20v-30h-20v30zM150 630h20v-30h-20v30zM100 680h20v-30h-20v30zM150 730h20v-30h-20v30zM100 780h20v-30h-20v30zM150 830h20v-30h-20v30zM200 -220h20v-30h-20v30z
M250 -170h20v-30h-20v30zM200 -120h20v-30h-20v30zM250 -70h20v-30h-20v30zM200 -20h20v-30h-20v30zM250 30h20v-30h-20v30zM200 80h20v-30h-20v30zM250 130h20v-30h-20v30zM200 180h20v-30h-20v30zM250 230h20v-30h-20v30zM200 280h20v-30h-20v30zM250 330h20v-30h-20v30z
M200 380h20v-30h-20v30zM250 430h20v-30h-20v30zM200 480h20v-30h-20v30zM250 530h20v-30h-20v30zM200 580h20v-30h-20v30zM250 630h20v-30h-20v30zM200 680h20v-30h-20v30zM250 730h20v-30h-20v30zM200 780h20v-30h-20v30zM250 830h20v-30h-20v30zM300 -220h20v-30h-20v30z
M350 -170h20v-30h-20v30zM300 -120h20v-30h-20v30zM350 -70h20v-30h-20v30zM300 -20h20v-30h-20v30zM350 30h20v-30h-20v30zM300 80h20v-30h-20v30zM350 130h20v-30h-20v30zM300 180h20v-30h-20v30zM350 230h20v-30h-20v30zM300 280h20v-30h-20v30zM350 330h20v-30h-20v30z
M300 380h20v-30h-20v30zM350 430h20v-30h-20v30zM300 480h20v-30h-20v30zM350 530h20v-30h-20v30zM300 580h20v-30h-20v30zM350 630h20v-30h-20v30zM300 680h20v-30h-20v30zM350 730h20v-30h-20v30zM300 780h20v-30h-20v30zM350 830h20v-30h-20v30zM400 -220h20v-30h-20v30z
M450 -170h20v-30h-20v30zM400 -120h20v-30h-20v30zM450 -70h20v-30h-20v30zM400 -20h20v-30h-20v30zM450 30h20v-30h-20v30zM400 80h20v-30h-20v30zM450 130h20v-30h-20v30zM400 180h20v-30h-20v30zM450 230h20v-30h-20v30zM400 280h20v-30h-20v30zM450 330h20v-30h-20v30z
M400 380h20v-30h-20v30zM450 430h20v-30h-20v30zM400 480h20v-30h-20v30zM450 530h20v-30h-20v30zM400 580h20v-30h-20v30zM450 630h20v-30h-20v30zM400 680h20v-30h-20v30zM450 730h20v-30h-20v30zM400 780h20v-30h-20v30zM450 830h20v-30h-20v30zM500 -220h20v-30h-20v30z
M550 -170h20v-30h-20v30zM500 -120h20v-30h-20v30zM550 -70h20v-30h-20v30zM500 -20h20v-30h-20v30zM550 30h20v-30h-20v30zM500 80h20v-30h-20v30zM550 130h20v-30h-20v30zM500 180h20v-30h-20v30zM550 230h20v-30h-20v30zM500 280h20v-30h-20v30zM550 330h20v-30h-20v30z
M500 380h20v-30h-20v30zM550 430h20v-30h-20v30zM500 480h20v-30h-20v30zM550 530h20v-30h-20v30zM500 580h20v-30h-20v30zM550 630h20v-30h-20v30zM500 680h20v-30h-20v30zM550 730h20v-30h-20v30zM500 780h20v-30h-20v30zM550 830h20v-30h-20v30zM600 -220h20v-30h-20v30z
M650 -170h20v-30h-20v30zM600 -120h20v-30h-20v30zM650 -70h20v-30h-20v30zM600 -20h20v-30h-20v30zM650 30h20v-30h-20v30zM600 80h20v-30h-20v30zM650 130h20v-30h-20v30zM600 180h20v-30h-20v30zM650 230h20v-30h-20v30zM600 280h20v-30h-20v30zM650 330h20v-30h-20v30z
M600 380h20v-30h-20v30zM650 430h20v-30h-20v30zM600 480h20v-30h-20v30zM650 530h20v-30h-20v30zM600 580h20v-30h-20v30zM650 630h20v-30h-20v30zM600 680h20v-30h-20v30zM650 730h20v-30h-20v30zM600 780h20v-30h-20v30zM650 830h20v-30h-20v30z" />
    <glyph glyph-name="mediumshade" unicode="&#x2592;" 
d="M0 -200h40v-50h-40v50zM50 -150h40v-50h-40v50zM0 -100h40v-50h-40v50zM50 -50h40v-50h-40v50zM0 0h40v-50h-40v50zM50 50h40v-50h-40v50zM0 100h40v-50h-40v50zM50 150h40v-50h-40v50zM0 200h40v-50h-40v50zM50 250h40v-50h-40v50zM0 300h40v-50h-40v50zM50 350h40v-50
h-40v50zM0 400h40v-50h-40v50zM50 450h40v-50h-40v50zM0 500h40v-50h-40v50zM50 550h40v-50h-40v50zM0 600h40v-50h-40v50zM50 650h40v-50h-40v50zM0 700h40v-50h-40v50zM50 750h40v-50h-40v50zM0 800h40v-50h-40v50zM50 850h40v-50h-40v50zM100 -200h40v-50h-40v50z
M150 -150h40v-50h-40v50zM100 -100h40v-50h-40v50zM150 -50h40v-50h-40v50zM100 0h40v-50h-40v50zM150 50h40v-50h-40v50zM100 100h40v-50h-40v50zM150 150h40v-50h-40v50zM100 200h40v-50h-40v50zM150 250h40v-50h-40v50zM100 300h40v-50h-40v50zM150 350h40v-50h-40v50z
M100 400h40v-50h-40v50zM150 450h40v-50h-40v50zM100 500h40v-50h-40v50zM150 550h40v-50h-40v50zM100 600h40v-50h-40v50zM150 650h40v-50h-40v50zM100 700h40v-50h-40v50zM150 750h40v-50h-40v50zM100 800h40v-50h-40v50zM150 850h40v-50h-40v50zM200 -200h40v-50h-40v50z
M250 -150h40v-50h-40v50zM200 -100h40v-50h-40v50zM250 -50h40v-50h-40v50zM200 0h40v-50h-40v50zM250 50h40v-50h-40v50zM200 100h40v-50h-40v50zM250 150h40v-50h-40v50zM200 200h40v-50h-40v50zM250 250h40v-50h-40v50zM200 300h40v-50h-40v50zM250 350h40v-50h-40v50z
M200 400h40v-50h-40v50zM250 450h40v-50h-40v50zM200 500h40v-50h-40v50zM250 550h40v-50h-40v50zM200 600h40v-50h-40v50zM250 650h40v-50h-40v50zM200 700h40v-50h-40v50zM250 750h40v-50h-40v50zM200 800h40v-50h-40v50zM250 850h40v-50h-40v50zM300 -200h40v-50h-40v50z
M350 -150h40v-50h-40v50zM300 -100h40v-50h-40v50zM350 -50h40v-50h-40v50zM300 0h40v-50h-40v50zM350 50h40v-50h-40v50zM300 100h40v-50h-40v50zM350 150h40v-50h-40v50zM300 200h40v-50h-40v50zM350 250h40v-50h-40v50zM300 300h40v-50h-40v50zM350 350h40v-50h-40v50z
M300 400h40v-50h-40v50zM350 450h40v-50h-40v50zM300 500h40v-50h-40v50zM350 550h40v-50h-40v50zM300 600h40v-50h-40v50zM350 650h40v-50h-40v50zM300 700h40v-50h-40v50zM350 750h40v-50h-40v50zM300 800h40v-50h-40v50zM350 850h40v-50h-40v50zM400 -200h40v-50h-40v50z
M450 -150h40v-50h-40v50zM400 -100h40v-50h-40v50zM450 -50h40v-50h-40v50zM400 0h40v-50h-40v50zM450 50h40v-50h-40v50zM400 100h40v-50h-40v50zM450 150h40v-50h-40v50zM400 200h40v-50h-40v50zM450 250h40v-50h-40v50zM400 300h40v-50h-40v50zM450 350h40v-50h-40v50z
M400 400h40v-50h-40v50zM450 450h40v-50h-40v50zM400 500h40v-50h-40v50zM450 550h40v-50h-40v50zM400 600h40v-50h-40v50zM450 650h40v-50h-40v50zM400 700h40v-50h-40v50zM450 750h40v-50h-40v50zM400 800h40v-50h-40v50zM450 850h40v-50h-40v50zM500 -200h40v-50h-40v50z
M550 -150h40v-50h-40v50zM500 -100h40v-50h-40v50zM550 -50h40v-50h-40v50zM500 0h40v-50h-40v50zM550 50h40v-50h-40v50zM500 100h40v-50h-40v50zM550 150h40v-50h-40v50zM500 200h40v-50h-40v50zM550 250h40v-50h-40v50zM500 300h40v-50h-40v50zM550 350h40v-50h-40v50z
M500 400h40v-50h-40v50zM550 450h40v-50h-40v50zM500 500h40v-50h-40v50zM550 550h40v-50h-40v50zM500 600h40v-50h-40v50zM550 650h40v-50h-40v50zM500 700h40v-50h-40v50zM550 750h40v-50h-40v50zM500 800h40v-50h-40v50zM550 850h40v-50h-40v50zM600 -200h40v-50h-40v50z
M650 -150h40v-50h-40v50zM600 -100h40v-50h-40v50zM650 -50h40v-50h-40v50zM600 0h40v-50h-40v50zM650 50h40v-50h-40v50zM600 100h40v-50h-40v50zM650 150h40v-50h-40v50zM600 200h40v-50h-40v50zM650 250h40v-50h-40v50zM600 300h40v-50h-40v50zM650 350h40v-50h-40v50z
M600 400h40v-50h-40v50zM650 450h40v-50h-40v50zM600 500h40v-50h-40v50zM650 550h40v-50h-40v50zM600 600h40v-50h-40v50zM650 650h40v-50h-40v50zM600 700h40v-50h-40v50zM650 750h40v-50h-40v50zM600 800h40v-50h-40v50zM650 850h40v-50h-40v50z" />
    <glyph glyph-name="darkshade" unicode="&#x2593;" 
d="M0 -185h45v-65h-45v65zM50 -135h45v-65h-45v65zM0 -85h45v-65h-45v65zM50 -35h45v-65h-45v65zM0 15h45v-65h-45v65zM50 65h45v-65h-45v65zM0 115h45v-65h-45v65zM50 165h45v-65h-45v65zM0 215h45v-65h-45v65zM50 265h45v-65h-45v65zM0 315h45v-65h-45v65zM50 365h45v-65
h-45v65zM0 415h45v-65h-45v65zM50 465h45v-65h-45v65zM0 515h45v-65h-45v65zM50 565h45v-65h-45v65zM0 615h45v-65h-45v65zM50 665h45v-65h-45v65zM0 715h45v-65h-45v65zM50 765h45v-65h-45v65zM0 815h45v-65h-45v65zM50 865h45v-65h-45v65zM100 -185h45v-65h-45v65z
M150 -135h45v-65h-45v65zM100 -85h45v-65h-45v65zM150 -35h45v-65h-45v65zM100 15h45v-65h-45v65zM150 65h45v-65h-45v65zM100 115h45v-65h-45v65zM150 165h45v-65h-45v65zM100 215h45v-65h-45v65zM150 265h45v-65h-45v65zM100 315h45v-65h-45v65zM150 365h45v-65h-45v65z
M100 415h45v-65h-45v65zM150 465h45v-65h-45v65zM100 515h45v-65h-45v65zM150 565h45v-65h-45v65zM100 615h45v-65h-45v65zM150 665h45v-65h-45v65zM100 715h45v-65h-45v65zM150 765h45v-65h-45v65zM100 815h45v-65h-45v65zM150 865h45v-65h-45v65zM200 -185h45v-65h-45v65z
M250 -135h45v-65h-45v65zM200 -85h45v-65h-45v65zM250 -35h45v-65h-45v65zM200 15h45v-65h-45v65zM250 65h45v-65h-45v65zM200 115h45v-65h-45v65zM250 165h45v-65h-45v65zM200 215h45v-65h-45v65zM250 265h45v-65h-45v65zM200 315h45v-65h-45v65zM250 365h45v-65h-45v65z
M200 415h45v-65h-45v65zM250 465h45v-65h-45v65zM200 515h45v-65h-45v65zM250 565h45v-65h-45v65zM200 615h45v-65h-45v65zM250 665h45v-65h-45v65zM200 715h45v-65h-45v65zM250 765h45v-65h-45v65zM200 815h45v-65h-45v65zM250 865h45v-65h-45v65zM300 -185h45v-65h-45v65z
M350 -135h45v-65h-45v65zM300 -85h45v-65h-45v65zM350 -35h45v-65h-45v65zM300 15h45v-65h-45v65zM350 65h45v-65h-45v65zM300 115h45v-65h-45v65zM350 165h45v-65h-45v65zM300 215h45v-65h-45v65zM350 265h45v-65h-45v65zM300 315h45v-65h-45v65zM350 365h45v-65h-45v65z
M300 415h45v-65h-45v65zM350 465h45v-65h-45v65zM300 515h45v-65h-45v65zM350 565h45v-65h-45v65zM300 615h45v-65h-45v65zM350 665h45v-65h-45v65zM300 715h45v-65h-45v65zM350 765h45v-65h-45v65zM300 815h45v-65h-45v65zM350 865h45v-65h-45v65zM400 -185h45v-65h-45v65z
M450 -135h45v-65h-45v65zM400 -85h45v-65h-45v65zM450 -35h45v-65h-45v65zM400 15h45v-65h-45v65zM450 65h45v-65h-45v65zM400 115h45v-65h-45v65zM450 165h45v-65h-45v65zM400 215h45v-65h-45v65zM450 265h45v-65h-45v65zM400 315h45v-65h-45v65zM450 365h45v-65h-45v65z
M400 415h45v-65h-45v65zM450 465h45v-65h-45v65zM400 515h45v-65h-45v65zM450 565h45v-65h-45v65zM400 615h45v-65h-45v65zM450 665h45v-65h-45v65zM400 715h45v-65h-45v65zM450 765h45v-65h-45v65zM400 815h45v-65h-45v65zM450 865h45v-65h-45v65zM500 -185h45v-65h-45v65z
M550 -135h45v-65h-45v65zM500 -85h45v-65h-45v65zM550 -35h45v-65h-45v65zM500 15h45v-65h-45v65zM550 65h45v-65h-45v65zM500 115h45v-65h-45v65zM550 165h45v-65h-45v65zM500 215h45v-65h-45v65zM550 265h45v-65h-45v65zM500 315h45v-65h-45v65zM550 365h45v-65h-45v65z
M500 415h45v-65h-45v65zM550 465h45v-65h-45v65zM500 515h45v-65h-45v65zM550 565h45v-65h-45v65zM500 615h45v-65h-45v65zM550 665h45v-65h-45v65zM500 715h45v-65h-45v65zM550 765h45v-65h-45v65zM500 815h45v-65h-45v65zM550 865h45v-65h-45v65zM600 -185h45v-65h-45v65z
M650 -135h45v-65h-45v65zM600 -85h45v-65h-45v65zM650 -35h45v-65h-45v65zM600 15h45v-65h-45v65zM650 65h45v-65h-45v65zM600 115h45v-65h-45v65zM650 165h45v-65h-45v65zM600 215h45v-65h-45v65zM650 265h45v-65h-45v65zM600 315h45v-65h-45v65zM650 365h45v-65h-45v65z
M600 415h45v-65h-45v65zM650 465h45v-65h-45v65zM600 515h45v-65h-45v65zM650 565h45v-65h-45v65zM600 615h45v-65h-45v65zM650 665h45v-65h-45v65zM600 715h45v-65h-45v65zM650 765h45v-65h-45v65zM600 815h45v-65h-45v65zM650 865h45v-65h-45v65z" />
    <glyph glyph-name="upeighthblock" unicode="&#x2594;" 
d="M0 850h662v-138h-662v138z" />
    <glyph glyph-name="righteighthblock" unicode="&#x2595;" 
d="M579 850h83v-1100h-83v1100z" />
    <glyph glyph-name="dnleftquadrant" unicode="&#x2596;" 
d="M0 300h331v-550h-331v550z" />
    <glyph glyph-name="dnrightquadrant" unicode="&#x2597;" 
d="M331 300h331v-550h-331v550z" />
    <glyph glyph-name="upleftquadrant" unicode="&#x2598;" 
d="M0 850h331v-550h-331v550z" />
    <glyph glyph-name="upleftdnleftdnrightquadrant" unicode="&#x2599;" 
d="M0 850h331v-550h331v-550h-662v1100z" />
    <glyph glyph-name="upleftdnrightquadrant" unicode="&#x259a;" 
d="M0 850h331v-550h331v-550h-331v550h-331v550z" />
    <glyph glyph-name="upleftuprightdnleftquadrant" unicode="&#x259b;" 
d="M0 850h662v-550h-331v-550h-331v1100z" />
    <glyph glyph-name="upleftuprightdnrightquadrant" unicode="&#x259c;" 
d="M0 850h662v-1100h-331v550h-331v550z" />
    <glyph glyph-name="uprightquadrant" unicode="&#x259d;" 
d="M331 850h331v-550h-331v550z" />
    <glyph glyph-name="uprightdnleftquadrant" unicode="&#x259e;" 
d="M0 300h331v-550h-331v550zM331 850h331v-550h-331v550z" />
    <glyph glyph-name="uprightdnleftdnrightquadrant" unicode="&#x259f;" 
d="M0 300h331v550h331v-1100h-662v550z" />
    <glyph glyph-name="blacksquare" unicode="&#x25a0;" 
d="M56 700h550v-600h-550v600z" />
    <glyph glyph-name="H22073" unicode="&#x25a1;" 
d="M56 100v600h550v-600h-550zM153 187h357v426h-357v-426z" />
    <glyph glyph-name="blacksmallsquare" unicode="&#x25aa;" 
d="M197 546h268v-292h-268v292z" />
    <glyph glyph-name="whitesmallsquare" unicode="&#x25ab;" 
d="M502 214h-342v372h342v-372zM422 509h-182v-218h182v218z" />
    <glyph glyph-name="triagup" unicode="&#x25b2;" 
d="M340 700l227 -480v-20h-472v20l227 480h18z" />
    <glyph glyph-name="blackrightpointingpointer" unicode="&#x25ba;" 
d="M560 440l-440 -227h-18v474h18l440 -227v-20z" />
    <glyph glyph-name="blackdownpointingtriangle" unicode="&#x25bc;" 
d="M322 150l-227 480v20h472v-20l-227 -480h-18z" />
    <glyph glyph-name="triaglf" unicode="&#x25c4;" 
d="M102 460l440 227h18v-474h-18l-440 227v20z" />
    <glyph glyph-name="lozenge" unicode="&#x25ca;" 
d="M279 0l-232 400l232 400h97l240 -400l-240 -400h-97zM330 60l199 340l-199 340l-192 -340z" />
    <glyph glyph-name="circle" unicode="&#x25cb;" 
d="M333 86q-62 0 -115.5 23t-92.5 66q-39 42 -60.5 100t-21.5 126t21.5 126t60.5 101t92 66t116 23q62 0 115 -23t93 -66q39 -43 60 -101t21 -126t-21 -126t-61 -100q-39 -43 -92 -66t-115 -23zM333 171q43 0 78.5 16.5t61.5 47.5t40 73.5t14 92.5t-14 92.5t-40 73.5
t-61.5 47.5t-78.5 16.5t-79 -16.5t-62 -47.5t-40 -73.5t-14 -92.5t14 -92.5t40 -73.5t62 -47.5t79 -16.5z" />
    <glyph glyph-name="H18533" unicode="&#x25cf;" 
d="M333 86q-62 0 -115.5 23t-92.5 66q-39 42 -60.5 100t-21.5 126t21.5 126t60.5 101t92 66t116 23q62 0 115 -23t93 -66q39 -43 60 -101t21 -126t-21 -126t-61 -100q-39 -43 -92 -66t-115 -23z" />
    <glyph glyph-name="whitebullet" unicode="&#x25e6;" 
d="M522 362q0 -40 -13 -71t-38 -52q-24 -22 -59.5 -32.5t-79.5 -10.5q-45 0 -80.5 10.5t-60.5 32.5q-25 21 -37.5 52t-12.5 71v72q0 41 13 72.5t37 52.5q25 22 60.5 33t80.5 11t80.5 -11t59.5 -33q25 -21 37.5 -52.5t12.5 -72.5v-72zM218 362q0 -25 9 -42.5t24 -27.5
q16 -10 36.5 -14.5t44.5 -4.5t44 4.5t36 14.5q15 10 24 27.5t9 42.5v72q0 25 -8.5 43t-24.5 29q-15 11 -35.5 15.5t-44.5 4.5t-44.5 -4.5t-36.5 -15.5q-15 -11 -24 -29t-9 -43v-72z" />
    <glyph glyph-name="uni2619" unicode="&#x2619;" 
d="M627 373l-77 2q2 32 -3.5 58t-17.5 44t-29.5 27.5t-38.5 9.5h-258q-45 0 -76.5 14.5t-51 42t-27.5 66t-6 87.5l78 -2q-2 -29 0.5 -51.5t11 -38.5t25 -25t41.5 -9h63v78q0 42 13.5 75.5t40.5 56.5t66 35.5t89 12.5l10 -84q-34 0 -57 -4.5t-39 -16.5t-24 -34t-8 -56v-63
h110q38 0 70 -14.5t55 -43t33.5 -71t6.5 -96.5zM334 183v253h40q33 0 57.5 -7.5t41 -24t25 -43.5t8.5 -67v-188q0 -71 -19.5 -130.5t-55.5 -103t-85.5 -67t-109.5 -23.5q-57 0 -99.5 17t-69.5 47t-39.5 70.5t-11.5 87.5l80 -5q0 -31 5.5 -54t16 -38t25.5 -22.5t33 -7.5
q15 0 26.5 4.5t18.5 13t10 20.5t3 27v38l-161 215v92q0 38 7 68t21.5 51.5t38 33t55.5 11.5h12l96 -268h31z" />
    <glyph glyph-name="female" unicode="&#x2640;" 
d="M374 -200h-86v202h-186v86h186v165q-47 7 -86.5 30.5t-68.5 60.5q-28 36 -43.5 83.5t-15.5 102.5q0 61 19 112.5t53 88.5q35 38 82 58.5t103 20.5t103.5 -20.5t81.5 -57.5q35 -38 53.5 -89.5t18.5 -112.5q0 -55 -15.5 -102.5t-43.5 -83.5q-28 -37 -67.5 -60.5
t-87.5 -30.5v-165h187v-86h-187v-202zM331 726q-37 0 -67 -14t-52 -39q-22 -26 -33.5 -62.5t-11.5 -80.5t11.5 -80t33.5 -62t52 -40t67 -14t67.5 14t52.5 40t33.5 62t11.5 80t-11.5 80t-33.5 62t-52.5 40t-67.5 14z" />
    <glyph glyph-name="male" unicode="&#x2642;" 
d="M524 260q0 -61 -18.5 -112.5t-53.5 -89.5q-34 -37 -81.5 -57.5t-103.5 -20.5t-103 20.5t-82 58.5q-34 37 -53 88.5t-19 112.5t19 112.5t53 88.5q35 38 82 58.5t103 20.5q16 0 31.5 -2t30.5 -5q15 -4 29 -9t27 -12l162 211h-233v77h361v-399h-77v278l-152 -211
q18 -19 32.5 -42t24.5 -49q11 -26 16 -55.5t5 -61.5zM267 456q-37 0 -67.5 -14t-52.5 -39q-22 -26 -33.5 -62.5t-11.5 -80.5t11.5 -80t33.5 -62t52.5 -40t67.5 -14t67.5 14t52.5 40t33.5 62t11.5 80t-11.5 80t-33.5 62t-52.5 40t-67.5 14z" />
    <glyph glyph-name="spade" unicode="&#x2660;" 
d="M487 90v-90h-312v90h110l12 260h-25l-51 -150h-49q-33 0 -58 12.5t-42 33.5q-17 22 -25.5 50t-8.5 60v92l259 352h68l260 -352v-92q0 -32 -8.5 -60t-25.5 -50q-17 -21 -42.5 -33.5t-58.5 -12.5h-49l-51 150h-25l12 -260h110z" />
    <glyph glyph-name="club" unicode="&#x2663;" 
d="M201 603q0 42 8.5 79t25.5 66t41.5 45.5t54.5 16.5t54.5 -16.5t41.5 -45.5t25.5 -66t8.5 -79l-63 -106l24 -28q12 18 24 31t24 22q11 10 23.5 14.5t25.5 4.5q23 0 45 -10.5t39 -30.5t26.5 -49t9.5 -65q0 -40 -13.5 -77t-39.5 -65q-25 -29 -60.5 -45t-76.5 -16l-44 172
h-38l10 -268h112v-87h-316v87h112l10 268h-37l-45 -172q-42 0 -77 15t-60 42q-26 27 -39.5 64.5t-13.5 81.5q0 35 10.5 63t27.5 47q18 19 40 28.5t46 9.5q13 0 25.5 -4.5t23.5 -12.5q12 -8 23 -20t21 -28l24 28z" />
    <glyph glyph-name="heart" unicode="&#x2665;" 
d="M279 0l-223 422l-18 172q-4 41 3 78.5t25 65.5q17 29 43.5 45.5t58.5 16.5t58 -13.5t45 -41.5q19 -27 31 -71t16 -104h26q5 58 19 102t36 72q22 29 48.5 42.5t56.5 13.5t54 -16.5t41 -45.5q16 -28 23 -65.5t3 -78.5l-19 -172l-223 -422h-104z" />
    <glyph glyph-name="diamond" unicode="&#x2666;" 
d="M278 0l-232 400l232 400h97l240 -400l-240 -400h-97z" />
    <glyph glyph-name="musicalnote" unicode="&#x266a;" 
d="M506 431q0 38 -15.5 62t-73.5 63t-76 64v-468q0 -35 -13 -65t-36 -52t-54 -33.5t-66 -11.5q-31 0 -54 8.5t-38 23.5t-22 35t-7 43t10.5 46t30 41.5t48 29.5t62.5 11h62v582h65q3 -39 28 -59.5t96 -67.5t105 -92t34 -114q0 -37 -8.5 -69t-23.5 -58.5t-33.5 -48.5
t-41.5 -44l-46 57q15 14 26.5 26.5t20.5 26.5t14.5 30t5.5 34z" />
    <glyph glyph-name="checkmark" unicode="&#x2713;" 
d="M197 0l-177 486h97l141 -402q23 98 52 191t65 183t79.5 176t93.5 166h94q-56 -92 -104 -188t-89 -197q-41 -100 -74 -204t-58 -211h-120z" />
    <glyph glyph-name="uni2767" unicode="&#x2767;" 
d="M27 373q-4 54 6.5 96.5t33.5 71t55 43t70 14.5h111v63q0 34 -8 56t-24.5 34t-39.5 16.5t-57 4.5l10 84q50 0 89 -12.5t66 -35.5t40.5 -56.5t13.5 -75.5v-78h63q25 0 41.5 9t25 25t11 38.5t0.5 51.5l78 2q2 -49 -6 -87.5t-27.5 -66t-51 -42t-76.5 -14.5h-258
q-21 0 -38.5 -9.5t-29.5 -27.5t-17.5 -44t-3.5 -58zM320 183h31l96 268h12q32 0 55.5 -11.5t38 -33t21.5 -51.5t7 -68v-92l-161 -215v-38q0 -15 3 -27t10 -20.5t18.5 -13t26.5 -4.5q18 0 33 7.5t25.5 22.5t16 38t5.5 54l80 5q1 -47 -11.5 -87.5t-39.5 -70.5t-69.5 -47
t-99.5 -17q-60 0 -109.5 23.5t-85.5 67t-55.5 103t-19.5 130.5v188q0 40 8.5 67t25 43.5t41 24t57.5 7.5h40v-253z" />
    <glyph glyph-name="commaaccent" unicode="&#xf6c3;" 
d="M206 -300l87 200h143l-144 -200h-86z" />
    <glyph glyph-name="apple" unicode="&#x1f41b;" 
d="M570 543h79v-41h-79l-182 -25l44 -58h138l43 -116l31 -57l-35 -17l-31 61l-36 89h-94l14 -159h70l13 -218l28 -72l-35 -18l-34 86l-11 176h-33l-80 -207h-97l-82 207h-33l-10 -176l-34 -86l-36 18l28 72l13 218h71l13 159h-94l-34 -89l-33 -61l-34 17l31 57l42 116h139
l44 58l-183 25h-78v41h78l192 -26v43l-37 22v50l58 14v21l-118 59l-57 13l2 39l55 -10l146 -71l146 71l53 10l2 -39l-55 -13l-121 -59v-21l59 -14v-50l-36 -22v-43z" />
    <glyph glyph-name="apple" unicode="&#xf8ff;" 
d="M570 543h79v-41h-79l-182 -25l44 -58h138l43 -116l31 -57l-35 -17l-31 61l-36 89h-94l14 -159h70l13 -218l28 -72l-35 -18l-34 86l-11 176h-33l-80 -207h-97l-82 207h-33l-10 -176l-34 -86l-36 18l28 72l13 218h71l13 159h-94l-34 -89l-33 -61l-34 17l31 57l42 116h139
l44 58l-183 25h-78v41h78l192 -26v43l-37 22v50l58 14v21l-118 59l-57 13l2 39l55 -10l146 -71l146 71l53 10l2 -39l-55 -13l-121 -59v-21l59 -14v-50l-36 -22v-43z" />
    <glyph glyph-name="cyrillicbrevecmb" horiz-adv-x="0" 
d="M0 693q-81 0 -138.5 44.5t-58.5 153.5l95 10q1 -71 23 -101t79 -30t79 30t23 101l95 -10q-1 -109 -58.5 -153.5t-138.5 -44.5z" />
    <glyph glyph-name="dieresistonoscmb" horiz-adv-x="0" 
d="M-60 700l42 200h113l-96 -200h-59zM-163 701q-23 0 -37.5 11.5t-14.5 44.5v6q0 33 14.5 45.5t37.5 12.5t37.5 -12.5t14.5 -45.5v-6q0 -33 -15 -44.5t-37 -11.5zM163 701q-23 0 -37.5 11.5t-14.5 44.5v6q0 33 14.5 45.5t37.5 12.5t37.5 -12.5t14.5 -45.5v-6
q0 -33 -15 -44.5t-37 -11.5z" />
    </font>
</defs>
</svg>
